<?xml version="1.0" encoding="UTF-8"?>
<svg xmlns="http://www.w3.org/2000/svg" xmlns:xlink="http://www.w3.org/1999/xlink" version="1.1" viewBox="0 0 1920 1080">
  <!-- Generator: Adobe Illustrator 29.8.3, SVG Export Plug-In . SVG Version: 2.1.1 Build 3)  -->
  <defs>
    <style>
      .st0 {
        fill: #fcee21;
      }
    </style>
  </defs>
  <g id="Layer_1">
    <image width="7964" height="4480" transform="scale(.2)" xlink:href="map-indo-pacific-2x.webp"/>
  </g>
  <g id="Layer_5">
    <path class="st0" d="M1671,117c-5.5-.8-10.6,2.9-11.4,8.4-.2,1.6-.5,3.2-.7,4.8-5.2-.3-9.8,3.5-10.4,8.7-2.5,18.8-9.5,37.1-18.3,54.1-7.6,14.5-16.6,28.4-27,41-8.5,9.5-18.2,17.9-28.1,26.2-23.2,18.8-57.3,43.8-86.5,49.8-13.8,2.5-27.6,5.4-41.2,8.8,29.5-23.1,52.6-54.1,66.6-88.8,2.9-7.4,5.9-15.9,8.1-23.5,1.2-4.6,3.1-11.5,4-16.1,4.6-21.7,6.6-43.9,6.2-66-.3-5.5-4.9-9.8-10.5-9.5-5.5.3-9.8,4.9-9.5,10.5,1.7,35.9-2.9,72.4-16.6,105.7-17,41.4-48.1,77.8-88,98.6-2.4.7-4.7,1.4-7.1,2.2-4.4.2-9-.2-13.6-1-15.6-2.9-30.2-9.8-43.9-17.7-6.9-4-13.7-8.3-19.9-13.3-1.4-1.4-3.4.6-2.1,2,6,5.7,12.7,10.6,19.5,15.3,12.6,8.5,26.1,16.4,40.8,20.9-4.3,1.4-8.5,2.9-12.8,4.4-12.3,4.1-25,8.5-36,15.4-9.4,5.7-18.1,13.1-25.2,21.6,2.1-23,1.6-46.2-2.5-68.7,0-.4-.5-.8-.9-.7-.5,0-.9.4-.8.9,1.9,37-4.6,73.4-15.5,108.4-4,11.5-6.9,23.3-10.6,35-13,40.9-30.7,80.5-52.7,117.4-2.7,4.6-5.6,9.2-8.6,13.6-.6.8-1.2,1.6-1.7,2.3.2-1.3.3-2.6.3-3.8.2-9.5-3.2-18.5-7.6-26.6-8.7-15.9-21.4-29.2-35.1-40.8-3.4-2.9-7-5.6-10.6-8.3-3.4-2.4-6.8-5-9.7-8-18.3-18.2-27-44.3-31.4-69.4-.5,28.9,8.3,60.2,30.7,79.9,1.3,1.1,2.7,2.2,4.1,3.2,10.7,8.1,21,17,30.2,26.8,8.7,9.2,17,19.3,21.5,31.2,2.9,7.6,3.7,16.2.2,23.7-1.6,3.4-3.8,6.4-6.2,9.5-5.4,5.4-11.8,9.6-19.6,10.2-13.1,0-29.4-12.7-39.7-20.9-4.7-4-9.5-7.8-13.9-12.2-12.9-13.3-23.2-28.7-34.4-43.3-2.7-3.8-5.6-7.3-8.8-10.5-.1-.1-.2-.3-.4-.4-4.5-5.2-10.1-9.5-14.6-14.4s-38.4-50.3-51.8-70.5c-20.9-32.4-40.9-66.1-60.9-99-4.3-7-10.9-17.1-14.8-24.3,0-.3,0-.6-.2-.8-.4-.4-1-.4-1.4,0-2.8,2.5-5.4,5.2-7.9,7.9-7.6,8.1-14.4,16.9-21,25.9-17.6,24-34.1,48.8-47.3,75.6,0,0,0,.2-.1.2-1.3-.6-2.6-1.3-3.9-1.9-10.5-5.2-20.9-10.8-30.8-17-2.6-1.5-4.7,1.9-2.8,3.7,4.5,4,9.3,7.7,14.2,11.2,6.3,4.5,12.8,8.8,19.4,12.9-3.3,8.1-5.7,16.5-5.4,25.4.3,2.6,1,7.1,1.4,9.8,2.2,14.2,4.9,29,3.5,43.2-1.4,14.7-8.5,23.7-23,25.7-6.6.9-13.5.9-20.1-.2-2.7-.5-5.5-1.2-8.3-2-10-5.5-20.4-10.5-31.3-14.5-.1,0-.2,0-.3,0-2.9-1.5-5.9-3-8.9-4.5l-.4-.2-.8-.4s-.8-.5-.8-.5c-6-3.7-10.9-8.6-15.9-14-8.1-8.8-15.5-18.5-22.5-28.3-24.6-35-46-72.4-65.3-110.6-4-7.7-7.2-15.7-11.3-23.3-5.3-9.4-12.6-17.9-20.8-24.8-24.5-20.7-55.9-31-86.6-37.7-3.3-.7-6.6-1.4-9.8-2-2.2-.8-4.4-1.5-6.6-2.3-8.3-2.9-16.8-5.8-24.5-10-2.6-1.5-5.5-3.2-7.3-5.6-1.6-2.7-2.6-5.9-3.3-8.9-1.1-3.7-.9-9.9-5.6-11.2-3.4-.2-6,2.2-8.5,3.6-3.8,2.5-7.4,5-11.2,7.3-3.8,2.2-7.7,4.2-11.7,5.2-1.9.5-3.7.8-5.6.4-6-1.6-11.1-6.1-16.1-9.7-10.3-8.1-20.4-16.9-28.8-26.9-4.2-5-8.2-10.1-11.8-15.6-.9-1.4-1.8-2.7-2.6-4.1-.9-1.6-1.5-3-2.9-4.3-10.3-9-23.6,5.1-14.1,14.8,0,0,.7.7.7.7,7,6.3,14.3,12.1,21.7,17.9,10.9,8.5,22.3,15.7,34,22.8,16.7,10.1,21.4,13,39,1.5,3.8-2.5,7.4-5.2,11-7.7,1.7-1.2,3.6-2.5,5.4-3.1.4-.1.8-.2,1-.2,0,0,0,0,.1,0,1.1.5,1.5,1.4,1.9,2.7.6,1.9,1,4.2,1.4,6.4.7,3.4,1.5,6.8,2.9,10.1,1.8,3.3,4.6,5.6,7.2,8.1,13.2,11.7,26.8,22.9,42.2,31.5,2.8,3.1,4,6.6,3.2,10.8-5.5,24.2-49.9,58-80.5,78.9-4.9-.7-9.8-1.3-14.7-1.7-5.7-.4-11.4-.4-17,.4-1,0-1.8.7-2.8.7-.9.1-1.9.2-2.9.2-.2,0-.5,0-.7.1-.7.3-.9,1.1-.6,1.8.3.7,1.1.9,1.8.6,1.3-.5,2.6-1,4-.7,2.2.2,4.5,0,6.8.3,6.3.5,12.4,1.8,18.5,3.4-4.1,2.7-7.8,5.1-10.9,7.1-2,1.3-7.1,3.8-9.3,5.1-22.4,12-45.1,23.8-68,34.7-14,6.3-28,13.2-43.1,16.1-13.3,2.3-19-4-26.2-13.8-2.8-3.2-4.5-7.1-6.4-10.9,0,0-3-5.6-3-5.6-13.4-24.8-18.9-32-29-58.2-1.5-3.6-10.9-20.6-12.8-23.9-5.5-9.4-23.1-38.2-29.3-47-14.9-21-19.5-25.2-35.4-45.3-7.9-10-15.7-20.3-24-30.1-6.8-8-13.2-16.5-16.9-26.4-5.5-13.8.4-45.1-26.3-53.6-20.9-6.7-42.1-12.1-63.6-15.1-17.2-2.2-34.3-3.8-51.7-4.6v20s0,0,.1,0c8.3-.5,16.8-.8,25.1-.9,25-.2,50.5.3,75,5.4,9,2.2,21.8,4.1,29.2,12.3,11.1,12.3,3.9,25.8,8.9,37.8l1.3,3s1.5,2.9,1.5,2.9l.7,1.5s.8,1.4.8,1.4c0,0,1.6,2.8,1.6,2.8,5.6,9.1,12.1,17.8,17.9,26.7,13.7,21.4,27.9,43,41.4,64.5,11,17.8,9.7,18.3,23.4,42.9,1.7,3.2,11.2,20.1,13,23.3,15,26.2,32.9,50.7,51.4,74.4,1.2,1.5,2.5,3.7,3.7,5.4,4.3,6.5,8.6,14.2,16.1,17.4,4.4,2,9.3,2.6,14.1,2.7,8,.6,16-2.1,23.2-4.7,34.3-12.5,67.3-28,100.4-43.3,1.8-.9,4.4-2.1,6.2-3.1,6-3.4,14-8.1,22.9-13.7.9.3,1.8.7,2.8,1-14.5,30.5-33.4,73.9-44,112.3-7.6,27.4-30.6,57.8-55.1,89.9-9.1,12-18.5,24.4-27.7,37.4-.3.2-.5.4-.7.7-4.2,4.4-7.7,9.3-11.7,13.9-10.8,12.2-23.6,24-39.6,28.1-3.2.8-8.6-.4-11.6-.5-7.6-.5-15.3-.5-22.9,0-8.7.5-17.2,1.5-25.7,3.3-.8.2-1.3.9-1.3,1.7,0,.9.9,1.6,1.8,1.5,4.1-.2,8.4-.3,12.6-.2,10.5.2,20.9,1.2,31.1,3.2,1.9.4,4.1.8,5.9,1.3,3.4,1,6.1,2.7,8.2,5,6.5,7.3,7,20.1,5.5,29.5,0,.1,0,.3,0,.4-2.6,7.3-4.9,14.8-6.8,22.4-11.7,47.3-33.2,109.2-57.6,165.6-37,85.7-67.7,130.7-87,153.4-1.6,1.9-2.4,4.2-2.4,6.5h22.9c63.2-79.2,122.5-236.5,143.4-320.7,8.9-35.8,27.9-68.7,48.9-98.8,1-1.3,2-2.7,2.9-4.1,9.1-12.9,18.6-25.4,27.7-37.3,25.6-33.7,49.8-65.6,58.4-96.7,10.3-37.2,29.3-80.5,43.6-110.5.8.3,1.6.6,2.4.9,12.8,10.1,25.2,20.8,37.3,31.8.4,38.6-.4,77.2-2.4,115.7-3.1,53.8-7.6,107.3-18.5,160-7.7,35.8-17.8,71.3-31.7,105.1-6.8,16.3-15.1,32.2-24.9,46.9-54.1,77.6-136.9,129.8-219.4,173.7-16.6,8.7-33.4,16.9-50.3,24.9-3.6,1.7-5.8,5.4-5.7,9.2h59.9c78.5-18.5,176.4-41.3,247.2-58,191.8-44.8,382.9-93.2,570.6-153.5,4.6,2.7,9.2,5.3,13.8,8,74.3,42.2,149.6,82.4,226.4,119.8,1.6.8,3.6.1,4.4-1.5.8-1.6.2-3.6-1.5-4.4-38.1-19.1-75.7-39.1-113.1-59.5-39.3-21.6-78.4-43.7-117.1-66.5,66.6-21.5,133.2-43.2,197.6-70.8,7.7-3.3,21.8-8.9,28.3-11.2,3.8-1.4,15-7.6,18.9-9.6,7.5-3.8,19.1-17.1,19.1-17.1,0,0,1.3-1.2,2-1.8,5.5-5.4,9.1-12,12.5-18.8,3.2-6.7,6.1-13.5,8.9-20.2,8-19.3,17.4-41.2,25.8-59.9,4.3-9.6,8.5-18.9,13.1-28.3,4.1-8.5,9-17.6,14.9-24.7,17-21.6,43.2-24.9,68.5-30.7,7.2-1.6,14.7-3.6,21.9-5.7,24.2-6.3,45.2-17.1,62.7-35.8,76.1-81.6,99.1-291.6,108.7-401.9.4-5.2-3.3-9.9-8.5-10.7ZM317.9,703.2c-2-3.4-4.4-6.5-7.5-9.2,4.9-.9,9.7-2.3,14.4-4.1-2.4,4.4-4.7,8.8-7,13.3ZM531.5,412.1c-3.9-3.4-7.9-6.8-11.8-10.2-3.6-3-7.3-6-11-9,4.2-8.4,7.2-14.3,8.5-16.7,6.8-5.4,13.3-11.1,19.3-16.9,1,18.6,1.8,37.2,2.2,55.8-2.4-1-4.8-2.1-7.3-3.1ZM1055.1,524.6c6.6.8,12.9,3.2,18.5,7.6,4.7,3.6,8.3,7.8,12.1,12.5,7.9,9.7,17.1,18.3,26.4,26.6,14.3,12,27.2,25.5,42.9,35.9,7.9,5,16.4,10.5,26.1,10.5,8.7-.3,16.5-5.2,22.3-11.3,3.7-2.7,6.6-6.6,8.5-10.9,1.5-2.2,3-4.3,4.8-6.2.3-.4.6-.8,1-1.1-1.5,7.1-.9,14.6,2.1,22.2,5.1,13.1,13.9,24.2,18.9,37,4.6,11.7,6.7,25.5,1.2,37.2-2.7,5.4-7.4,9.9-13.1,13.2-7.1,4.3-15.8,6.6-23.7,10.2-2.5,1.1-4.4,2.9-6.8,4.4-8.1,5-16.5,9.5-24.8,14.1,0,0-.1,0-.2,0-38.4-12.2-76.4-26.5-113.6-41.1-63.5-23.9-121.4-60.9-177.6-99,5.4-10.5,12.7-19,22.9-22.3,23.7-3.2,46.8-10.6,69.4-18.1,23-7.3,46.3-17.6,69.9-21.2,4-.5,12.8-.1,12.8-.2ZM1131.6,747.7c-44.3,23.5-89.1,46.2-134.2,68.4-43.9-27.6-87.1-56.3-129.3-86.4-4.3-3.1-8.5-6.2-12.8-9.3,2.9-29.3,5.6-58.6,10.7-87.6,1.5-7.4,3.4-16.6,6.1-25.9,13.2,10.1,26.5,20,40.1,29.5,41.9,29.8,86.7,56.2,134.3,76.2,28.1,12,56.5,24.2,85.2,35.1ZM904.6,375.4c12-17.7,25-34.4,35.7-53,.5,4.1,1.7,8.2,3,12.1,4.7,14,12,26.9,19.2,39.7,21.6,37.9,48,73.6,70.5,111.2-5.9-2.4-12-4.1-18.3-4.9-16.9-7.2-34.6-12.5-52.5-16.4-31.8-7.8-62.9-18.7-92.6-32.6,9.9-19.6,22.5-37.9,34.9-56.1ZM867.5,516.4c.4-18.2-4.9-35.2-7.9-52.8-1.3-7.7,2.6-15.4,5.5-22.5,0-.1.1-.2.2-.3,27.8,16.3,57.8,28.6,88.8,37.3,7.8,2.1,15.9,4.1,23.9,6.3-1.8.6-3.5,1.1-5.3,1.8-41.1,15.2-75.8,46.4-117.4,58.5,7.8-6.5,11.8-16.3,12.1-28.3ZM859.4,552.4c31.7-8.2,60.4-26.1,89.2-40.1,18.1-8.7,38-17,57.9-15.7,3.7.2,7.2.9,10.6,1.8,6.1,2.7,12.2,5.5,18.1,8.6,3.2,2.2,6.2,4.6,9,7.2-13.8,1.1-27,5.8-40,10.2-34.6,12.1-69.1,26.2-105.8,30-14.7,1.6-29.4,1.2-43.8-1,1.6-.3,3.1-.7,4.7-1.1ZM880.6,565.6c1.9,0,3.7,0,5.6-.1-1,1-1.9,2-2.7,3.1-3.5,4.4-6.3,9.1-8.7,14.1-7-4.8-14-9.6-21-14.4-2.6-1.7-5.2-3.4-7.7-5.1,11.4,1.9,23,2.8,34.6,2.5ZM783.4,543.4c8.4,4.6,16.5,9.9,24.4,15.4,20.2,14.2,39.8,29.4,59.5,44.5-1.4,5.2-2.7,10.4-3.8,15.6-6.3,32.1-9.9,64.7-13.9,97.3-45-33.2-88.6-68.3-128.3-107.6-11.1-11-22-22.8-32.3-34.6-40.9-47-83.2-93.2-128.8-135.9,0-.4,0-.7,0-1.1,50.8,22.9,100.2,48.9,150.3,73.4,24.1,11.7,48,23.5,73.1,33.1ZM563.5,302.3c-.9-3.3-2.4-6.4-4.3-9.2,22.1,8.8,43.6,19.3,61.1,35.4,7.8,7.3,14.5,15.8,18.9,25.5,23.6,51.8,51.7,101.9,87.3,146.6,2.1,2.4,4.1,4.9,6.3,7.3-57.6-27.4-115.3-57.4-173.2-83.3-1-29.1-2.5-58.2-4.4-87.3,7.6-11.8,11.3-23.7,8.3-34.9ZM778.8,915c-146.6,34.5-293.5,68.5-437,110.4-5.6,1.6-11.2,3.3-16.8,4.9,70-40.1,137.1-91.1,178-161.8,25.9-46.1,36.3-98.8,43.6-150.6,11.7-84.1,15.3-168.9,13.9-253.6,5.8,5.4,11.5,10.9,17.2,16.4,38.1,36.9,74,76.5,109.4,116,7.3,7.8,15,15.7,22.7,23.1,43.1,40.7,89.3,77.5,137.5,111.9-4.2,32.1-9.4,64.1-18.6,95.3-9.4,32.1-24.4,66-50,88.1ZM844.7,803.5c4.1-22.3,6.8-44.8,9.1-67.4,42.8,30.2,87,58.5,131.7,85.7-58.6,28.6-117.6,56.3-176.7,83.6,19.8-30.3,29.3-66.7,35.9-101.9ZM858.8,896.1c40.2-21.9,93.7-50.7,129.8-69.9.7-.4,1.4-.7,2.1-1.1,15,9.1,30.1,18.1,45.2,27-58.8,15.4-117.9,29.9-177.1,44ZM1200.3,805.9c-49.7,15.1-99.9,29.1-150.3,42.4-16.1-9.7-32-19.5-47.9-29.4,44-23.6,89.1-46.9,133.7-69.7,17.8,6.7,35.8,12.9,54,18.3,25.7,7.5,52.4,13.7,79.3,15.4-22.7,8.2-45.7,15.7-68.8,22.9ZM1609.4,378.7c-15.2,50.1-40,129.2-91.3,150.6-5.7,2.5-11.9,4.3-18.9,6.4-6.6,2-13.3,3.9-20.1,5.5-14.4,3.5-29.9,6.4-43.9,12.1-32.7,12.7-51.7,40.2-62.7,72.2-7.4,21.1-10.3,43.6-13.4,65.4-2.7,17.8-5.1,35.8-13.5,51.6-2.3,4.2-4.9,7.4-8,9.7-5.4,3.7-14.5,5.1-19.7,4.9-7.1-.2-19.9-1.9-28.4-2.6-8.6-.7-29.5-4.6-49.4-8.9-21.1-5-42-10.9-62.9-17.4,6.5-3.4,13-6.8,19.4-10.4,1.4-.8,3.4-1.9,4.7-2.9.6-.5,1.2-1,1.9-1.3,8.5-4.3,17.7-6.1,26.5-10.7,9.3-4.5,15.1-10.8,18.3-18,1.4,8.1,2.6,16.2,3.7,24.3.8,5.9,1.4,11.7,2,17.6,0,1,1,1.8,2,1.7,1,0,1.8-1,1.7-2-1.3-18.6-3.2-37-6.4-55.3.3-8.6-1.8-17.8-5.5-26.8-10.7-24.5-31.7-39.9-20.8-65.8,29.7-42.4,54.3-88.6,71.3-137.5,4-11.9,6.1-24.4,8.3-36.8,0,0,0-.2,0-.3,8-17.5,23.2-31.3,40.5-39.7,8.6-4.4,18.4-7.2,27.7-10.2,33.6-10.8,67.4-20.6,102.1-26.7,8.9-1.8,18.1-2.8,26.8-5.3,11.6-3.4,22.6-8.6,32.9-14.2,18.3-10,35.2-21.8,51.6-34.6,10.7-8.5,21.4-17.4,30.8-27.6,11.7-13.5,21.7-28.3,30.3-43.9.4-.7.7-1.4,1.1-2.1-10,60.3-21.6,120.1-38.4,178.9Z"/>
  </g>
</svg>