<?xml version="1.0" encoding="UTF-8"?>
<svg id="Layer_1" xmlns="http://www.w3.org/2000/svg" version="1.1" viewBox="0 0 1080 1080">
  <!-- Generator: Adobe Illustrator 29.8.3, SVG Export Plug-In . SVG Version: 2.1.1 Build 3)  -->
  <defs>
    <style>
      .st0 {
        fill: #fcee21;
        stroke: #cc0026;
        stroke-width: 2px;
      }

      .st0, .st1 {
        stroke-miterlimit: 10;
      }

      .st1 {
        fill: none;
        stroke: #00ee19;
        stroke-width: 6px;
      }
    </style>
  </defs>
  <g id="bab">
    <path class="st0" d="M259.7,0c-.8,6.1,7.6,9.3,9.3,12.6s0,3.2,1.1,5.5,12.3,13.3,15.1,17.3,5.7,10.2,8.5,14.9-2.3,1.5,3,4.8,8.3.3,4.4,5.7-3.3.8-4.2,2.4-.2,3.2-.7,4.7-2.3,2.2-2.3,2.5c0,1.3,3.6,2.4,4.2,2.9,1.6,1.4,1.6,5.7,4.5,2.2,1.6,2,4.3,4.2,6.7,5.3s1.6-.6,2-.5-1,2.6,2,1.7.8-1.8,1.3-1.7c1.4.1,4.5,7.8,3.3,9.6,1.9.5,1.5-4.2,3-3.6s1.8,7.1,1.8,7.5-3.1,1.6-.6,4.5c-2.3-.3-2.8-5.3-3-7.2l-.6,2.4c-1.8-1.9-4.4-1.3-3.6,1.5s2.8.2,3,.3c1.1.8.7,4.9.9,5.4,1.8,3.6,6.1,6.4,8.4,10.3s.1,8.2,6.8,10,6.9,1,12.7,4c23,11.6,20.4,20,30.6,40.2,2.2,4.4,9.1,11.2,10,15.8.2,1.2,0,11.2-.5,11.6s-2.8-2-3-1.8c-.3.4.8,4.7.4,5.6-.6,1.5-2.6.8-2.7,3.5-.3,4.9,4.9,9,6.3,12.9s2.4,8,2.4,8.4c.2,3.1-2.2,2.6-2.1,5s5.4,11.8,6.7,13.8c4.6,6.8,15.6,20.6,22.6,24.1s17.4,6.2,22,11,1.9,4.8,2.1,5c1,1.1,8,8.2,8,8.8,0,2.7-3.6-.3-2.9,1.7s7.3,5.1,6,9.3c3.4-2.2.9-.3,2.4,1.4s4.8,4.2,5,5.1c.6,2.5-1.1,3.2-.7,5s4.4,8.4,5.1,9.9.7,4.1.8,4.3c.5.4,3.2-.6,5.1.6s5.1,15.3,7.5,18.8,8.2,6.2,11.2,8.8.8,2.3.9,2.4c.3.2,3.2.8,5.7,3s.9,2.8,1,2.9c1.7,1.6,4.1.3,6,3.7s-.6,6.1-.2,8,2.3,6.6,2.4,6.9,4.1,2.7,4.9,4.3.2,5.2.4,5.4c.3.3,1.4-1.5,1.8-1.2.8.5-.1,4,0,4.2s1.7-.7,1.8-.6c.7,1.2,3.2,7.9,3,9s-1.9-.7-1.8.3,2.1.1,2.7.9.3,5.8.5,6.7c.3,1.6,2.1,1.6,2.2,1.8.7,2.6-7,5.3-7.2,5.7-.5,1.2,1.6.6,1.2,1.8-.9,2.5-4.1,3.9-4.2,4.2,0,.5,1.3.2,1.2.7-1.1,5.4-5.7.8-6,2.9s6,2.7,7.2,2.1c-1.3.8,3,4.9,3,5.2.4,4.7-6,1.8-6.1,8.3s2,1.8,2.3,2.5-.5,2,.3,3,3.1,2.6,3.7,3.2c1.1.9.6-2.3,1.8-.6s2.5,6.8,3.4,9.2,2.2,1.4,2.6,2.2c.8,1.9-.7,4.4-.1,6.1,3,9.9,4.8,15.9,9.4,24.2s2.9,1.4,3,1.5c.7,1.2,0,3.8,0,4.4s1.8.5,1.8,3.7-2.8,10.3-1.7,14.9,8.5,11.2,9.3,15.3-1.7,3.8-1.7,4c.1,3.4,5.9-.4,8.6-.2,4,.2,8.6,4.4,10.3,4.8s12-2,14.4-2.4-.6,2.2,1.5,1.2,4.4-6.3,7.6-6.6,3.6,2.8,3.8,3c.5.3,3.1-1.8,3.3-1.8s2.6,3.1,4.5,1.8,0-3,.9-3,2.6,2.6,3.6,2.4,1.4-6.3,4.5-8.7,5.2-1,7.4-2.1c3.9-2,6.1-9.1,11.1-11.2,11.6-4.8,26.4-.1,37.4-2.7s5.8-3.4,8-4c16.6-4.8,16.7-6,30.9-13.6,3.4-1.8,4.1-5,9.1-4.6s4.5,2.6,5,2.7c2.1.2,6.3-1.6,8.4-1.8s-.4,2,1.2,1.8,1.2-1.6,3.3-2.1c7.6-1.6,11.1-4.5,16.1-10.9s0-4.1,3.3-6.2,2.8.3,3.2,0c10.1-6.5,15-8.8,26.9-11.8s5.7.5,8.7-.3,8.4-5.4,12-6.6c13.2-4.5,22.5-3.9,37-10.3,1.3-.6,3.1,0,4.3-.6s-.3-1.9.3-2.2c3-1.4,20.1-7.4,20.6-8.4s-2.7-12-.2-17.9c7.6-18.3,36.6-17.9,51.6-23.3,1-.4,2.4-2.8,4.7-3.7s4.9-.7,7.7-1.7.3-1.8,1.4-2.3c2.6-1.1,18-1.9,20.9-1.4s2.4,3.2,6.5,2.9,8.1-2.2,9.8-3.3,7.1-6.4,7.4-6.8-1.2-1.5-1-2.1c1.5-4.9,3.2-3-.7-8.9,2.4-2.1,6.7-9.5,8.4-10.8,4.7-3.6,25.4-3.4,31.9-3.4.4-3,6.4-6,7.3-7.3,2.3-3.2,4.2-15.2,6.7-19.6,6-10.5,38.3-8.3,40.1-12.2s-3.4-8.2-3.5-9c-2.2-12,0-13.2,2.5-23.3.6-2.2.3-8.7.9-10.5,1-3,3.8-3.2,4.3-4.1.8-1.5-.4-2.8,0-3.6s2,0,2.4-.5c1.1-1.2,2.6-4.1,3.9-3.4s-.8,1.2-.6,1.5,1.1-.6,1.5,0c1.7,2.7-1.2,4.6,4.4,4.3v818.9c0,0-628.4,0-628.4,0,.6-5.6,2.7-1.5,4.8-2.7s1.4-4.8,3.6-6,4.3,2.1,5.4-5.7c0,4.5,8.6-5.6,9.9-7.2,37-45,66.4-91.3,116.6-125.1,14.5-9.7,32.7-16.4,46.2-27,16.4-12.9,35.5-33.9,49.7-49.9.7-.8,2.4-.8,2.4-.9s-.8-1.2,0-2.1c6.3-7.2,13.7-13.9,19.3-21.6,16.2-22.2,31-45.8,40.4-71.2,6.3-17,21.3-31.6,25.9-45.8s-1.7-3.4.4-7.1,8.7-6.5,10.4-8.8c4.7-6.5,7.5-18.8,10.9-24.5s6.8-5.8,7.5-7.1.3-4.1,1.3-5.7,3.8-3.4,5-5.8c3.1-6.2-.5-5.5-.4-6.9.5-8.3,5-17.2,3.7-26.1,1.9,1.6,1.4-1.6,1.8-1.8s1.4,1.5,1.8,1.2-2.2-2.6,4-2.9,10.3,3.2,10.8-1.2-5.5-2-6.3-2.7c-3.1-2.9-4.4-11.6-4.3-15.6s2.3-7.4,1.9-8.1-2.5.7-3-1.5c-2-8.2,6-14.9,7.2-22.2-7.7-1.5-19.3-9.2-26.4-3.6s-2.2,6.3-5.5,8.9c-9.6,7.6-22.1,4.7-30.5,7.9s-3,3.1-5.2,3.8-15.5,3.7-16.7,3.7c-6.1.1-13.4-5.1-22.3-1.7s-5.2,5.2-7.6,5.9-15.3,1.1-16.1,1c-3.6-.4-3.1-4.3-10.7-2.7-9.4,2.1-21.3,16.1-33.1,17.2-6.8.7-5.1-3-7.9-3.5s-5.9,1-8.8.5-4.3-3.5-8.3-3-6.8,4.5-7.8,4.9c-2.4,1.1-6.5,1.3-8.4,2.3s-1.6,2.7-3.3,3.5c-8.2,4.1-24.1,8.9-32.9,4.9s-18.8-15.1-19.9-16.4-7.8-14.8-7.9-15.7,2.5-3,2.3-3.3-3.2-.2-3.6-.6,2-2.6.7-3.3c-2.7-1.5-2.7,1.4-3.3,1.5-1.1.3-1.4-1.8-1.5-1.8-.6,0-1.2,1.3-2,1.1-3.9-.7-4.4-1.2-6.1-4.8-2,.4-15.9,3-16.5,2.4-1-1,2.9-6,4-6.5,2.2-1.1,6.6-.8,9.2-2.2s2.5-3.7,4.4-4.6c4-1.9,8.9,1,8.9-6.7,0-9.4-5.3-12.2-8.9-18.1s-4.4-15.3-14.1-15.8-.2,1.8-2.2.6c1.6-2.2-1.4-.5-2.4-1.5s-2.1-5.7-4.5-5.6-2.8,3.3-4.9.9-2.8-14-6.2-17.2-4.7-.4-5.3-.9-2.8-3.8-3.4-4.7.7-1.6.4-1.7c-.5-.2-2.5.9-3.9.6-3-.7-.6-4.8-4.8-1.8-7.5-5.4-15-24.3-23.4-28.2s-4.1.3-7.8-2.4-5.1-4.3-6.4-5.4-1.3-2.5-1.8-2.9-2,0-2.3-.1.8-1.6.6-1.8-3.7-.3-5.4-1.5,0-1.4,0-1.5c-.3-.2-1.7.1-2.4-.3s.2-1.5-.9-2.1.5,1.1-3.3,0,.8-1.4-.4-1.7-4,1.4-4.4,1.1,1.4-1.4,1.2-1.8-1.6.7-1.7.6c-3-3.3-12.1-15.4-13.2-4.4-.3,3.3,4.3,9.9.8,11s-2.1-5.8-2.3-6.6-2.9-7.3-3.1-7.7c-2.2-4.1-5.6-1.3-6.2-1.9s1-3.1.9-3.9c-1.1-8.6-5-6.8-7.3-12.8-2.9-7.4-3.1-19.5-5.3-27.9-3.3-12.4-15-42.8-24-51.5-.3-.3-7.7-4.6-8.1-4.7-.9-.2-.7,4.3-4.2-1.6s.7-2.1.3-2.6c-.6-.9-3.5-2.6-4.3-3.7-6.4-8.5-3.7-4.5-12.9-8.8s-1-2-1.9-2.5c-4.8-2.7-3.4,3.2-5.8.2s-3.6-22.2-7.1-26.4c.4-12.1-1.3-19.5,0-32.3.3-2.9-1.2-3.9.6-6.3-3.8,1.3-2.4-5.5-3-8.4,2.7.3,1.1,8,3.6,5.1s-.6-4.5-.5-5.8c.3-2.1,2.4-4.3,2.1-5.5-1.6-5.9-13.1-10.7-15.4-25.3s.4-9.5,0-10.6c-.6-2-6.2-4.2-7.6-5.2-3.2-2.5-5.7-3.4-8.3-5.4s-.7-2.4-1.5-3.3-1.8.2-2.4-.6-2.2-4.5-2.7-5.7,2-1.9-2.1-4.5c4-5.4-9.4,1.1-11,.9s-4-5.4-4.7-6.4c-1.1-1.6-4.7-.4-3.4-6.3s3.9-.7,3.6-3.2c-.7-4.4-6.9-1.8-7.2-2.1s-.7-5.3-1-6.5-1.7-2.3-1.8-2.8.8-10.1,1-10.6c.6-2.1,3.6-.7,3-2-1.4-2.8-5.2.6-4.2-2.4s10.9,2.6,10.7-.5-5.7-3-6.4-3.5-.1-2.1-.9-2.7c-5.5-4.7-4-4.9-7.2-8.4s-3.9-1.6-4.6-2.3c-7.8-8.9-18.3-36.1-25.1-48.1s-4-3.3-4.9-4.9c-5.5-9.5-10.2-19.5-16.1-28.7,2.7-3.7-1.1-4.1-.7-5.6s1.5.2,1.7-1.4-5.3-8.9-5.3-9.7c0-1.7,4.8-1.7,4.8-2.4,0-2.3-4.5-2.3-4.8-2.5-3.6-2.5-3.3-4.2-5.6-6.9s-4.8-1.8-4.5-5.4h69.6ZM494,383.2c1.9-2.5-2.2-5.8-3.8-5.8s-.5,1.7-.9,1.8c-2.7.3-6.9-1.9-6,2.6s3.2,2.5,2.4,3.5-5-4.5-6-2.4,4.7,2.3,4.8,4.5-2.3-.2-1.8,2.1c1.7-1.4,8.1,3.5,9.3,4.8s-.3,4.6,2.1,3-.6-4.2.9-4.2c-.5,1.2,3.8,4.8,4.2,4.8s1.3-2.1,2.7-1.8-.7,1.8.3,1.8c3-.1-1.9-4.6-1.5-5.4s2.1.7,1.8-.9c-.5-2.7-3.4-.2-4.2-.6s-2-4.5-3.3-5.2,0,2-1.5,1.2-2.3-1.7-2.4-1.8c-.4-.9,2.5-1.5,2.8-2ZM473.7,382.9c-2.1-1-4.4-1.1-3.5,1.7s1.5-1,2.7,1.2.8,4.5,2.3,6.4,2.1,0,2.3.1-2.1,2.6.1,3.5,6.1-1.3,4.6-3.4-2.8,0-2.9,0c-.2-.2.5-2.9-1.8-3.3,7.1-2.8-1.2-3.5-3.2-4.5s-.3-1.6-.5-1.7ZM490.5,394.2c-3.6.1-4-5.1-8.4-3.6-.1,1.3,3.2,3.1,3,3.6s-1.1-.4-1.9.4.3,1.8,0,2-2.4-.5-3.3.6c-1.9,2.1,4.6,5,5.4,4.9s1.8-3.5,2.8-2.4-1.6,2.6-.9,3.6,3.8.8,3.9.6c1.4-2.5-5.4-7.6-5.4-8.1,0-1.5,5.3,1,4.8-1.5ZM430,410.4c2.1-10.2-2.1-3.6-7.2-1.8l1.2.6c-1.1,2.7-2.1-1.8-4.8,0,2.8,2.1-.4.1-.6,2.1s3-1.2-.5,6.2,2.8,2.1-3.1,3.4c2,1.7,5.7,0,5.4,3.9l-3-1.2c-.8,5.5,1.1,4.3,1.8,5.4s-1.1,1.5,0,2.7,9.3,4.4,9.9.9c1.9,2.7,9.5-.3,9.9,0,.8.9-2,3.5,3.1,1.7,8.3-2.9-5.3-3.4-3.1-5.9s1.8,1.9,2.4,1.2-.5-3.3.3-5.4,5.5-3.2,2.7-6.1-2.1-.4-3.1-1.3c-2.7-2.6-7.7-10-11.3-6.4ZM927.5,536.7c-1.3.1-4.7.8-6.4,1.1s-2.1,1.9-2.7,2c-1.2,0-6.3-5.2-11.2-4.3s-3.6,3.6-4.8,5.5-3.3,0-2.9,1.6,11,7.6,12,7.8c9.9,2.3,23.8-3.5,32.4-8.1l-11.9-5.3c-2.3-1.2-3.8-.4-4.5-.3Z"/>
    <polyline class="st1" points="1079.4 430.8 1079.4 1080 705.1 1080"/>
    <path class="st1" d="M366.1,338.3c-.3-.3-7.7-4.6-8.1-4.7-.9-.2-.7,4.3-4.2-1.6s.7-2.1.3-2.6c-.6-.9-3.5-2.6-4.3-3.7-6.4-8.5-3.7-4.5-12.9-8.8s-1-2-1.9-2.5c-4.8-2.7-3.4,3.2-5.8.2s-3.6-22.2-7.1-26.4c.4-12.1-1.3-19.5,0-32.3.3-2.9-1.2-3.9.6-6.3-3.8,1.3-2.4-5.5-3-8.4,2.7.3,1.1,8,3.6,5.1s-.6-4.5-.5-5.8c.3-2.1,2.4-4.3,2.1-5.5-1.6-5.9-13.1-10.7-15.4-25.3s.4-9.5,0-10.6c-.6-2-6.2-4.2-7.6-5.2-3.2-2.5-5.7-3.4-8.3-5.4s-.7-2.4-1.5-3.3-1.8.2-2.4-.6-2.2-4.5-2.7-5.7,2-1.9-2.1-4.5c4-5.4-9.4,1.1-11,.9s-4-5.4-4.7-6.4c-1.1-1.6-4.7-.4-3.4-6.3s3.9-.7,3.6-3.2c-.7-4.4-6.9-1.8-7.2-2.1s-.7-5.3-1-6.5-1.7-2.3-1.8-2.8.8-10.1,1-10.6c.6-2.1,3.6-.7,3-2-1.4-2.8-5.2.6-4.2-2.4s10.9,2.6,10.7-.5-5.7-3-6.4-3.5-.1-2.1-.9-2.7c-5.5-4.7-4-4.9-7.2-8.4s-3.9-1.6-4.6-2.3c-7.8-8.9-18.3-36.1-25.1-48.1s-4-3.3-4.9-4.9c-5.5-9.5-10.2-19.5-16.1-28.7,2.7-3.7-1.1-4.1-.7-5.6s1.5.2,1.7-1.4-5.3-8.9-5.3-9.7c0-1.7,4.8-1.7,4.8-2.4,0-2.3-4.5-2.3-4.8-2.5-3.6-2.5-3.3-4.2-5.6-6.9s-4.8-1.8-4.5-5.4h69.6c-.8,6.1,7.6,9.3,9.3,12.6s0,3.2,1.1,5.5,12.3,13.3,15.1,17.3,5.7,10.2,8.5,14.9-2.3,1.5,3,4.8,8.3.3,4.4,5.7-3.3.8-4.2,2.4-.2,3.2-.7,4.7-2.3,2.2-2.3,2.5c0,1.3,3.6,2.4,4.2,2.9,1.6,1.4,1.6,5.7,4.5,2.2,1.6,2,4.3,4.2,6.7,5.3s1.6-.6,2-.5-1,2.6,2,1.7.8-1.8,1.3-1.7c1.4.1,4.5,7.8,3.3,9.6,1.9.5,1.5-4.2,3-3.6s1.8,7.1,1.8,7.5-3.1,1.6-.6,4.5c-2.3-.3-2.8-5.3-3-7.2l-.6,2.4c-1.8-1.9-4.4-1.3-3.6,1.5s2.8.2,3,.3c1.1.8.7,4.9.9,5.4,1.8,3.6,6.1,6.4,8.4,10.3s.1,8.2,6.8,10,6.9,1,12.7,4c23,11.6,20.4,20,30.6,40.2,2.2,4.4,9.1,11.2,10,15.8.2,1.2,0,11.2-.5,11.6s-2.8-2-3-1.8c-.3.4.8,4.7.4,5.6-.6,1.5-2.6.8-2.7,3.5-.3,4.9,4.9,9,6.3,12.9s2.4,8,2.4,8.4c.2,3.1-2.2,2.6-2.1,5s5.4,11.8,6.7,13.8c4.6,6.8,15.6,20.6,22.6,24.1s17.4,6.2,22,11,1.9,4.8,2.1,5c1,1.1,8,8.2,8,8.8,0,2.7-3.6-.3-2.9,1.7s7.3,5.1,6,9.3c3.4-2.2.9-.3,2.4,1.4s4.8,4.2,5,5.1c.6,2.5-1.1,3.2-.7,5s4.4,8.4,5.1,9.9.7,4.1.8,4.3c.5.4,3.2-.6,5.1.6s5.1,15.3,7.5,18.8"/>
  </g>
</svg>