<?xml version="1.0" encoding="UTF-8"?>
<svg id="Layer_1" xmlns="http://www.w3.org/2000/svg" version="1.1" viewBox="0 0 1080 1080">
  <!-- Generator: Adobe Illustrator 29.8.3, SVG Export Plug-In . SVG Version: 2.1.1 Build 3)  -->
  <defs>
    <style>
      .st0 {
        stroke: #cc0026;
        stroke-width: 2px;
      }

      .st0, .st1, .st2 {
        stroke-miterlimit: 10;
      }

      .st0, .st2 {
        fill: #fcee21;
      }

      .st1 {
        fill: none;
      }

      .st1, .st2 {
        stroke: #00ee19;
        stroke-width: 4px;
      }
    </style>
  </defs>
  <g id="luzon">
    <path class="st0" d="M0,530.6c2.3,1.8,3.1.2,5.1-1.8,5-5.1,4.4-12.5,13.1-12.6,5.6,0,4.9,4.7,7.9-3.6s1.4-.6,1.4-.7c.4-.9-1.2-1.7-1.1-2.6s1.6-1.4,2-2.1-.5-2.2-.3-2.4,3.7.5,4.8-2.1c1.1-2.6-1.4,0-1.2-.6s.9,0,1.2-.7-.2-2.3,0-2.6,1.5.9,2.1.6c1.5-.6,1.2-1.5,2.2-2.1s2.1.4,2.2.2c.3-.4-.7-1.7-.6-2.1.6-2,10.8,2.4,12.2,2,4.4-7,2.7-7.8,10.8-10.2s.2,2.7,3.6-.6c4.9-4.6-1.2-.4-1.5-.6-2.4-1.6-2.7-10.7,3-9-4.9-3.2.2-3.9,3.6-2.4l-1.2-1.2c4.1.7,3.1-4.1,3.9-4.2s1.5,1.1,1.9,1.1c1.5-.1,7-1.1,3.8-2.3,3.6-2.6,4.7,2.8,6.3,2.4s.6-2.1,1.3-2.4c7.7-3.1,4.6,1.3,5,2.7s5.8-.3,6.8-.1,4.6,1.7,4.6,2c0,.7-2.4,1-3,1.8s-.4,2.7-.6,2.7c-.8.4-1.9-1.2-2.7-1.2s-1.9,1-3.1,1.2c-1.7.2-6.3-2.1-3.6,3s4.8,2.2,6.3,3.3.4,2.4,2.5,3.5,6.2,1.4,6.5,1.6c.5.4.3,5.3-.2,6s-5,.3-2.7,1.5c3.3,1.7,7.2-2,7.8-1.5,1.1,1-2.4,1.5-1.8,3.3s3.3,2.8,3.5,4.4-.3,9.3-.6,9.6c-5.4.5-6,15.3,0,15.5s2.4-2.5,3.3-2.6c4.9-.6-1.7,5.2-3.9,4.6,4.6,3.2,1,2.5-.3,4.2s.6,2.2.3,2.4-2.2,0-3.2.7-1.4,2.2-2.1,2.6c-1.5.7-8.1-1-9.2-.8-1.7.3-2.5,2.2-3.5,2.6-6.1,2.2-13.3,2.9-16,9.5-2.5,6.2,2,8.4,3.3,12.2s-1,2.8-.4,4,2.8.6,4.2,1.8,1.3,6.5,5.4,9.1,2.2-.3,3.1.2,5,7.5,7.6,8.2l16.3-1.8,12.8,3.9c2.2-4,3.4-.3,4.2-.6,4-1.8-3.6-6.8,7.8-7.7s2.7,2,4.7.6,1.7-7,7.5-9.5,2.7,1.7,7.6-3.8,2.6-1.1,2.7-1.2c.1-.3-1.3-4.8-1-6.6.5-3,5-10.5,6.3-13s-.6-1.5-.2-2c.5-.8,2,0,2.9-.6,1.7-1.4,2.2-3.9,2.4-4.1,1.2-1,3.7-2.7,5.3-4s2.3-.2,2.4-.3c.5-.5-2.8-12.7-3.3-13.2-1.4-1.5-5.2.9-7.8-3s5.8-.5,2.1-3.6-.9,1.4-1.8,1.2.2-1.1-.9-1.3c-1.7-.4-3.9.3-5.8-.5,1.1-3.4,4-1.1,6.6-2.7s4.4-7.4,3.1-9.6-8.3-3.9-9.3-5.1c-4.8-4.9,1.2-5.5,1.9-6.7s.2-2.5.7-3.8,1.8-.8,1.8-.9c1-2.2-3.8-.7-1.4-5.3s4.7-2,5-2.5-.7-4.3,0-5.3,8.2-1.6,9.2-2.9c3.8,5.2,8.9-.8,12.7-2s7.5.2,9.1-.5,0-3.7,4-3.8c2,0-.3,1.5.9,2.1s7.3-1.6,8.2-2.3.6-2.6.8-2.8c.5-.4,10.1,1.7,12,.6-.7,5.2,6.3,3.2,8.4,3.6s-.8,1.4,1.3,2,6.9-.6,7.1-.8-1.7-2.7-.9-5.4c1.5-5.3,5.3-.9,5.7-1.2,1.1-.8,1.1-5.9,5.1-3.7,4,2.2-.2,1.4.3,1.6,3.7,1.8,7.7-4.5,8.2-4.5s.3,2.9,2.1,2.1,2.9-5.3,6.3-5.8c5.8-.8,2,1.7,3,3s5.9-1.6,6.4-2.3c1.1-1.6-.8-3.6-.6-3.7s1.9.2,2.8-.5.4-2,1.3-2.5,3.6.1,3.7,0-1.1-3,.9-2.4.7,2.6,1.8,3,1.7-1.8,1.8-1.8c.7.1,2,2.9,3.9,2.1s1-3.9,1.4-4.4,3.7,0,3.2-4.8-2.6-2.2-2.7-2.5c-.2-.3.3-1.9,0-2.6s-1.3-.2-1.2-.7,3.5-1,3.8-.8c1.7.6,0,2.5.4,2.9s1.5-1.5,1.8-1.2-.4,2.5.6,3.3c1.5,1.1,3-.9,3.9-.9s5.2,5.4,1-2.7-2,.4-1.9-1.2,2-3.4,2.1-.9c4.3-.8.9-5,2.4-5.4,2.5-.6.2,8.4,2.1,8.4s-.7-2.6,3.3-1.8,1.1,2.1,2.4,1.8.3-2.3.6-3c2.2-4.2,3.1.9,4.5,1.5s2.4-.7,4.1.1c2.5,1.3.7,4.9,5.8,5s3.4-3.4,4-4.1c1.1-1.4,7.7-1.6,9.1-2,2.7-.9,1.7-2.6,3-3.2,2.1-.9,7,1.3,10.2.8,8.3-1.2,4.3-6.1,9.6-7.3s6.3.7,9.6.2,3-4.1,2.9-4.4-3-1.5-1.9-2.7,6.9-1.4,8-1.9c2.2-1.1,4.5-4.3,6.6-5.4s2.7.6,4-.1c2.3-1.3,5.7-5.4,8-6.7,6.4-3.6,14.9-5.8,20.8-10.1.7-.5,5.9-5.1,5.9-5.5.3-1.4-1.7-4.3-1.1-5s4.8-.8,6-2.1,1.4-5.1,2.1-6.3,13.6-5.7,15.7-7.4,1.5-3.1,2.7-4.2,4.5-2,4.7-2.2c.5-.9-.5-2.6.7-4.4s4-.8,4.2-1-.6-1.1-.6-1.1c3.8-1.8,7.7-2.1,11.3-3.4s.4-3.1,4.8-1.5c.5-2.1-1.6-.7-2.2-1.3-5.9-5.9,2-1.2,4.3-2.8s0-1.9.7-2.5c1.2-1,4.9,0,7.2-1.1s5.8-7.9,6.3-9.3-.5-6.8-1.3-7.2-2,.6-2.4.3.2-1.3-.1-1.6c-.5-.5-2-.3-2.3-1.1s1-2.1,1-2.4c-2.2-9.4-.7-3.5,2.3-9.2s-.4-3.8.4-4.2,1.7.9,2.6.6c1.7-.7,3.9-6.8.4-5.4s.2,2.8-.3,3.6c-1.1,1.7-.5-.6-1.5-.6s-.6,2.7-1.8,1.2c-2.4-2.9,2-4.7,2.2-5,5.8-8,5.1-3.7,11.6-7.3,1.8-1,6.3-6.1,8.1-7.5s6.5-2.3,6.8-2.5c.5-.4,1.2-5.6,1.4-5.8.5-.5,4-.5,4.1-.7.4-.4-.7-2.2-.6-2.4s3.2.2,3.6-1.5-3.9-.5-4.2-1.8,1.9-3.6,2.7-4.5c6-6.4,15.7-.4,23.4-13.2s-.7-3.2,1.2-3.4,5.2,2.3,4.5-1.1-2.3-.8-2.4-.9c-.2-.3,1.7-4.5,1.9-4.7,2.2-1.5,3,1.1,3.2,1.1,1.8-.2,5-8.1,6.3-9.9s7.1-6.2,7.7-8.5-.5-3.7-.2-5c.6-1.9,3.3-4.9,3.3-6.9s-2.9-3.9-3-5.3,2.1-1.1,2.3-2.6-1.1-2.1-1-2.7c.2-.9,2-6.9,2.2-7.2,1.2-1.6,8-2.1,9.5-8.6s-1.3-1.6-1-2.7,1.9-2.5,2.2-3.9-.5-4.3-.3-5.8,1.5-1.2,1.7-3.1c.3-3.6-1.5-1-1.8-3s3.8-.6,4.2-2.4-7.6-8.1,3.1-4.5c.6.2,1,1.7,1.4,1.8,2.5.4.5-4.6,1-6.2s2.2-1.4,2.3-1.9-3.1-4.2-1.8-6.3c-2,0-1.3,3.8-4.5,2.4s1.3-6.1,1.5-6.4-1-2-.6-2.6c.7-1.4,4.4.8,5,.6,2.1-.8-.4-4.2-.6-6.2-.7-6.2-1.6-9.1-2.5-15.2s1.1-1.6,1-1.7c-.4-1.9-4,1-5.7-.3s-2.1-5.1-1.9-5.6c.5-2.2,5-4.3,5.2-5.6s-2.5-2.4-1.7-3.2,7.3-1.8,5.3-6.8-3.4,1.2-3.8,1.3-6.1-.9-6.3-1.2c-1.3-2,2.6-2.4,3-3.4s-1.1-2.7-.3-3.9,4.4-.3,4-3.3-5.2,1.6-1.8-3.9c-1-.3-5.2,2-5.4,1.8s.3-2,0-2.6-1.7-.9-1.7-1.3c-.7-3.7,4.6-.6,4.8-2.4s-2.6-3.2-1.8-3.9,7.2.8,5.3-4.4-2.9.9-4.6,1.3-2.7-.7-3.3-.5-2.8,3.6-3.2,3.6c-1,0-8.6-3.7-6.3-5.4s3.4,4.2,4.7.2-5.1.2-5.3-2.9c-.5-6.3,5.2-6.8,5.4-7.8s-2-1.7-1.8-3,3.2.3,3.6-1.2-.7-1.6-.5-2.3c.7-3.1,1.2-8.9,0-11.9s-2.3-.4-2.9-2.5c-.9-3.2,1.3-10.2,1.2-10.7-.2-.8-2.2-1.2-2.5-2.3s.9-4.1-1.2-5.7-2.8-.3-4-1.1-.3-2.4-1.6-3.1-3.4-.4-4.8-1.3-1.8-4.4-2.8-5.3-6.4-1.4-7-4.4h138.6c1.1,0,.9,8.1,1.2,8.4,1.6,1.4,2.1-3.7,6-2.7s0,1.6,1.3,3.1c3.7,4.4,4.7.8,5,.8,3.6-.2,3.9,1.8,4.1,1.8.4,0,2-1.7,2.5-1.7,1.4-.1,1.1,1.6,1.7,1.7,3,.3,3.9-4.6,8.4-3l5.9,7.1c3.8,2.3,2.4-.6,3.2-1.1s3.1-.4,3.2-.6c.3-.4-.2-2.6,0-3,.5-.6,1.9,1.3,2.7,1.2s1.5-3.8,3.6-4.2.2,1.1.5,1.2,1.5-.8,3-.5.9,1.7,1,1.7c.7.3.7-4.2,5.4-1.5s-2.2,4.4,4.2,1.8,1-2.1,1.8-2.4,2.6.2,4.1-.1.7-1.3.8-1.4c1.4-.3,3.5,5,6.5-3.5s-.7-2.9-.5-3.1c.4-.4,4.7,0,5.7.7,1.7,1.2-.9,3,1.2,2.9.6-.5,0-3.6,1.2-3.6h51.9c-1.2,2.2.4,4-1.8,5.4,3.3-.9,2.3,1.5.9,1.8s-3.5-3.6-3.2,4.6c.3,9,5.2-1.7,6-2.9s1.7-.4,2.3-1.5c1.6-3-2.7-5.9,2.2-7.4,23.4.5,47.4-1.2,70.5.9-1.2,1.1-3.5,3-7.2,2.7l2.4-1.2c-4.9-.9-3.4,1.7-3.6,1.8-.4,0-6.7-2.8-8.4-1.8-.5,2.2,3.1.4,1.2,2.1-1.9,1.7-3.1.2-4.8.3.6.9,2.9,6,2.8,6.3,0,1-2.8,1.5-2.6,3s1.3,1.1,1.5,1.9c1.2,5.8-2.6,1.8-2.9,2s.4,1.6-.3,1.8-2.5-.4-3.6,0c-1.5.5-2.1,1.7-3.3,2.1s-2-.5-3.3.2c-3.6,1.7-1.4,6.3-6.2,7.6s-1.9-1.5-2.4-1,.7,2.2.6,2.4c-.6,1-1.8-1.5-3.6-.9-5.9,2.2-2.7,4.8-3,5.1s-4.7,2.1-5.4,1.2.7-1.7.6-1.8c-4.3-4.1-5.3,1.4-5.5,1.6-.9.8-3.3.5-4.1,2.8.9,1,2.9-1.6,3.6-.9,3.5,3.6-9.8,1.1-10.4,1.1-1,.2-1.2,5-4-1.2-1.5,2.4.7,3.3.6,3.9-.2,1.2-3.5,5.7-2.7,5.7,3.7.3,6.6-6,7.2-6,1.9,0-.5,3.2,0,4.2s5.3,3.7,6.3,4.5c-1.5,0-6.2,1-6.6,3.3.7.3,3.5-1.3,3.6-1.2,1,1-2.4,3.6-1.8,4.2s1.6,0,2.1.6c.8.9.8,2,1.8,3s3.1,0,3.8,3.3c.7,3.3-1.2.2-1.2.3,0,1.1.8,1.7.2,3.4s-4,2.7-.5,2.5,6.5-7.8,11.4-8.3c8.4-.9.9,4,.9,4.5,0,4.9,12.3.6,9.6-6s-5.4-1.9-6.1-2.7c-1-1.2,1.2-2,1.2-2.1,0-.8-2.5-3.3-1.8-4.5s6.1.9,6.3,1.1c1.3,1,1.2,4.1,2,5.1s4.5,2.4,5.1,3.4c2.6,4-3.8,5.6-6.3,7.5s.2,1.9-.5,2.4-5.4,2.2-5.7,2.1c-.8-.2-.7-2.8-.9-3-.5-.4-5.5,1.7-6.6,1.2.4,1.7-3.3,14.1.9,13.8s8.3-11.6,9.7-7.8-1.4,4,1.4,2.1,1.1-2.6,1.2-2.7c.3-.3,1.5.8,1.8.6s-.3-6.5,2.4-6.6c-1.6,1.4,1.3,4.2,1.2,4.5-.2.6-6.9,10.2-7.5,10.6-1.4.9-3.4-.8-5.1.5,1.3-2.8.8-4.7,3.6-6.6-1.1-.2-6.4,2.7-6.6,3-1.6,2.6,3.4,5,3.6,5.4s-1.3,1.2-1.1,2,1.7,2,1.7,3.1c0,1.7-2.4,3.9-2.4,5s6.4,3.2,6.5,7.5-1.5,4.5-2.6,5.2c-2.2,1.2-4.1-1.2-4.5.8,2,.2,2.7,5.5,3,5.7,1.5.6,6-.4,8,0s2.5,4.3,6.3,2.7,2.8-3.5,2.4-4-2,.3-3.1-.9c-1.6-1.8-3.6-7.7-.6-9.1,4.9-2.2,3.5,2.6,3.7,2.9.7,1.4,4,2.9,4,6s-1.6,6-1.8,6.2-5,2-2.8,4.9,15.8-7.9,16.5-9.6c1.3-3-7.4-3.4,0-7.2l8.1,4.2,13-43.6c.8-2.2,4.7-3,4.9-3.3.3-.3.3-2.2,1.6-3.5s6.6-2.9,4.5-7.1-3.7-.8-2.9-2.8,3.4,0,2.9-2.1c-7.7.8-3.2-1.5-3.6-1.8s-2.7.2-3,0c-.7-.6,3.3-4,2.4-4.8s-18.5,1.3-13.8-3c.6-.6,14.7-2,7.2-10.3s-9.8,1.6-11.7,1.9-4.5-1.5-6.4-2-3.9.3-4.1.2c-.4-.2-3.5-6.7-3.6-7.5s2.9-4.8.6-4.8c2.9-5.4,4.3,1.1,5.4,1.8,1.9,1.3,8.7-2,11.3-2.6s3.1.7,3.9.5,3.4-3.5,4.6-2.4-.9,1.5-.6,1.8,2.5-1.8,3-1.2c.5.6-.7,1.8-.6,2,1.7,3.2,4.1.3,5,.4s5.8,4.6,7.6,2.9c.3,1.5-3.1,1.8-3,3.3s4.8-2.4,5.2-2.6c3.6-1,5.3.4,6.5.4s1.4-3,3.9-3.3c-2,.5-8.1.4-9-1.5s3.7-14.6,6.2-8.8-.3,2.5-.2,2.8,1.4,0,1.8.3c.7.7.3,1.6,1,2.1s1.9-.3,2.3,0-.4,1.2-.3,1.2c4,1.1,1.4-4.5,2.8-5.3,2.6-1.5,1.4,1.4,2.3,1.7,2.4.6,10.3-.9,12.9-1.8.3,2.2-3.3,1.7-4.2,2.5s.8,1.3,0,2-3.6,1.1-4.7,2.3-.5,3.2-.8,3.4-3.3-.6-3.6,0c-.7,1.3,1.7,1.6,1.7,2.1.2,2.2-1.3,5.1-3.2,6.3l-20.1,11.4c2.6,1,10.1-4.4,11.4-3.3s-.2,4.9,0,5.1c.6,1.2,4.6,0,4.8,0s-.7,1.2-.6,1.4c2.4,4.1-.6,1.4-4.8,2.2,4.8,2.3,4.9,3.7,1.2,7.2,5.4-2.4,2.7,3.7,3.6,4.2s5.9-2.1,7.8-.6-3.2,5.2-3,5.4c.5.4,2.4-.7,3.3-.6s1.6,1.1,3,1.2,3.6-1.3,4.8-1.1,2.9,3.3,4,2.3-3.4-4-2.4-5.4,1.7.2,1.8,0c.4-1-.5-2.7-.3-3.3,1.1-2.8,2.9-2.4,4.6-4.1s3.3-2.7,3.4-2.9c1.6-2.2.9-6.1,1.9-7.4s14.2-6.2,15.8-6.2c7.2,0,16.4,10.9,17.1,10.1s.8-5.4,1.7-7c3-5.7,12.1-11.7,18.1-13.4.5-2.2-2-.8-2.4-1.2s1.4-1.8,1.1-3.2-3.2-2.5-3.6-3.3c-.7-1.7,2.7-6.7,1.2-7.9s-5.5,1.1-7.2.9-5.6-2.4-6.2-2.7.3-1.4-1-2.2-1.9.3-2.4,0,.2-1.5-.9-2.1c-2.1-1-3.3,3.6-3.3-.7-5,6-14.2-3.1-3.4-.5.9.2.9,2.2,1.6,1.7s0-2.1,1-2.4,6.5,0,6.8,0,0,1.7,0,1.8c.3.2,1.1-1.1,1.6-1.1.9,0,2.3.6,2.6.5s.5-2.4.6-2.4h17.4c-.6,1.5-7.1,6.5-7.3,7-1.1,3.1,1.7,1.9,1.8,2,.3.3-1,2.3,2.7,2.4s6.8-2.9,6.9-3.3c.3-1.1-2.2-1.9-2.3-3.5s1.9-4.6,3.2-4.6h13.5c-3.2,4.1-7,5.9-12,7.2,7.9,6.9,2.8,4.2,2,7.1s3.6,1.4,2.2,3-2.1.2-2.7,1.2c-2.6,4.2,2.3,3.5,2.6,3.7.4.4.3,1.9,1.3,2.6s6.1,1.8,6.6,3.6-2.3.9-1.2,2.1,1.6,0,2.1.6-.5,1.6.2,2.1c2.3,1.8,8.9,3,11.9,3.7s1.8,2.7,4.3.8-1.8-1.2-1.2-1.8,3.3-1.2,4.5-2.4,0-3.3,2.1-3v1048.8H481.8l2.4-12.6v10.2c4.3-.4,1.9-11.9.6-12.6s-1.3,1.2-1.5,1.2c-.5,0,0-1.9-2.3-1.1s-1.3,5.1-4.6,4.7c-.5,2,1.4.7,1.8,1.5.8,1.8-1.2,2.3-1.2,2.5,0,1.5,1.2,4.3.6,6.2h-20.4l-4.2-.6c-.8-1.9,1.9-.8,1.8-1.5s-1.4-.6-1.7-1.1c-.4-.7.2-1.7-.5-2.3s-2.4-.2-3.2-.6,0-1.6,0-1.7c-2.6-1-3.4,3.5-7.7,1.7s-4.2-7.2-4.1-7.7c1.2-4.8,11.7-.9,6.3-4.8,4.3-.9,3.2,2.7,4.2,3.3s9.2-.5,10.2-.7c1.6-.4,14.1-4.5,15.2-5.2,5.7-3.1,5.6-12.8,0-13.6-1.9-.3-2.7,1.2-3.5,1.1-4.5-.4-9.1-4-13.1-6.5s-.2-2.2-1-2.8-2,.5-3.7-.5c-3.1-2-8.5-6.9-10.9-8s-4.4.4-5.6-.7c-3.5-3,1-4.4-1.5-6.9s-10.5-4.5-11.3-6.4c-1.3-3,2.7-3.5-3.2-7.3s-2.8-.2-3-.3c-.3-.3.7-4.3.4-5.5-.6-2.6-1.2-.9-2-1.7s.4-1.6,0-1.8c-1.2-1.1-5.6-.2-8.8-3.8s-.3-2.6-1.1-3.6c-2-2.4-7.5-1.8-8.7.9s.5,3.1,0,4.2c-1.3,3.6-3.6,6.2-6.7,8.4l.5-11.3c-.7-1.3-3-4.6-4.5-3.4-3.4,2.6-3.1,9.7-3.8,11.7s-5,7.3-5.3,7.7c-.6.7-4.8,2.8-6.3,4.5s.7,1.5.5,1.7c-1.2,1.3-7,3.8-8.3,7.6-1.3,3.8,3.3,5.2-3.2,2.6-.6,2,1.6.3,1.8,1.5.9,7.2-4.9,7.1-5.7,8.7s.1,10.7-8.3,7.1-1.1-4.5-2.8-3.5-.6,2.6-1.4,3.4c-1.4,1.5-5.6,4.4-6.7,5.6s.1,2.7-.3,3-5.5,0-1.8,1.8,3.3-1.3,3.6-1.2,0,1.6.6,2.1c4.7,4.2,6.8,4,1.2,9.2s-1.6-.7-1.7-.6c-.3.2,0,5.6-4.6,2.4-2.2-1.5-.2-5.7-4.2-2.5-1.9.3,0-1.5-.3-1.8-8.4-5.4-24,19.2-38.7,16.1-2.3-.5-3.9-3.3-5.4-2.9-3.8,1.1,1.2,5,2,6.6H0v-155.9c1.7-.5,4.8-3,6.4-3s3.2,3.2,5.8,1.3,2.9-8.8,4.8-11.3c3.6-4.7,11.1-4.9,11.7-11.9s-1.4-2.5-1.8-3.6c-1.4-3.9,2.4-4.5,3.1-5.5s.4-3.1.6-3.2c.4-.4,6.1,3.7,6.1-5.6,4.1-.8,3.6-11.4,4.1-11.8s3.1.9,4.5.6c2.2-.4,2-2.4,2.1-2.4.3,0,2,1,5.3-.4s4.5-6.7,10.8-6.3l-1.2-1.2c1.6-1.7,9-2.4,9.6-2.7,1.4-.8,2.8-6.5,3.2-6.8,1.3-1,4.4-.6,4.7-2.6,3.8,4.6,5.6-2,6.1-2.3s2.6-.2,3.3-.8,1.2-3.1,2.2-3.8c2.9-2.2,5.8-.2,6.1-.3,1.1-.2,1.7-5.5,6-6.3s2.7,2.6,5.1-1.1-.2-5.1,0-5.6c1.1-1.8,5.7-1.4,7.6-7.8s-4.1-4,0-4.9l-.3,1.2c6.1-1.9-2.9-8.4.6-12.6s5.2,1.3,3.3-1.8-4.7,1.4-4.2-1.5,1.1-.2,1.3-.7-.8-1.8-.6-2,1.5.5,2.2.2c1.3-.7,1-5.1.8-5.6s-2,0-2.7-1.2-.4-4.6-.3-4.8,4-2,4.1-1.9c1.4,1.4-2.8,2.3-1.7,4.1s4.3,2.4,5.3,1.2c1.9-2.3-2.9-6.5-2.9-8.7s3.5-1.6,3.6-3-5.4-8.1-5.7-9.2c-.6-2.3,1.7-5.3,1.5-5.5s-1.7.2-1.8,0c-1.3-3,1.2-4.3,1.2-6.2s-3.1-5-3.2-5.3c-1.2-4.3,1.7-4.2,2-5.1,1.4-4.6-6-22.5-7.7-28.2s.5-4,.2-5.6c-.7-2.9-5-7.7-5.9-12.7s.9-7.3.7-7.6-1.5.2-1.8-.4c-.5-.9-2-5.3-2.4-5.6-1.3-1-1.9,1.2-2,1.2-.6,0-8.1-7.9-9-9.1-1.4-1.8-3-7.2-4.1-8.8s-4.5-1.7-5-5,3.9-2.5,2.1-4.2c-2.9-2.7-5.4,1.8-5.7,1.8-2.8,0,2.2-4.2,1.5-4.8s-2.9.3-4.2-.3c-2-.9-1.6-4.3-1.8-4.5-.3-.3-1.2,1.1-1.6,1.1-3.8-.6-6.9-5.2-9.9-7.3-7.6-5.2-15.7-9.3-21.4-17.1s.3-2.3,0-3c-3.1-5.1-17.5-9.4-23-23.5s-.8-3.6-.8-3.8c.6-2.2,3.2-2.8,2.9-3.7s-2.3-1.8-3.1-3-.3-3.2-.5-3.3c-.6-.3-2.1.8-3,.3-3.8-2.2-9.7-7.1-13.2-9.9v-49.2,1.8ZM752.8,35.5c-2.7-.8-2.5-1.4-6.1-1.4s-22.6,3.7-21.2,9.8c1.1,4.7,6.4,2.2,8,2.2,4.9,0,12.3,0,16.7-2.5s6.5-7.8,4.3-8.2-1.1,1.2-1.2,1.2c-.5-.2-.2-.9-.5-1h0ZM616.1,43.8c-5.2.3-2.9,8.4-6.5,11.3,1.3-1.4,4.5-.5,4.7-.6.3-.2,1.6-3.9,2.9-4.7s4.4.3,4.4-.9-5.5-2.7-5.5-5h0ZM831.6,54.4c-.4-.4,1.7-4.7,0-5.4.8,4-2.1,4.6-4.1,6.7s.5,1,.5,1.1c-.2.2-2.2-.2-2.4,0s1,2,.6,2.4-1.8-.9-2.4-.6-1.1,3.7-5.4,4.5-1.8-1.3-3-.9c1.3,2-2.2,4.9-1.5,6s5.7,1.8,6,1.8c1.5-.2.2-2.3.3-2.4.5-.3,3.8.3,4.2,0s-2.6-5.2,0-7.2,1.3,1.4,1.8,1.2.2-1.6.9-1.8c4.2-1.5,2.2,1.2,3,1.2,1.5,0,1.4-3.9,1.6-4.1.3-.3,2.1-.2,2.5-.6,3.6-3.8-2.3-1.5-2.6-1.9h0ZM629,106.4c-1.1-1.4-2.8-3.4-5-2.2s1.3,2,1.3,2.7c0,1.6-4,5.8-1.3,7.2s.3-2,2.4-3,7.4,1,2.6-4.7ZM899.4,149.2c.4-.5-.3-3.6.2-4.9s6.8-10.6,2.6-11.8-3.9,8.5-4.1,9c-.4,1.2-5,7-3.4,8.4s4.6-.4,4.8-.6h0ZM887.8,152c3.1-6-8.5-7.6-9.9-3.6-1.8,5.3,7.5,8.3,9.9,3.6ZM853.2,215.2c-2.5,2.8-27.7,10.3-16.2,11.4-5.5.1.3,7.4,3,5.7s1.9-6.2,5.4-5.1c-4.1-5.5,12.8-5.8,7.8-12h0ZM827.4,237.9c0-.1-3.5-.1-3.6,0-.4.4-.6,11.1,3.8,8.3s1-4.1,0-5.7,0-2.4,0-2.6h-.1ZM803.2,275.9c-2.3-3.7-2.1.6-2.8,1.4-2.1,2.3-4.4,2.4-5.5,5.6-2.2.5-.8-2-1.2-2.4s-6.3-.2-6.6,0,1.6,1.8-1.8,3c14.4,2.4-3.6,5.5-4.2,7.5s1.4,2.2,1.2,3.6-3.7,3.5-3.9,4.5.7,4.4.9,4.5c.9.5,8.7-1.8,7-3.9s-4.5-.5,0-2.9,3,.9,4.1.5c1.7-.6,2.4-5.2,2.1-5.4s-6.2,1.9-6-.3,4-1.3,5.2-2,9.2-5.9,9.6-6.3c2-1.9,3.4-4.8,1.8-7.4h.1ZM563.2,332.3c-.8-.6-2.2-1.9-3.1-2-5.9-.8-4.1,4.4-6.3,5.6s-4.5-1.5-6.9-1.5-9,5-10.2,7.9-.2,6.7-.9,8.5c-1,2.8-3.9,2.6-5.7,4.6s-1.1,3.3-2.6,5.2c-2.7,3.2-1.5-.2-1.8-.3-3.3-1.5-4.5,3.1-5.4,3.9-1.6,1.4-3.9,2.7-5.3,4.3s-1.4,4.1-2.2,4.4c-1.5.6-2.6-3-6.1-1.4s-1,2.2-2,2.9-4.9,1.9-5.3,3.8,3.1,10.7,3.4,13.1c.5,3.6.9,19.4,1.7,21.1s3.8,1,5.3,3.8,2.3,9.7,3,11.3c3.6,7.8,15,7.6,17.2,18.9s-1.5-.1-1.3,1.8c.9,6.9,1.4,3.5,6.7,5.7,1.4-9.7,1-19.2,6.9-27.6,16.6-11.6,15.5-34,20.8-51.1,1.1-3.4,8.8-13.8,8.9-17,0-5.7-5.5-12.2,4.2-15.3-1.5-1-2.3-4.9-2.5-5.3-.4-.5-6.5-.8-7.6-1.5s-2.3-3.5-2.7-3.8h-.2ZM696.8,349.3c-1.5-1.3-1.7-7.2-3.8-4s1.8,3,.6,3.6-4.2-3.6-4.8-.9,2.9,1.4,3,1.5-.9,3,0,3.6,8.6-.3,9-.6c2.1-1.6-3.8-3-4-3.2ZM660.6,356.1c-1.1-1.5-4.2,4.9-5.2,5.4s-3.1-1.7-4.7.5,1.4,1,1.5,1.2c3.1,5.7-11.5-1.3-12.2-1.1s-4.6,4.7-4.5,5c.2,1.2,7.8,1.7,9.2,2.1s.2,1.7.4,1.8,4-.4,4.2-.6-.3-2.3.9-3,1.1,2.4,1.8,2.4,1.9-2.4,2.5-3,2.2-.3,2.9-1.2,3.6-9.2,3.3-9.6h-.1ZM571.1,583c-9-1.5-22.1-11.3-26-11.6s-6.3,2.4-7.1,2.4c-2.2,0-1.4-3.3-4.6-2.9s-.8,2.4-2,3.5-5.7-1.9-7,1.9,1.5,3.6,1.1,5.8-3.7,6.5-4.4,8.9.5,2.7.2,3.8-1.9,1.4-2,2.1.8,2.3.5,3.4-1.8.8-1.8,1.3,1.4,1.6,1.2,2.4-3.3.4-3,4.9,3.4,3.8,3.6,4.2c1.6,3.1-1,6-1,9.4s1.8,5.4,1.5,7.7-3.9,5-4.3,6c-.5,1.5.4,3.2,0,5.3s-2.1,1.6-2.2,2.1c0,1.1,1.4,1.4,1.5,2.4.5,3.1,0,7.1,1,10.1s6.4,4.7-2.5,7.9-4.6-.4-4.8-.6c-1.9-1.4-3.3-8.1-4-9.8s-2.4-3.7-2.8-3.8-5.2,3.4-5.4,3.6c-.9,1.2-2,13.3-1.5,14.5,1.2,2.8,2.5-.5,3.2-.2,3.5,1.8.7,7.1,1,8.1s2.3.8,2.3.9-1.2,2.2-1.1,3.3,1.1,2.3,1.1,2.4c0,.4-1.4.3-1.4,1-.1,6.2,3.6,6.8,4.9,12.8s.4,17.9,5.4,15c1.9-1.1.6-5.4,2.4-3.6,1.8,1.8-1.3,3.9.3,6.3s3.6,1.4,4.2,2.4c1,1.7-2.2,5.8,3.6,6.6,11.4,1.5-3.1-16,11.7-11.6,7.3,2.2,2.6,6.5,2.9,6.8s5.2-2,2.7,2.4-1.6-1.2-2.7-.6-.6,2.3-2.1,3.6-8.5,5.6-8.6,6.5c-.8,3.6,1.2,3.8,1.2,4.6,0,2.4-1.7,10.7.9,11.7s.8-2.2.9-2.4,1.8,0,2.2-.6-1.3-2.6,1-2.9,5.1,1.3,5.5,2.3c1.4,2.8-2.8,6.2-.6,6.6s2.2-4.1,4.7-2.9,0,4.2.4,4.7c.4.8,13.8.8,15.4-1.2s-2.8-3.4,1-6.2c5.7-4.3,17.4-.7,22.4,3.2s2.9,4.8,3.7,5.5c3.3,2.8,7.1,1.2,10.7,9s-.7,2.4,0,4.1c1.6,4.1,7.4,1.1,7.5.3s-2.4-10.6-2.7-11c-.9-1.3-2.7-1.4-3.1-2-2.8-3.9-1-4.3-1.1-8.3s-1.8-1.9-1.4-2.9c1.4-3.6,5.7,2.7,6.3,3,1.8,1.1,2,1.5,2.2,1.7.3.2,3.6.4,4,1.4s-.6,2.5-.3,3.1c1.7,4.3,10.9,5.1,13.1,7.8s4,7,4.1,7.4c.4,2-1.8,5.5.4,7.4s2.5-.9,4.1-.6,5.4,4.4,7.2,5.4,7.2,1.9,7.5,2.4c.6,1.2,0,3.3,1.1,5.3s6.9,6.6,9.3,4.8,1-11.5,2.3-12.9c-3.4-1.2,1.9-4.3,1.3-5.9-1-2.7-4.4.6-5.9.5s-4.5-4-6.4-3.9-1.9,4.3-3.3,3.1-1-5,0-5.7,13.8,1.7,10.8-2-19.7-8-8.4-1.8c-2.5,4-4.5-3.6-5.7-4.8s-5.6-3.3-5.7-3.6,1-4.6,2.2-5.3,6.4,1,7.8.9,1.6-1.4,2.4-1.6c1.5-.3,6.2,2.1,2.6-2s-1.9-.5-2.7-1.7c-1.2-1.9,0-4.9-1.2-5.4s-1.2,3.5-2.4,3.6-1.4-2.3-1.5-2.4c-1.3-.9-1.6,3.9-3,1.8s2.1-3.4,0-3.6-1.3,3-2.7,0c-2.7,8-8.6-6.5-10.5-4.8s.8,1.6.6,1.8-3.5,1.6-3.6,1.8c-.4.8,3.2,9.3-2.5,8.3s-2.4-7.6-2.3-8,5.5,1.5,1.6-2.5-3-.8-3.7-1.4c-3.8-3.4-4.1-6.6-11-7.8s-2,1.1-2.8,1c-2.2,0-3-1.8-6.3-.8s-4.4,4.8-5.7,6.9c.9-7-5.5-1.9-4.4,1.4s6.5,4.6,3.2,5.2-11.2-10.8-12.3-9.6c-2.9,3.1,13.4,10.2,11.4,12s-16.3-6.1-17.3-9.4.8-2.4.4-3.3c-1.5-3.6-6.1-9.8-5.4-14s8.9.5.4-5.7c.3-4.5-8.7-17.2-8.5-19.8s1.7-.4,2.7-2,6.5-10.9,6.5-11.5c0-1.5-5.8-1.1-2.3-6.5s14-9.5,17.1-9.9-1.8,3.2-2,4c-.7,4,8-7.3,8.3-7.9s-1.3-.3-1.2-.6c.4-1.4,1.5-2.1,1.8-3.6s-1.8.6-1.2-1.2c2.2-5.9,12-17.3,11.4-24.6s-3.4,1.2-4.2-1.2,2.3-4.7.4-6.7-3.6,2.1-6.9-3.6-3.5-18.6-1.8-23.8,7.9-4,5-10.6c-.7,0-6.6-8-7.5-6.6-1.4,2.1,1.2,3.1,1.2,3.3-.2,2-4.3,6.7-6.5,7.3-3.3,1-3.7-.8-3.9-.8l-.3.2ZM577,700.5c-1.3-1-5.3-.8-6.6,0-4.8,2.7,1.8,7.1,2.5,9.8s-2.2,4.6.4,5.6,4.9-3.3,5-4c.2-1.3-1.7-2.7-1.1-3.8s2.4.5,1.8-.9-2.9-1-3.6.3c-.8-2.7,1.7-1.6,1.8-1.8.2-.4-.9-2.1-.6-2.4s5.3.8.4-2.8h0ZM583.8,708.1c-.2-.2.4-4.2-2.1-4.2s0,3.4-.3,3.6c-.2.2-2.9-1.1-1.6,2.8s9.8,2.2,6.8-1.7-2.6-.4-2.8-.6h0ZM658.3,738.5c-.6-.6-1.2-3.4-2.5-3.8-5.1-1.4-2.6,6.7-3.3,10s-3.4,4.5-3.7,5.6,5.3,5.1,6.1,5.2c1.4,0,1.2-2.1,2.5-2.4s2.7,1.8,3.2,1.1-.3-2.3,0-2.9,2.2-.5,2.3-.7c.2-.3.2-7.2,0-7.9-.8-2.7-4.2-3.9-4.6-4.2h0ZM579.5,755.3c-1.3,0-8.6-2-8.9-1.6s-1.3,5.5-1.3,6.3c0,3.9,7.6,7.8,8.5,6.9s-.3-2.2.3-3c.9-1.2,2.9-1.5,3.2-3.4s-.9-2.5-1-3.6,1.6-1.8,1.1-2.6c-.9-1.3-1.8,1-1.9,1h0ZM539.4,754.9c-.4-.3-6.6,2.1-8.1,2.1-2.8,0-16.9-5-16.5,1.1s4.8.8,5.1.9c1.1.3,1.5,5.9,2.9,7s3.3.2,5.5,2.6c4.8,5.4,2.8,14,4,15.5s3.3.2,5.1,4.2-.7,2.2,0,3.5,5,5.9,5,6.4-2.7,2.7-2.3,4.2,2.2,0,2.9.4.2,1.8,1.6,1.7c2,0-1.3-2.5.7-3s3.8.9,4.4.5.2-1.8.8-2.2c2.9-2,3,.5,3.1.4s3.3-3.6,3.3-3.9c0-.5-1.7-.2-1.8-1.8,0-2.7,4.8-4.3,5.1-7.5s-2.2-3.9-2.6-5.7.5-7.4.8-8.8,2.4-1.4,2.1-2.6c-.3-1.9-4-1.3-4.2-1.5-.3-.3.4-2.4,0-2.9-.7-.7-7.8-6.8-8.3-7-3-.9-4.4,2.1-8.7-2s.5-1.7.3-1.8l-.2.2ZM613.7,768.8c-5.9-2.7-5.4,6.1.3,5.8l11.8,10.8c-.8-1.1-3.6-7.5-3.9-7.8-1-1.1-2.6-.2-3.2-.7s-3.4-7.4-5-8.2h0ZM640.8,798c1.4-2.8-4.5-14.9-7.2-13.2s5,12,7.2,13.2ZM663.4,785.6c-4.3-4.1-1.9,4.1-3.1,4.6s0-1.1-.7-1.2c-3.9-.5-1.1,2-1.6,3.3s-2.7.3-1.2,3.1c2.4,4.6.7-2.1,2.3-1,.2,3.8,4.5,11.7,7.5,13.5s3.1-.2,4.6.8,5.2,7.6,6.4,8.9,3.4,1.1,4.3,2.6c2.7,4.3-1,5.2-2.1,3.5s1.3-4.1-2.1-3.6.9,5.9-.9,3.6-.5-6.9-3-4.2,5.3,8.7,4.7,10.7-8,6.8-10.4,3.7-2.1-4.3-2.1-4.5c.2-.8,3.3.5,4.2-1.3s-3.2-7.5-5.8-7.9c-6.3-1-2.8,4.7-.8,8-10.8-7.3-2.6,5.1-1.8,9,.5,2.5-.9,11.2-.6,11.7s5.7,1.9,5.9,1.8c.9-.6,0-5.3,2.7-4.8s5.6,6.6,5.9,7.4c2.5,6.4-3.2,9.7-1.8,14.4s1.9,1.7,2.2,2.6-2,6.4-.4,7.3,2.7-.3,3.7.2,5.3,4.1,5.8,3.4c1-1.1-4.2-10.6-.9-12.6,3.9,5.3,3.6,13.3,10.5,16.2-.5-2.2-2-5.9-3.1-7.7s-1.7.4-2.3-.5-.7-4.2-.6-4.4c.6-.6,7.3,4.1,4-4.7,0-.2-1.6,0-1.6-.2-.7-2.1,0-6.4,0-6.8-.2-.9-6.3-5.8-6.5-6.2-1.1-3.2,1.2-5.7,1.1-8.3s-3.8-13.8,3.5-9,1.6,5.5,1.8,5.7c1,1.3,2.4-1.7,2.7-1.7,1.5-.3,3.6,1.6,4.8,1.6,2.3,0,4.3-1.1,5.4-1.2s-.2,1.1,1.1,1.2,1.2-1.6,2.2-1.1-.7,2.7,0,3.5,3.1.4,4,1.1c2,1.4-.6,1.5-.6,1.8,0,1.1,3.5,1.7,3.6,1.5.9-1.5-7.6-12.6-8.7-12.6s-.5,2.4-2.1,1.8c-.4-2.9,4.2-3.1,3-6.1s-4.2-3.7-5.2-6.3-.3-5.3-.5-7.6.9-3.3.8-3.7c-.3-1-2.1-.5-2.3-1.2-.8-2.2,2.8-5,2.9-5.4.5-2-1.7-2.8-1.7-3,.5-1.4,5.4-1.6-.6-6s-3.8-.5-4.5-1.5.6-2.6-1-5-5-5-5.3-5.2-1.3,2.3-3,1.2c3.4-2.3-1.4-5.2-2.9-2.9s1.9,4.1-4.9,2.9l.6,1.5c-4.2,0-7.4,1.8-11.6,0s-1.5-2.2-1.9-2.3-.9,4-3.3.6,4.5,0,1-3.4l.2.3ZM582,786c-.7-.6-5.4,1.8-5.7,2.4-.8,1.7.2,4.1-.4,5.6s-1.8,1-2.5,2.9c-1.3,3.3.8,2.9,1,3.6.3,1.1,0,5,1.6,5.9s2.9-1.7,3-1.8c0-.5-1.3-1.6-1-2.6.4-1.8,4.7-15.5,4.1-16h0ZM625.2,791.4c1.7-1.7-4.6-3.2-4.8-3-.5.5.7,4,.6,5.1s-1.4,8-1.3,8.4c.2.7,1.8,0,1.8.6s-7.6,11.9-3,10.8,9.2-14,13.2-9.5,1.6,5.9,1.7,6.2,2-.3,2.3,0c.7.7,1.2,2.5,2.5,3.2s4.7.5,6.6,2.1-.8,1.6-.6,1.7,1.6-.8,2.4-.3c1.2.7,2,2.6,2.4,2.9,3.8,2.5.6-5.4.3-6.7s1.1-1.5.9-2-5.6-8.6-6-9c-2.6-2.5-3.5-.2-4.8-.7-2.4-.9-8.7-12.1-14.4-9.9h.2ZM599.9,792.2c-1.5-.9-9.4-.5-8.9,2.5s7,5.7,7.5,5.6c3,0,3.2-7.1,1.4-8.1ZM506.6,802.7c-.7-.5-6.3-5.7-7.4-4.6s-1.1,7.2-.6,7.8c1,1.1,1.4-2.4,2.4-1.2s.6,3.2,2.1,4.8c3.9,3.9,8.9.9,9.3,1.2s-2.4,4.1,1.2,6c.7-1.1-.2-5.8,0-6s3.3-.2,3.6-.6c.7-1.1-4.6-7.7-5.1-7.8s-2.2,3.1-4.4,1.7,1.1.2-1.1-1.3h0ZM502.8,810c-.2-.2-4.6-.2-4.8,0-.5.5,3.7,12.8,4.2,13.2s3.2-2.1,3.5-2.8.4-4.2.7-4.4,1.8,1.9,2.4,1.2-1.9-4.2-3.6-3c3-1.7-1.4-3.6-3-1.8.1-.6.9-2,.6-2.4h0ZM573.6,810c-2.3-1.4-.2,2.2-.2,2.4,0,.5-3.5,6-2.7,6.5s5.4-.3,7.3.8c3.7,2-.8,12-1.2,15.3s1.2,7.6.9,9.4-4.6,7.2-4.5,9.8,1.6,1.6,1.8,4.1-4.6,11.2.7,8.7,2.8-4.1,4-5.1c3.8-3.2,13.1-6.1,14.9.2s-1.6,1.5-1.7,2.3c-.4,2.7,4.7,4.7,6.6,3.9s-.5-1.1-.3-1.2c.9-.5,2.5-.7,2.7-.9.8-.9,0-1.4.2-2s1,0,1,0c0-.5-1.3-1-1.1-2.5.2-2.4,2.3-2.9,2.3-3.2,0-.8-1.3-3-1-4.1s2.1-6.8,2.2-7.1c.5-1.1,6.6-2.7,7.7-3.6s0-2.1,1.1-2.8,4.1,5.4,2.7-2.4c4.5,2.8.7-.6.6-.9s2.8-1.5,1.8-2.7-3.3,5.2-1.8-4.2c2.1,1.5.7-1.1,1.5-1.2s2.3,1.8,2.4,1.8c1.4,0-1.3-5.7-1.5-6-1.1-1.2-1.8,3.7-1.8-.6-6.2,6.9-11-2.1-15.9-1s-3.3,3.6-4.1,3.4c-3.1-.7-6.7-6.4-8-7.2-3.1-2.1-9.2-3-12.3-4.8s-3.8-4.6-4.1-4.8l-.2-.2ZM486.8,833.2c-1.3-1.8-.3-5.5-3.6,1.2s0,2.2-.4,3.2-2.3-1.7-2.7.3,1.5.3,1.8,1.3c1.3,4.4,1.3,5.5-2.4,2.6.2.9-1.5,5.4-1.9,5.9s-1.6,0-1.7,0c-1,1.2,1.2,2,1.2,2.1s-1.6,1-1.1,2,4,3.7,4.1,4c.5,1.3-1.2.8-1.2.9,0,.7,2.1,1,0,4.5s-1.9.7-2.2,1.1c-.7.9-1.7,4.1-2.9,4.6-2.7,1-.8-2.2-.9-2.4-1.5-2.2-2.2,2.9-2.4,3s-2.6-2.4-3.6.9,1.9.7,1.2,1.8-2.2.8-2.3,1,.6,2.4-.7,3.3c-2.2,1.5-4.6-3.2-4.2,6.3-1.1,0-.4-3.5-1.8-3s-7,10.8-8.7,12.6c-2.6,2.9-8.5,7-11.4,10.2s0,2.8-.3,3-1.9-.3-2.3,0c-4.1,4.3-7,3.9-12.1,8-1.1.9-1.1,3.1-1.3,3.2-.6.4-2.8-.3-3.5.4-2.8,2.6-13.7,15-15.1,17.9s-1.9,5.2-2.3,6.8,2.3,3.3-.6,5-.4-1.7-.6-1.8-2.3,1.3-2.4,1.6c-.9,3.2,1.9,1.5,2.4,2s-1.4,3.2.3,3.6,7.5-2.7,7.8-3c.6-.8,1.2-7,.9-7.2-1-.6-5.6,2.6-5.4.9.5-3.7,8.5-4.3,9.6-4.9,2.4-1.3,2.2-5.4,2.4-5.6s5.4-.7,7.1-1.6,8-6.2,8.4-6.6c2.1-2.1,4-7.5,6-8.9s6.7-.5,8.7-3.9c1.1,2.8,2.3.3,1.6-1.7,4-2.9,12-13.1,12-17.8s-4.5-4.2,3.3-6.8,1.5,1,1.7.9c1.9-.6,10.7-4.1,11.4-5.3s.2-4.6,2.3-6.4,7.7-2.4,9.4-3.5,5.1-7.5,6.9-5.1-1.3,2.7,2.4,2.4,6.8-3.2,6.9-3.6c1-1.8-5.9-4.8-6.3-4.8-1,0-1.3,3.5-1.5,3.6-.3.2-4,.4-4.7-1s0-2.1-.4-3.1c-1-2.4-4.3-2.4-.3-5.1-1.7-.9-4.2.9-5.1-2-1.9-6.1,5-4.1,5.1-4.6.8-3-4.1-3.6-4.2-4.2s1.9-.2,2.7-.9c3.8-2.8-2-1.1-2.1-1.2s1.4-3.1,1.1-4.4-1.7-1.2-2.1-1.8h0ZM639.6,835.2c-2.8-2.1-2.9,4.4-3.1,4.7s-1.7,0-2,.7c-5.3,10.1,8.1-1.4,7.5-2.4s-1.4.3-1.9-.4-.4-2.6-.5-2.6ZM651,835.8c-1.3-1.7-5.8,2.7-5.9,3.1-.8,2.2-.3,9-2.2,13.6-4.4,10.9-14.8,23.1-17.3,33.1s-6.4,29.1,3,12.6,6-17.9,9-21.6,3.9-3.1,6.5-3.6,0,1.7,1.7,1.1,6.3-5.3,2.2-4.1l3-34.2h0ZM627,866.4c2.2-3.4,7.6-15,3.6-18.3s-10.5-2.7-11-2.7c-1.6,0-3.6,2.2-5,2.8s-4.5.4-4.9.8c-.6.9,1,6.5-1,10.1s-3.8,1.4-4.4,3.4-.2,4.2,0,4.4,1.5,0,1.6,0c.3.7,1.2,11.4.8,11.9s-2.1-.3-3,.3c-1.3.9-2.5,2.7-4.1,3.1-4,1.1-8-2.4-9.6,4.8s3.5,12.4,7.7,15.4,8.2,2.8,9,3.6c1.8,2.1.4,9,5.4,10.2,5.6,1.4,12.7-5.5,11.3-10.7s-4.9-6.4-5.2-7.4c-2.5-10.2.9-12.1,3.8-20,1.7-4.5,1.7-9.8,4.8-13.2l.3,1.2v.2ZM709.7,886.7c.3-1.7-1.1-2.2-1.1-3.2,0-2.2,0-19.1-1.5-18.8-2.1.4-6.8,13.6-6.3,14.4s4.1.5,4.2.6c.3.3-.8,2-.6,2.6s2.2,1.7,1.2,2.7-2.7.4-3,1c-.5,1.6,2.1.6,2.4.9s-.2,2.2,0,2.4c.6.7,4.6-2.3,4.7-2.5h0ZM658.8,872.4c-1.2-1.1-13.1,4.4-4.8,3.3-2.2,1.3-4.3,5.7-5.4,6.6-2.1,1.7-7.5,2.4-7.8,2.7s.9,1.5.6,1.8-1.7-1.8-2.4-1.2,1.2,5.6,1.3,5.9,4.2,0,1.1,3.3-5.8,1.8-3,3.7,4.8-2.6,6.3-2.7c3-.2,8.2,1.7,13.2.5,4.9-1.2,4-3.2,5.6-4.2s4.5.5,5.5,0-.8-10.3-.6-12.2,4.6-4.8-.7-3.2-2.4,3.6-3.4,2.3,2.6-2.3,1.2-3.3c-2-1.4-6.8,0-9,.3.3-.7,3.4-2.7,2.4-3.6h0ZM723,879.6c-1.7-1.5-2.7,3-3,3.3-.9.8-4.1,1.3-4.2,1.5-1.1,1.7,4.7,4.6,4.8,6.9-.9,1.2-3.1-1.5-3.6-.9-.7.9-1.3,7.1.9,7.8s1.1-4.1,2.2-4.7,3.1.2,3.5,0-1-2-.6-2.4,5.9,2.9,3.1-3.2-1.8-.3-1.9-.4c-.2-.5-.5-7.2-1.2-7.8h0ZM704.8,890.6c-3.2-1.1-6.4-4.8-7,1.2s10.6,25.6,1.5,26.7-8.1-4.7-8.6-4.2c-1.4,1.4,1.9,10.5-3.3,9.6s-6.3-8.5-10.5-6.3-.4,8.2-.7,10.4-1.5.3-1.7,1c-1.1,5.8,3.1,10.2-7.2,4.7s-1.1-4.7-6-1.1-2.8,13.1-7.3,14.3c-1.7.4-3.2-.6-5-.3s-5.6,2.6-5.8,2.4c-.7-.9.7-10.7-3.6-15.9s-5.3-2-8-2.9-3.8-3.5-6.4-2.8c3.9,6,.2,2.5-.6,3s-.7,3.9-1.8,4.5c-2.6,1.5-7.5-3.8-11.7,3.9s.4,2.1.2,2.6c-.2.9-1.7.6-1.7,1.2,0,1.2,2.5,2,1.7,3.8s-7.4,3.1-8.7,3.1c-2.5,0-1.6-2.3-2.9-1.8s-1.1,2.2-2.2,2.6c-3.8,1.3-9.1.7-12.8,4s-4.3,6.9-5.6,8.2c3.6,4.4,0,6.6-.9,9.9s-.6,6.2-.7,6.5c-.6,1.3-4,1.9-4.8,5.3-2.3,10,10.7,11.1,13.4,7.1s-2.8-.8-2.9-1.4c-.3-1.3,2.2-3.8,2.6-5.2s-.2-2.5.5-4.2c1.1-2.8,3.1-1.6,3.7-3.6s-1.1-2.5-.7-3.6,3.2-1.3,4.4-2.8c2.5-3-1.3-1.2-1.5-2.1s6.5-7.5,9.2-6.8,3.3,2.2,3.4,2.3c.4.7-2.3,11.8,0,15.7s6.3-2.5,6.4-2.9c.8-3.6-4.7-2.2-4.7-2.9s1.9-3.3,2.1-3.3c.9,0,1.4,4.4,3.2,2.9s3.1-14.4,5.9-6.1-1.5-.4-2.3.2.7,5.9,3.3,5.4,1.7-3.2,3.3-1.8,2.3,6.8,5.1,6-1.4-5.8-1.4-6.9,4.3-2.6,3.6-6.6-4.6-4.1,2.6-4.2,6.1,4.3,7.7,4.9c2.5,1.1,5.2,0,8.7,2.4,2.8,1.8,3.6,6.7,5.2,8s2.9.2,3.3.6-3.2,6.8-3.9,7.8c-2.2,3.1-5.5,2.6-6.7,9.4s2.4,4.8,2.7,5.9c.9,2.8-.8,9.7.3,12.3s4.5,6.7,4.9,7.1c3.5,3.4,28.8,15.5,32.5,13.2,1.4-.9,1.8-12.1,6.3-8.3s-3.1,8.7-3.1,9.8c0,1.6,4.1,4.1,4.2,4.4.7,1.3-.7,6.8,4.1,4.7s9.8-13.1,10.1-13.9c3.9-9-2-18.3-8.1-24.1s-2.5,1.4-2.4-3.3,4.2-10.4,4.6-10.9c.9-1,6.1-3.5,7.2-1s-3.7,3.1-1,4.9c5.7,3.9,5.4-14.9-.7-9.6-.6-2.2,1.2-4.6,3-5.6,5.6-3,2.6.8,3,2.3,1.1,4.5,3.7,5.9,5.1,8.8s-.6,2.3,0,3.5,3,1.7,3.7,3.6c1.4,4.2-1,9.6,2.3,16s2.2,3.4,2.8,3.2c-.6-2.6,1-17.8,2.4-18.6s3,1.8,2.8-1-3.5-2.3-1.6-5.2,3.1,0,4.5-1.2,5.6-9.2,5.6-9.8c0-1.1-1.4-.6-1.3-1.7.2-1.7,1.3-5.4,1.3-6,0-.9-.5-7.9-.7-8.3s-6.6-3.5-7.1-5.5c-1-3.6,1.8-2.3,2.4-3.6s.8-9.1.7-9.5c-.3-1.2-3.8,1.6-4.8.9,5.4-5,1.2-3.8,1.2-4.5,0-1.1,2.7-5,.7-7.1s-10.7,1.2-10.1-3.1,7.8-3.4,8.2-7.9-5.4-7.7-5.7-9.5,2.3-6.8,1.6-7.5-11.8,7.4-6.6-4.2c-6.6,4.2-1.8-.8-2.4-1.8s-12.1-5-12.5-5.5c-1.8-2.6,1.8-.5,2.3-2s-1.3-4.2-1.8-3.9,1.3,2.5-2,1.4v.2ZM635.3,907.3c-1.4-1-2.2,1.6-3.8,2.4s-3.1-.3-3.3,0c-2.2,2.3,7,6.9,9,4.2s-1.4-6.2-1.9-6.5h0ZM397.6,949.4c-2.5-.2-6.9,8.2-5.8,9.4s2.2-.7,2.4-.6,0,3,2.1,3c3.5,0,2.6-6.1,2.7-8.1s1.2-1.7,1.2-1.8c0-.5-2.4-1.9-2.6-1.9h0ZM1024,981.3c2-2.2,4.1-2.5,5.1-3.6,1.8-2.2,4.4-17.1,2.6-17.6-4.8-1.6-3.6,5.2-4.2,6.5s-4.8,4.7-4.9,5.1c-.6,2.3,1.5.8,1.6,1,2.9,5.2-.2,3.9-.4,4.2-3,5.7-3.3,6.6-7.3.5-3.1,5.1.2,6.5.5,9.4s-1.6,3.7-1.1,4.3c1.3,1.5,7.7-9.3,8.2-9.8h0ZM409.5,978.9c-.5-1.3-1.2-3-2.5-3.8s-9,3.6-9.4,4.8-.7,7.4-.4,7.7c.4.5,7.4-5.5,11.3-4.1s.5,3.8,3,1.7-2.3-2.3-2.4-2.4c-.2-.3,1.2-1.6.3-3.8h.1ZM578.8,999.1c-7.3-1.2-4.3,1-5.3,2.1s-3.7-.9-4.6,1.1c-1.6,3.6,2.1,2.4,2.3,2.6s.7,6,3.5,6.6,9.4-1.4,9.7-1.8c.7-.6-3.5-5.2,3.6-5.7-1.2-.7-8.6-4.8-9.2-4.9h0ZM546.4,1023.1c-3.1-2.7-12.7,2.2-11.2,5.7s11.5-.2,12.7,0,1,2.8,3.1,2.5,4.1-2.8,4.3-3c.6-1.2,0-3.7,1.5-5.4-1.1.8-9.2,3.2-9.6,3s-.3-2.4-.8-2.8h0ZM513,1052.3c0,0,.7-3.3-.3-3.6-2-.5-8.9,6.5-12.9,4.8-.6,2.9,4.1-1.5,2.4.9s-10.7,4.2-7.8,7.5,11.3-6.4,7.7,1.4-5.7.8-5.9,1c-2.7,2.8,5.6,4.4,8.4.3s.3-2.2.7-3.2,1.6-.6,1.6-1c.3-1.9-2.9-2-3-2.1-1.9-2.6,9,0,9.6-1.8-3.6,8.9,3.2-.4,3.7-.5s5,1.2,5.9.5c2.7-2-2.8-1.4-3-1.5-2.6-.8-2.4-1.6-3.7-2.3s-3.2-.2-3.5-.4h0Z"/>
    <path class="st2" d="M558.3,248.1c.3-.5-.7-3.2,1.2-3.4s5.2,2.3,4.5-1.1-2.3-.8-2.4-.9c-.2-.3,1.7-4.5,1.9-4.7,2.2-1.5,3,1.1,3.2,1.1,1.8-.2,5-8.1,6.3-9.9s7.1-6.2,7.7-8.5-.5-3.7-.2-5c.6-1.9,3.3-4.9,3.3-6.9s-2.9-3.9-3-5.3,2.1-1.1,2.3-2.6-1.1-2.1-1-2.7c.2-.9,2-6.9,2.2-7.2,1.2-1.6,8-2.1,9.5-8.6s-1.3-1.6-1-2.7,1.9-2.5,2.2-3.9-.5-4.3-.3-5.8,1.5-1.2,1.7-3.1c.3-3.6-1.5-1-1.8-3s3.8-.6,4.2-2.4-7.6-8.1,3.1-4.5c.6.2,1,1.7,1.4,1.8,2.5.4.5-4.6,1-6.2s2.2-1.4,2.3-1.9-3.1-4.2-1.8-6.3c-2,0-1.3,3.8-4.5,2.4s1.3-6.1,1.5-6.4-1-2-.6-2.6c.7-1.4,4.4.8,5,.6,2.1-.8-.4-4.2-.6-6.2-.7-6.2-1.6-9.1-2.5-15.2s1.1-1.6,1-1.7c-.4-1.9-4,1-5.7-.3s-2.1-5.1-1.9-5.6c.5-2.2,5-4.3,5.2-5.6s-2.5-2.4-1.7-3.2,7.3-1.8,5.3-6.8-3.4,1.2-3.8,1.3-6.1-.9-6.3-1.2c-1.3-2,2.6-2.4,3-3.4s-1.1-2.7-.3-3.9,4.4-.3,4-3.3-5.2,1.6-1.8-3.9c-1-.3-5.2,2-5.4,1.8s.3-2,0-2.6-1.7-.9-1.7-1.3c-.7-3.7,4.6-.6,4.8-2.4s-2.6-3.2-1.8-3.9,7.2.8,5.3-4.4-2.9.9-4.6,1.3-2.7-.7-3.3-.5-2.8,3.6-3.2,3.6c-1,0-8.6-3.7-6.3-5.4s3.4,4.2,4.7.2-5.1.2-5.3-2.9c-.5-6.3,5.2-6.8,5.4-7.8s-2-1.7-1.8-3,3.2.3,3.6-1.2-.7-1.6-.5-2.3c.7-3.1,1.2-8.9,0-11.9s-2.3-.4-2.9-2.5c-.9-3.2,1.3-10.2,1.2-10.7-.2-.8-2.2-1.2-2.5-2.3s.9-4.1-1.2-5.7-2.8-.3-4-1.1-.3-2.4-1.6-3.1-3.4-.4-4.8-1.3-1.8-4.4-2.8-5.3-6.4-1.4-7-4.4h138.6c1.1,0,.9,8.1,1.2,8.4,1.6,1.4,2.1-3.7,6-2.7s0,1.6,1.3,3.1c3.7,4.4,4.7.8,5,.8,3.6-.2,3.9,1.8,4.1,1.8.4,0,2-1.7,2.5-1.7,1.4-.1,1.1,1.6,1.7,1.7,3,.3,3.9-4.6,8.4-3l5.9,7.1c3.8,2.3,2.4-.6,3.2-1.1s3.1-.4,3.2-.6c.3-.4-.2-2.6,0-3,.5-.6,1.9,1.3,2.7,1.2s1.5-3.8,3.6-4.2.2,1.1.5,1.2,1.5-.8,3-.5.9,1.7,1,1.7c.7.3.7-4.2,5.4-1.5s-2.2,4.4,4.2,1.8,1-2.1,1.8-2.4,2.6.2,4.1-.1.7-1.3.8-1.4c1.4-.3,3.5,5,6.5-3.5s-.7-2.9-.5-3.1c.4-.4,4.7,0,5.7.7,1.7,1.2-.9,3,1.2,2.9.6-.5,0-3.6,1.2-3.6h51.9c-1.2,2.2.4,4-1.8,5.4,3.3-.9,2.3,1.5.9,1.8s-3.5-3.6-3.2,4.6c.3,9,5.2-1.7,6-2.9s1.7-.4,2.3-1.5c1.6-3-2.7-5.9,2.2-7.4,23.4.5,47.4-1.2,70.5.9-1.2,1.1-3.5,3-7.2,2.7l2.4-1.2c-4.9-.9-3.4,1.7-3.6,1.8-.4,0-6.7-2.8-8.4-1.8-.5,2.2,3.1.4,1.2,2.1-1.9,1.7-3.1.2-4.8.3.6.9,2.9,6,2.8,6.3,0,1-2.8,1.5-2.6,3s1.3,1.1,1.5,1.9c1.2,5.8-2.6,1.8-2.9,2s.4,1.6-.3,1.8-2.5-.4-3.6,0c-1.5.5-2.1,1.7-3.3,2.1s-2-.5-3.3.2c-3.6,1.7-1.4,6.3-6.2,7.6s-1.9-1.5-2.4-1,.7,2.2.6,2.4c-.6,1-1.8-1.5-3.6-.9-5.9,2.2-2.7,4.8-3,5.1s-4.7,2.1-5.4,1.2.7-1.7.6-1.8c-4.3-4.1-5.3,1.4-5.5,1.6-.9.8-3.3.5-4.1,2.8.9,1,2.9-1.6,3.6-.9,3.5,3.6-9.8,1.1-10.4,1.1-1,.2-1.2,5-4-1.2-1.5,2.4.7,3.3.6,3.9-.2,1.2-3.5,5.7-2.7,5.7,3.7.3,6.6-6,7.2-6,1.9,0-.5,3.2,0,4.2s5.3,3.7,6.3,4.5c-1.5,0-6.2,1-6.6,3.3.7.3,3.5-1.3,3.6-1.2,1,1-2.4,3.6-1.8,4.2s1.6,0,2.1.6c.8.9.8,2,1.8,3s3.1,0,3.8,3.3c.7,3.3-1.2.2-1.2.3,0,1.1.8,1.7.2,3.4s-4,2.7-.5,2.5,6.5-7.8,11.4-8.3c8.4-.9.9,4,.9,4.5,0,4.9,12.3.6,9.6-6s-5.4-1.9-6.1-2.7c-1-1.2,1.2-2,1.2-2.1,0-.8-2.5-3.3-1.8-4.5s6.1.9,6.3,1.1c1.3,1,1.2,4.1,2,5.1s4.5,2.4,5.1,3.4c2.6,4-3.8,5.6-6.3,7.5s.2,1.9-.5,2.4-5.4,2.2-5.7,2.1c-.8-.2-.7-2.8-.9-3-.5-.4-5.5,1.7-6.6,1.2.4,1.7-3.3,14.1.9,13.8s8.3-11.6,9.7-7.8-1.4,4,1.4,2.1,1.1-2.6,1.2-2.7c.3-.3,1.5.8,1.8.6s-.3-6.5,2.4-6.6c-1.6,1.4,1.3,4.2,1.2,4.5-.2.6-6.9,10.2-7.5,10.6-1.4.9-3.4-.8-5.1.5,1.3-2.8.8-4.7,3.6-6.6-1.1-.2-6.4,2.7-6.6,3-1.6,2.6,3.4,5,3.6,5.4s-1.3,1.2-1.1,2,1.7,2,1.7,3.1c0,1.7-2.4,3.9-2.4,5s6.4,3.2,6.5,7.5-1.5,4.5-2.6,5.2c-2.2,1.2-4.1-1.2-4.5.8,2,.2,2.7,5.5,3,5.7,1.5.6,6-.4,8,0s2.5,4.3,6.3,2.7,2.8-3.5,2.4-4-2,.3-3.1-.9c-1.6-1.8-3.6-7.7-.6-9.1,4.9-2.2,3.5,2.6,3.7,2.9.7,1.4,4,2.9,4,6s-1.6,6-1.8,6.2-5,2-2.8,4.9,15.8-7.9,16.5-9.6c1.3-3-7.4-3.4,0-7.2l8.1,4.2,13-43.6c.8-2.2,4.7-3,4.9-3.3.3-.3.3-2.2,1.6-3.5s6.6-2.9,4.5-7.1-3.7-.8-2.9-2.8,3.4,0,2.9-2.1c-7.7.8-3.2-1.5-3.6-1.8s-2.7.2-3,0c-.7-.6,3.3-4,2.4-4.8s-18.5,1.3-13.8-3c.6-.6,14.7-2,7.2-10.3s-9.8,1.6-11.7,1.9-4.5-1.5-6.4-2-3.9.3-4.1.2c-.4-.2-3.5-6.7-3.6-7.5s2.9-4.8.6-4.8c2.9-5.4,4.3,1.1,5.4,1.8,1.9,1.3,8.7-2,11.3-2.6s3.1.7,3.9.5,3.4-3.5,4.6-2.4-.9,1.5-.6,1.8,2.5-1.8,3-1.2c.5.6-.7,1.8-.6,2,1.7,3.2,4.1.3,5,.4s5.8,4.6,7.6,2.9c.3,1.5-3.1,1.8-3,3.3s4.8-2.4,5.2-2.6c3.6-1,5.3.4,6.5.4s1.4-3,3.9-3.3c-2,.5-8.1.4-9-1.5s3.7-14.6,6.2-8.8-.3,2.5-.2,2.8,1.4,0,1.8.3c.7.7.3,1.6,1,2.1s1.9-.3,2.3,0-.4,1.2-.3,1.2c4,1.1,1.4-4.5,2.8-5.3,2.6-1.5,1.4,1.4,2.3,1.7,2.4.6,10.3-.9,12.9-1.8.3,2.2-3.3,1.7-4.2,2.5s.8,1.3,0,2-3.6,1.1-4.7,2.3-.5,3.2-.8,3.4-3.3-.6-3.6,0c-.7,1.3,1.7,1.6,1.7,2.1.2,2.2-1.3,5.1-3.2,6.3l-20.1,11.4c2.6,1,10.1-4.4,11.4-3.3s-.2,4.9,0,5.1c.6,1.2,4.6,0,4.8,0s-.7,1.2-.6,1.4c2.4,4.1-.6,1.4-4.8,2.2,4.8,2.3,4.9,3.7,1.2,7.2,5.4-2.4,2.7,3.7,3.6,4.2s5.9-2.1,7.8-.6-3.2,5.2-3,5.4c.5.4,2.4-.7,3.3-.6s1.6,1.1,3,1.2,3.6-1.3,4.8-1.1,2.9,3.3,4,2.3-3.4-4-2.4-5.4,1.7.2,1.8,0c.4-1-.5-2.7-.3-3.3,1.1-2.8,2.9-2.4,4.6-4.1s3.3-2.7,3.4-2.9c1.6-2.2.9-6.1,1.9-7.4s14.2-6.2,15.8-6.2c7.2,0,16.4,10.9,17.1,10.1s.8-5.4,1.7-7c3-5.7,12.1-11.7,18.1-13.4.5-2.2-2-.8-2.4-1.2s1.4-1.8,1.1-3.2-3.2-2.5-3.6-3.3c-.7-1.7,2.7-6.7,1.2-7.9s-5.5,1.1-7.2.9-5.6-2.4-6.2-2.7.3-1.4-1-2.2-1.9.3-2.4,0,.2-1.5-.9-2.1c-2.1-1-3.3,3.6-3.3-.7-5,6-14.2-3.1-3.4-.5.9.2.9,2.2,1.6,1.7s0-2.1,1-2.4,6.5,0,6.8,0,0,1.7,0,1.8c.3.2,1.1-1.1,1.6-1.1.9,0,2.3.6,2.6.5s.5-2.4.6-2.4h17.4c-.6,1.5-7.1,6.5-7.3,7-1.1,3.1,1.7,1.9,1.8,2,.3.3-1,2.3,2.7,2.4s6.8-2.9,6.9-3.3c.3-1.1-2.2-1.9-2.3-3.5s1.9-4.6,3.2-4.6h13.5c-3.2,4.1-7,5.9-12,7.2,7.9,6.9,2.8,4.2,2,7.1s3.6,1.4,2.2,3-2.1.2-2.7,1.2c-2.6,4.2,2.3,3.5,2.6,3.7.4.4.3,1.9,1.3,2.6s6.1,1.8,6.6,3.6-2.3.9-1.2,2.1,1.6,0,2.1.6-.5,1.6.2,2.1c2.3,1.8,8.9,3,11.9,3.7s1.8,2.7,4.3.8-1.8-1.2-1.2-1.8,3.3-1.2,4.5-2.4,0-3.3,2.1-3M752.8,35.5c-2.7-.8-2.5-1.4-6.1-1.4s-22.6,3.7-21.2,9.8c1.1,4.7,6.4,2.2,8,2.2,4.9,0,12.3,0,16.7-2.5s6.5-7.8,4.3-8.2-1.1,1.2-1.2,1.2c-.5-.2-.2-.9-.5-1h0ZM616.1,43.8c-5.2.3-2.9,8.4-6.5,11.3,1.3-1.4,4.5-.5,4.7-.6.3-.2,1.6-3.9,2.9-4.7s4.4.3,4.4-.9-5.5-2.7-5.5-5h0ZM831.6,54.4c-.4-.4,1.7-4.7,0-5.4.8,4-2.1,4.6-4.1,6.7s.5,1,.5,1.1c-.2.2-2.2-.2-2.4,0s1,2,.6,2.4-1.8-.9-2.4-.6-1.1,3.7-5.4,4.5-1.8-1.3-3-.9c1.3,2-2.2,4.9-1.5,6s5.7,1.8,6,1.8c1.5-.2.2-2.3.3-2.4.5-.3,3.8.3,4.2,0s-2.6-5.2,0-7.2,1.3,1.4,1.8,1.2.2-1.6.9-1.8c4.2-1.5,2.2,1.2,3,1.2,1.5,0,1.4-3.9,1.6-4.1.3-.3,2.1-.2,2.5-.6,3.6-3.8-2.3-1.5-2.6-1.9h0ZM629,106.4c-1.1-1.4-2.8-3.4-5-2.2s1.3,2,1.3,2.7c0,1.6-4,5.8-1.3,7.2s.3-2,2.4-3,7.4,1,2.6-4.7ZM899.4,149.2c.4-.5-.3-3.6.2-4.9s6.8-10.6,2.6-11.8-3.9,8.5-4.1,9c-.4,1.2-5,7-3.4,8.4s4.6-.4,4.8-.6h0ZM887.8,152c3.1-6-8.5-7.6-9.9-3.6-1.8,5.3,7.5,8.3,9.9,3.6ZM853.2,215.2c-2.5,2.8-27.7,10.3-16.2,11.4-5.5.1.3,7.4,3,5.7s1.9-6.2,5.4-5.1c-4.1-5.5,12.8-5.8,7.8-12h0ZM827.4,237.9c0-.1-3.5-.1-3.6,0-.4.4-.6,11.1,3.8,8.3s1-4.1,0-5.7,0-2.4,0-2.6h-.1ZM786.4,296.8c3.7-1.9,3,.9,4.1.5,1.7-.6,2.4-5.2,2.1-5.4s-6.2,1.9-6-.3,4-1.3,5.2-2,9.2-5.9,9.6-6.3c2-1.9,3.4-4.8,1.8-7.4s-2.1.6-2.8,1.4c-2.1,2.3-4.4,2.4-5.5,5.6-2.2.5-.8-2-1.2-2.4s-6.3-.2-6.6,0,1.6,1.8-1.8,3c14.4,2.4-3.6,5.5-4.2,7.5s1.4,2.2,1.2,3.6"/>
    <path class="st1" d="M390.3,1003.7l.5-11.3c-.7-1.3-3-4.6-4.5-3.4-3.4,2.6-3.1,9.7-3.8,11.7s-5,7.3-5.3,7.7c-.6.7-4.8,2.8-6.3,4.5s.7,1.5.5,1.7c-1.2,1.3-7,3.8-8.3,7.6s3.3,5.2-3.2,2.6c-.6,2,1.6.3,1.8,1.5.9,7.2-4.9,7.1-5.7,8.7s.1,10.7-8.3,7.1-1.1-4.5-2.8-3.5-.6,2.6-1.4,3.4c-1.4,1.5-5.6,4.4-6.7,5.6s.1,2.7-.3,3-5.5,0-1.8,1.8,3.3-1.3,3.6-1.2,0,1.6.6,2.1c4.7,4.2,6.8,4,1.2,9.2s-1.6-.7-1.7-.6c-.3.2,0,5.6-4.6,2.4-2.2-1.5-.2-5.7-4.2-2.5-1.9.3,0-1.5-.3-1.8-8.4-5.4-24,19.2-38.7,16.1-2.3-.5-3.9-3.3-5.4-2.9-3.8,1.1,1.2,5,2,6.6H0v-155.9c1.7-.5,4.8-3,6.4-3s3.2,3.2,5.8,1.3,2.9-8.8,4.8-11.3c3.6-4.7,11.1-4.9,11.7-11.9s-1.4-2.5-1.8-3.6c-1.4-3.9,2.4-4.5,3.1-5.5s.4-3.1.6-3.2c.4-.4,6.1,3.7,6.1-5.6,4.1-.8,3.6-11.4,4.1-11.8s3.1.9,4.5.6c2.2-.4,2-2.4,2.1-2.4.3,0,2,1,5.3-.4s4.5-6.7,10.8-6.3l-1.2-1.2c1.6-1.7,9-2.4,9.6-2.7,1.4-.8,2.8-6.5,3.2-6.8,1.3-1,4.4-.6,4.7-2.6,3.8,4.6,5.6-2,6.1-2.3s2.6-.2,3.3-.8,1.2-3.1,2.2-3.8c2.9-2.2,5.8-.2,6.1-.3,1.1-.2,1.7-5.5,6-6.3s2.7,2.6,5.1-1.1-.2-5.1,0-5.6c1.1-1.8,5.7-1.4,7.6-7.8s-4.1-4,0-4.9l-.3,1.2c6.1-1.9-2.9-8.4.6-12.6s5.2,1.3,3.3-1.8-4.7,1.4-4.2-1.5,1.1-.2,1.3-.7-.8-1.8-.6-2,1.5.5,2.2.2c1.3-.7,1-5.1.8-5.6s-2,0-2.7-1.2-.4-4.6-.3-4.8,4-2,4.1-1.9c1.4,1.4-2.8,2.3-1.7,4.1s4.3,2.4,5.3,1.2c1.9-2.3-2.9-6.5-2.9-8.7s3.5-1.6,3.6-3-5.4-8.1-5.7-9.2c-.6-2.3,1.7-5.3,1.5-5.5s-1.7.2-1.8,0c-1.3-3,1.2-4.3,1.2-6.2s-3.1-5-3.2-5.3c-1.2-4.3,1.7-4.2,2-5.1,1.4-4.6-6-22.5-7.7-28.2s.5-4,.2-5.6c-.7-2.9-5-7.7-5.9-12.7s.9-7.3.7-7.6-1.5.2-1.8-.4c-.5-.9-2-5.3-2.4-5.6-1.3-1-1.9,1.2-2,1.2-.6,0-8.1-7.9-9-9.1-1.4-1.8-3-7.2-4.1-8.8s-4.5-1.7-5-5,3.9-2.5,2.1-4.2c-2.9-2.7-5.4,1.8-5.7,1.8-2.8,0,2.2-4.2,1.5-4.8s-2.9.3-4.2-.3c-2-.9-1.6-4.3-1.8-4.5-.3-.3-1.2,1.1-1.6,1.1-3.8-.6-6.9-5.2-9.9-7.3-7.6-5.2-15.7-9.3-21.4-17.1s.3-2.3,0-3M803.2,275.9c-2.3-3.7-2.1.6-2.8,1.4-2.1,2.3-4.4,2.4-5.5,5.6-2.2.5-.8-2-1.2-2.4s-6.3-.2-6.6,0,1.6,1.8-1.8,3c14.4,2.4-3.6,5.5-4.2,7.5s1.4,2.2,1.2,3.6-3.7,3.5-3.9,4.5.7,4.4.9,4.5c.9.5,8.7-1.8,7-3.9s-4.5-.5,0-2.9,3,.9,4.1.5c1.7-.6,2.4-5.2,2.1-5.4s-6.2,1.9-6-.3,4-1.3,5.2-2,9.2-5.9,9.6-6.3c2-1.9,3.4-4.8,1.8-7.4h.1ZM696.8,349.3c-1.5-1.3-1.7-7.2-3.8-4s1.8,3,.6,3.6-4.2-3.6-4.8-.9,2.9,1.4,3,1.5-.9,3,0,3.6,8.6-.3,9-.6c2.1-1.6-3.8-3-4-3.2ZM660.6,356.1c-1.1-1.5-4.2,4.9-5.2,5.4s-3.1-1.7-4.7.5,1.4,1,1.5,1.2c3.1,5.7-11.5-1.3-12.2-1.1s-4.6,4.7-4.5,5c.2,1.2,7.8,1.7,9.2,2.1s.2,1.7.4,1.8,4-.4,4.2-.6-.3-2.3.9-3,1.1,2.4,1.8,2.4,1.9-2.4,2.5-3,2.2-.3,2.9-1.2,3.6-9.2,3.3-9.6h-.1ZM483.1,834.5c-.4.8,0,2.2-.4,3.2s-2.3-1.7-2.7.3,1.5.3,1.8,1.3c1.3,4.4,1.3,5.5-2.4,2.6.2.9-1.5,5.4-1.9,5.9s-1.6,0-1.7,0c-1,1.2,1.2,2,1.2,2.1s-1.6,1-1.1,2,4,3.7,4.1,4c.5,1.3-1.2.8-1.2.9,0,.7,2.1,1,0,4.5s-1.9.7-2.2,1.1c-.7.9-1.7,4.1-2.9,4.6-2.7,1-.8-2.2-.9-2.4-1.5-2.2-2.2,2.9-2.4,3s-2.6-2.4-3.6.9,1.9.7,1.2,1.8-2.2.8-2.3,1,.6,2.4-.7,3.3c-2.2,1.5-4.6-3.2-4.2,6.3-1.1,0-.4-3.5-1.8-3s-7,10.8-8.7,12.6c-2.6,2.9-8.5,7-11.4,10.2s0,2.8-.3,3-1.9-.3-2.3,0c-4.1,4.3-7,3.9-12.1,8-1.1.9-1.1,3.1-1.3,3.2-.6.4-2.8-.3-3.5.4-2.8,2.6-13.7,15-15.1,17.9s-1.9,5.2-2.3,6.8,2.3,3.3-.6,5-.4-1.7-.6-1.8-2.3,1.3-2.4,1.6c-.9,3.2,1.9,1.5,2.4,2"/>
  </g>
</svg>