<?xml version="1.0" encoding="UTF-8"?>
<svg xmlns="http://www.w3.org/2000/svg" xmlns:xlink="http://www.w3.org/1999/xlink" version="1.1" viewBox="0 0 1080 1080">
  <!-- Generator: Adobe Illustrator 29.8.3, SVG Export Plug-In . SVG Version: 2.1.1 Build 3)  -->
  <defs>
    <style>
      .st0, .st1 {
        fill: none;
        stroke: #00ee19;
      }

      .st0, .st1, .st2 {
        stroke-miterlimit: 10;
      }

      .st0, .st2 {
        stroke-width: 4px;
      }

      .st1 {
        stroke-width: 8px;
      }

      .st2 {
        fill: #fcee21;
        stroke: #cc0026;
      }
    </style>
  </defs>
  <g id="Layer_2">
    <image width="1800" height="1800" transform="scale(.6)" xlink:href="../images/straits/hormuz.jpg"/>
  </g>
  <g id="Layer_1">
    <g id="hormuz">
      <path class="st2" d="M71.3,1032.4c-3.4,12.5,0-2.6,19.6,8,17.8-.3,13.4-9.7,28-6,4.3,5.4,3.1-6.5,7.9.6,1.2-8,7.6-9.9,14.1-11.7,8.5-18.7,58.9-7.1,95.9-34.7,28.6,9.9,44.1-35.6,75.3-28.5,135.3-45.4,27.3-58.5,156.7-79.2,33.4,10.6,21.1-17.4,30.8-23,4.3-16.8,31.8-1.7,38.6-13.9,19.6-59,60.5-6.2,45.2-53.4-.5-10,6.7-22.7,8.8-30.6,19.5-16.6-.5,3.8,18.2,1.5,4.4-19.2,73.7-73.2,38.9-80.3-43-62.3-136.2-33.3-111.9-130.9,3.6,2.7,1.5-1.7-1.2-1.5,3.4-2.2,2.9-3.3-.9-4.5-1,0-1.8,5.1-2.7,5.7-9.9-.2-6.8,14.4-18.2,18.4-20.4,12.8-57.3,59.3-72,50.4-6.4,3.2-8.2,6.8.3,7.8-15.8,0-31.8-2.7-43.5-4.2-4.1,7.1-6.1-1.1-5.8,5.4-11.4,4.1-25.6,5.9-23.4-7.8-4.5,2.3-7.4-9.5-7.2.5-10.8-3-14-2.6-2.4-11.1-5.9-2.1,1.8-17.2,6-12.3-1.8-3.3-1.6-11.5-2.4-14.4-.3,1.1-5.5-1.4-.6-.6-.2-1.1-3.4-2.9,0-3-10.1-3.6,10.4-18.8-6-20.1-14-26.6-15.9,20.9-24.6,7.5-4.8,6.7,11.8,55.6-4.3,26.8-3-15.2-20.9-27.7-21.1-41.8,6.9,16.7,9.5-19.1,3.9-9.5-1.2-2.8-6.6,0-.5-5.6,1-11.7-23.6-9.3-18.1-23.8-5.6,3.9-3-1.7,2.4-1.8-6.6-1.8-9.4-2.8-9.6,4.8-8.2-22-13.6-5.3-23.7-27.6-4.5-6.7-13.7-22.8-17.1-33.6-10.8-5.9-1.4-23.1-19.2-18,4.3-6.1,4.6-.8,10.8-3.9,16,20.2,12.7-4.1,18.1-11.6,4.5.8,7.3,2.6,7.8-3.6,4.9-2.4,5.5,3.2,9.2,4,5.8-7.6,16-3.7,24.5-2.3,4.5-8.9,11.4-20.2,13.7-1.3,28.1,18.4,27.8,64.8,55.4,80.6,1.7-15,27.9.9,36.9,7.8-8,7.4,21.3,14.4,28.5,17.5,3.7,17,26.4,1.9,34,13.5,5.7-.3,8.3,4.5,14.1,3.6,14.9-11.3,13.2,12.4,27.9-1.2-1.2-1.9-3.6-2.7.6-3.1,3.6-.5,10.5-6.5,11.4-2.6-5.9,7.5,11.5-8.9,13.5-8.9,2-4.5-13.6-4.1-4.6-7.5,11.4-3.9,7.4,3.2,12.7,3.9,1.7-13.4,27.9,11.1,18.7,20.9-1,5.5,8.3,10.9,4.7,16.3,5-.6,4.3,6.9,5.8,7.9,2.9,3.6,18-1.3,16.4,5.4l6.2-2.3c7.5,11.5,24.6-.6,34.8,6.6,11.2,7.7,38,1.5,50.9,6.9,8.8,2.2,2.4,1.1,6-3.6,5-2.3,3.6,4.5,5.5,5.3,10.6-2,25.5,13.7,31.7,4.1,8.9-3.4,7.6,11.7,13.5,2.3,1.2-.4,10.5,1.9,6.7-3.2,2.5-2,11.7-.3,6.7,3.2,8-7.2,28.2-5.3,44-3.6,2.7-14.6,29,3,38.4-2.3,4.6,2.1-3.2,5.4,5.2,2.9-6.2-8.4,17.3-2.6,19-4.8,15.6-3.2,64.2-14.3,51.3,17.1,30.7-3.2,14.7,38.1,51.6,44.2-3.8,5.6,11.6,8.4,15,7.9-6.6,5.3,29.7,20.8,7.2,12.9-10,.4.4,19.3,3.9,19.6-.3-3.3,12.2-9,9.5-4.3-11.2,4-3.8,5.3,3.4,4.3-25.4,4.8,51.4,78,75.2,61.7,24.1-17.1,1.1,332.3,8.8,334.3,1.5-6.3-751.6,10.2-729.5-4.9,7.7-10.1-11.7-9.3-16.6-12.5-28.6,34.3-270.6,14-297,13.8,11.9-2.8,46.2-16.6,25.4-34.5M427.8,529.8c0-2.6-7-2-8.4-2.4,1.8,2.6,5.6,2.5,8.4,2.4ZM451,537.8c-.8-.7-3.4-.9-4.3-.2-1.8,4.2,8,3.3,4.3.2ZM327,541.2c-.8-7.2-8.5,1.5-2.4,3-.1-2.1-.2-3.6,2.4-3ZM330,552.6c4-10.8-7.4-2.2-10.2-1.8,1.3,4.2,4,8.7,5.4,16.8,4.4-.8,2.6-20.9,7.2-9.6l.6-1.8c7.4,4.6,1.4-4.2-3-3.6h0ZM417.1,610c2.9,1.2,2.6-4.6-.4-4-4.3,2.7-.5,1.9.4,4ZM427,609.1c-2.4,0-4.2,2.2-1.6,3.8,5,3.1,3.7-3.9,1.6-3.8ZM432,619.2c-2.5-11.8-11.1,7.3-14.7-3-4.8,7.3,12.1,2.1,14.7,3ZM400,616.3c-2.2,1.4-2.3,2.8-.6,4.7,2.1,0,3-4.1.6-4.7ZM435,624c.7-3-6.2-2.9-7.8-3.6-.9,4,5.7,3,7.8,3.6ZM627,748.8c-3.9.6-18.5,27.4-5.2,15.6,2.1-6.9,7.8-7.6,5.2-15.6ZM445.3,1038.7c-3.7,4.2-16.2-9.7-17.5,3.2.9,23.1,70.2-6.2,17.5-3.2ZM391.8,1054.8c-4.3.8-7.4-1.3-11.4-1.8.3,2.5,12.1,6,11.4,1.8Z"/>
      <polyline class="st1" points="1080 746.4 1080 1080 42.6 1080"/>
      <path class="st0" d="M364.5,595.2c5.3,5.9-.6-10.4.3-12.6-.1,0-2.1,1.2-3-.9,3.2.4,1.9,0,.6-2.1-4.1-8.3,4.5-9.1,1.7-19.1l-5.9-1.6c-12.1-26.9-19.3,22.6-22.8,7.5-8.6,6,4.4,29.2.3,36.4-7.9-16.9-24.4-35.2-27.5-51.4,6.5,13,7.7-7.5,6.3-12-4.2,1.1,1.9,3-5.3,1.1,11.1-15.5-21.5-11.8-15.7-28.1-3.7,3.5-5.1-.9,2.4-1.8-7.3-2.3-9-2.4-9.6,4.8-2.4-8.2-8.8-16-18.5-15.7-4.2-3.1,2.1-9-5.2-11.9,2.7-3.3-4.8-1.9-5.3-5.6-1.3-15.6-17.8-25.6-19-45.4-3.9-1.8-17.3.8-7.5-4.2,1.1,3.5,5.4-1.7,7.3.2,2,8.3,16.5,10.7,11.6.1,4.6-1.3-3.6-8.3,3.6-3.9-1-13.3,8.3-2.7,9.7-11.9,5.1-2.2,5.3,3.1,9.2,4,17.9-13.3,20.4,8.6,32.4-13.7,23.5,24.4,36.4,58.5,55,89.9,17.6-4.8,10.3-9.4,36.7,3.2"/>
    </g>
  </g>
</svg>