<?xml version="1.0" encoding="UTF-8"?>
<svg xmlns="http://www.w3.org/2000/svg" xmlns:xlink="http://www.w3.org/1999/xlink" version="1.1" viewBox="0 0 1080 1080">
  <!-- Generator: Adobe Illustrator 29.8.3, SVG Export Plug-In . SVG Version: 2.1.1 Build 3)  -->
  <defs>
    <style>
      .st0 {
        fill: #fcee21;
        stroke: #cc0026;
        stroke-width: 2px;
      }

      .st0, .st1 {
        stroke-miterlimit: 10;
      }

      .st1 {
        fill: none;
        stroke: #00ee19;
        stroke-width: 4px;
      }
    </style>
  </defs>
  <g id="Layer_2">
    <image width="1800" height="1800" transform="scale(.6)" xlink:href="../images/straits/taiwan.jpg"/>
  </g>
  <g id="Layer_1">
    <g id="taiwan">
      <path id="area" class="st0" d="M594.3,0c-4,3.8.5.8,1.5,1.8.9.8,1.3,7.4,1.6,7.6,2.8.2,31-4.5,21.5-9.4-.5,7.9,142.9-13.5,117,8.6.5,1.4,5.2-.5,7.9.4,6.6,2.3-3.3,1.7-4.6,4.8.3-4-2.1-2.4-2.7,1,2.9,3-2.7,6.4-3.9,8.6,2.7,5.1-4,6.2-7.4,8.1,4.4,1.3,9.1,2.8,12.8,2.1,2.8,2.7-1,2.7-1.2,3.1-2,4.5,4.5,1.9,5.8,4.2-.9,6.9,9.1,8.5,14.7,3.7,5.7,2.3,11.6-13.3,7.2-.3-5.3,2,0,.9-4.3,5.5-4.7,1.5-6.3,1-9.8,4.5-9.5-1.6-7,9.3-1.5,4.6,6.1,4.5,14.9-3.6,18,5.2,5.2-5.4,13.9-5.2,18.6-8.4.5.3-3,5.8,5.1,3.2.3-4.5,7.5.9,9.6,1.6.9,2-12.1-.4-11.4,2.7,3.2,2.6,11.5,2.9,11.4,8.7-3.2-.3-15.8-5.3-15.6,3-7.2,0-9.7,11.2,0,9,1.9,6.5-.5,14.8,7.5,10.8,3.5,8.1-3.7,7,3.9,9.9.8,2.1-4.3-.1-.6,3.3-6.4.2,1,3.9-1.8,7.2-2.5.4-.4-2.2-.6-2.4-3.7,1-5.5,1.1-1.2,3.6-5.4.9-1.6,3.9-1.8,5.1,0,.4-5.8,4.3-6,6.6-19.7-1.5-22.3,11.7-23.4,23.5-6,13.4,5.5,1,3.6,10.4-.8.8-8.8-1.4-6,1.8,4.2-1.1,5.8,3.1,0,2.4,1.1,9.2,5.9-5.7,7.9,4.7.6.4,2.6-.2,2.9,0-2.2,4.1,8.5-.8,11.1,1.8,6-6.6,9.9,2.5,15,3.6,7,0,3.6-4.6,3.9-4.8,2.5-2.4,1.8,2.3,2.7,2.4,1.3.1,1-2.9,1.5-3.3.9-.7,4.9.8,4.2-3.3,2.2-.5.8,2,1.2,2.4.2,1.3,16.8-1.9,6.6,2.4,3.2,3.5,5.8-2.1,6.3-2.3,1.2.8,3.7.5,4.3-1.3,3.2-.6,2.8.8,3.7-2.1.4-.3,5.3-.4,1.8-3.6s-1.8,2.3-2.1-.8c-.8-6.9,10.1.4,10.5,3.6-.3-8.3,0-6.3-1.8-13.2,1.7-2.5,2.8,1.4,3,1.5,15.7,4.5.8-6.9,15-6.9.5.6-2.8,2,4.2,1.8.7,2.2-2.6-.2-2.4,1.5.1,1.7,4,1.4,2.4,3.3.4.3,1.9-.8,2.4-.6-1.7,3,11.1,2.3,8.4-1.2,4.5,2.1,1.8-7.4,1.8-9-3.1-3.4-5.9,8.4-7.8,1.8-.6,6.3-5.7.7,0-1.5,0-.1-2.4-.8-.9-2.1,2.7-2.4,1.1,2.7,5.4,1.3.8-.3-.9-3.5,5.6.1,11.3,13.5,37.7-42.2,24.4-35-6.2-9.1,3-20.6-1.4-30.9C888,46.5,865.7,19.6,841.9,0,841.9,0,1080,0,1080,0c0,0,0,120,0,120-26.6,13.5-41.6-3.4-66.6,8.1-1.6,11.2-40.8,30.5-49.5,38-2.9-.7-3.2-3.4-3.6,0-.7,0-7.8-3.4-8.1-.9,5.2,1.9-2.7,1.7-3.6,1.5.3,2.9,4.9,6.9.2,9.3,7.2,9-16.4,4.4-17,15-1.2.5-5.4-1.2-3.3,1.3.5.6,6.9-.6,3.3,1.1-15.7-3.7-4.9,5.3-15,5.1,1.3-6.4-7.2.3-9,2.7,3.8-2.2,3.9,1.3,3.6,1.5-1.2.6-8-1.2-9.8-1.1-1.9.2-2.1,4.7-4.6-1.3,1.7,7.2-6.2,12.6,1.6,8,1-.6,3.1-4.4,3.5-4.4,3.8.3-4,6.1,2.6,4.9,2.3,1.9.3,3.8,4.3,2.3,0,0-7.2,3.9-7.2,3.9.1,2.4,3-1.1,3.6-.3-5.3,6.8,12.2,9,3,16.8,5.3-3.3,21.5-13.8,14.4-3.8-1.3,6.8,14.2-1.1,8-7-2.3-2.2-5.2.1-6.3-.6,3.1-1.7-1.5-7.8,3.6-8.1,11.8,13,14.2,8.8,3.7,20.4-8.5,5.1-5-3-13.2.3-3.9,27.9,6.7-1.6,11.7,8.4,1.2-1.3.3-4.2,3.3-2.4.5-.3-.5-9.6,4.8-7.8-3.7,2.3-.6,4.8-.6,5.1-.9,3.9-14.8,19.7-12.3,7.5-8.4-.1-.1,7.2.3,11.1-7.4,6.9,11.2,9.7,1.5,17.8-9,.2-1.4,1.2-1.5,6.5,11.8-1,20.6,10.4,11.5-8.5,5-7.5,6.8,1.7,9.3,6.4.1,3.3-6.5,10.5-4.3,11.2,4.4-4.5,21.4-6.7,13.1-14.1,5.5-8.3,11.9,9.9,13.6-6.6,3.7-18.1,8-31,17-42.6,1.3-1.4,6.2-1.2,4.5-5.8-.2-.7-3.6-2.5-2.9-4.3.4-1,3.5.9,3-1.5-8.9.7-.8-2.5-6.6-1.8,7.9-9.8-7.6-2.3-11.4-5.2-2.1-4.3,8.2-1.1,8.5-8.3-.4-8.4-8.3-7.8-12.9-2.7-13.5-.2-15.3-6.7-12-16.2,4.4,6,9.4,3.5,15.6.8.6.6,10.5-3.7,7.5.4.3.1,2.4-1.8,3-1.2-.4,4.3,7.5,3.3,12,5.4-6.2,6.9-.8,1.7,2.3.8,19.5-3.7-4.6,2.3,2.8-12.8,5.1-1.4.8-5.8,6.9-4.8-6.2,8.7,5.1,14.7,5.2,5.5,5,2.2,9.4,1.6,15.2,0-1.9,3.3-5.3,4.6-8.8,6.8-.5,4.1-.8,3.1-4.4,3.5,8.4,8.6-18.1,16-20.4,18.9,0,2.8,9.5-4.5,11.4-2.7-.4,5.3-2.2,6.9,3.6,5.4-.4,4.8,2.6,5.1-4.2,3.6,3.2,2.1,3.6,3.9.6,6.6,7.8-2.6-1.2,9.1,5.1,3.5,13.8.4-3.7,7.4,6,5.5,8.1-.3,14.9,4.1,9.3-.9,5.8-17.2,28-37.2,43.8-15.9.8-.6,5.1-16.8,11.4-15.6,0,0,0,888.5,0,888.5-18.7-10.7-319.3,17.7-307.6-13.8,2.8-7.4-12-5.4-12-11.4,2.7,4,2-2.6,1.2-3.3-1.1-1-.2,2.6-2.4,2.1-16.6-14,2.1,21.3-3,26.4.5-17.2-341.5,30-246.1-19.7,1.2-2.3,5.7-4.2,2.6-6,0-.1,1.6.4,1.8-.3-5.1-14.2,16.5-3.9,18.9-19.5,11.2-2.2,12.3-11.7,17.9-6.1,13.9-2.3,2.5-12.6-.3-4.7-3.3,1-9.5-5.3-5.4-9.3-7.8.3-7-7.9,0-6.6,1.1-3.6-5.4-2.7-4.8-4.8s6.5,0,4.2-2.1c-4.1.6-1.7-.6-2.5-4.4-3.3-1.1-.4-1.8-2.6-4-2,0-2.1,10.1-5.7,7.2,2,2.2,2.8,3.1,2.4,6.6-5-5.3-2.3,4.3-6.6,3.6-2.2,4.2,7.1,8,3,9,3.8.2-6.7,16.1-6.6,7.8-2.1-.5-.7,2-1.8,2.8-5.2-1.5-1.5,4.3-4.8,6.6-2.4,23.9-43.6,37.4-100.2,44.7l-353.2-.6c-.8-9.4,9.5-10.9,15.2-17-.5-5.7.1-12.4,6.8-16,.7-1.7-2.4-4.7,3-5.4,0,0,4.1-10.1,4.1-10.1,9.7,1.5,13.4-7.9,22-8.6.7-5.5,5.9-3.3,9-3.9,1.8-4.2,5.1-11.8,10.5-7.6,2.6-3.2,2.8-4.3,6.7-4.9,2.4-1.8-.3-3.6,6.5-5.2,3.3,2.6,2.6-1.8,4.7-4,11-.6,7.3-2.9,9.4-10.4,4.8,2.9,7.8-6.1,4.8-9.2,11,.5-6.7-13.3,5.4-12.7-.3-5-6.2,3.6-3.6-5.7,9.6-.2-3.6-7.5.7-12.5.1-.1,3.4-.8,3.5-.7,1.3,1.4-2.2,2.2-1.8,3.3,10,6.6,3.3-3.7,2.4-7.1,8.4-2.5-.5-6-2-11.7-1.9-5.7,2.6-12.6-2.4-17.8,4.3-6.2-10.5-63.7-18.1-64.3-6.2-7.4-18.5-18.2-14.6-26-3.8-3.2-4.7,2.3-5.1,2.4-3.2.5,1.2-5.2.9-5.4-22.6-10.2-51.1-34.5-62.9-57.4,0-5.1,5.1-.4-.6-8.5-4.3-3.7-26.7-15.9-21.6-24.1-.9-4.9-14.4-8.3-3.9-13.2,0-4.7,5.1-5.5,2.3-10.4,2.2-4-.2-14.1,6.4-11.2.1,0-1.1-2.4.7-2.9,9.9.8,9.8-20.4,23.7-12.9,1.6-.7,2.9-12,4.3-13.1.2-.2,2,1.1,3.6-.3,1.9-1.7,1-4.8,1.2-5.1,1.8,1.2,6.6-1.7,6-4.2.5-.6,4.3,3.7,1.8-2.4,0,0,2.1,2.4,2.1,2.4,1.4-9.1,9.1,16.2,15.3-12.6,6,2.8,3-4.9,7.8-4.8.6-1.3-4-5.4,4.8-2.4-2.1.2,2.7-8.4,4.5-4.3,2.1-2.1,7.5-4.1,9.7-.5,5.1-3.6,25.1-2.6,15.3,7.6-5.2,4.2-12-2.4-.3,9.1,8.5,1.5,8.1-.5,6.8,8.5,6.7-6.1,7.9,17.8,2.5,17.5-7.1,22,9.9,4.3,7.8,12.8-.2,1.2-3.2,2.5-3.6,3.7-.9,2.6,2.3,5.4-2.5,5,0,0,1.2,1.2,1.2,1.2-16.1,8.2-43.5,6-31.2,31.6,9.9,12.3,21.2,20.4,39,17.1,1.6,5.2,3,.2,5.2,3.5,2.2-.4,5.7,2.3,5.2-.9,4-1.9,1.2,1.6,3.2,1,2.2-.6.2-5.5,2.1-6.9,13.8.4,7.4-.7,18.3-9.9,14.4-2.8,9.7-31.3,27.4-35.7-1.3-15.1-2.1-9.9-11.3-16.7,4.6-4.9-5.8-1.4-6.7-4.2,2.1-3.6,6,1.6,5.1-4.5,7.1,2.1,7-8.7.3-5.4-2.8-2.1,3.7-1,3-3-2.2,0-11.3-5.5-10.2-8.1,5.6.2,7.5-7,4.8-11.3.4-.1,6.2-8.4,4.2-4,4,3,.9-4.6,1.2-4.8,12.4-1.7,20.1-4.2,32.2-5.2,5.6-9,3.2-.1,7.5-1.5,12.4-11.8,16.9.4,31.6-1.1,1.1,5.4,3.1-2.6,2.6-4.2,1.3-2.1,3.6-2.2,1-3.2.9-2.5,3.9,0,6-.6s1.5-4.7,3.7-3c1.5,6.3,1.8,3.4,3.9.3.9,6.1,4.6-5.4,5.1.6,1.9.1,9.1-9.9,11.8-4.5,0,.2-2.9,3.8,1.9,2.4,6.2-1.8,1.1-6.7,3.9-7.5,2.4,3.2,2.3-1.2,3.6-3,.8.5,4.4,3.4,2.7-.6,2.2-2.1,2.1,2.1,3.3,2.4,4-3.2,5.9,3.7,7.2-5.4,1.3-1.8.6,1.9,1.8,0,3.8-5.9-3.1-7.9-2.7-9.3,4.1-3.8,4,2.6,6,.3-1.4,9.2,10.6.3,3-.3,1.1-3.5,4-2.5,4.2-2.7.3-9.4,3.6.4,1.8,3,9.7-2.7,3.4,5.8,9.4-3.4,7.1,2.5,21.2,4.7,23-2,.9-.6,3.1,4.7,4.8,3-2.8-8,8.7.3,15-3.3,1.7-11.3,18.8.3,16.2-11.1,4.5-7.9,45.4-17.1,52.1-35.7,4.7-.8,7.7-6.7,7.3-10.2.9-.7,8.7.6,8.4-3,10.5-3.6,11.3-8.2,17-14.5,4.8-3.5,16.9-3.1,11.2-12.8,3,.6,8.3,5,9.5,0,14-2.1,20.5-15.5,5.7-21.9,1.8-9.3,8.6-16.9,9.4-25.5,12.7.8,14.7-10.7,24.6-12.3,3.5-3.8-2.5-6-1.2-7.5,5.3,4.8,13-2.5,4.2-3.9,2.9-7.6,12.8-8,19.5-10.1,10.4-11.4,18.7-22,27.9-33.2,3-4.5-3.3-.4-3-3.5s4-1.4,4.2-1.5c-1.8-7.9-.5-2.4,4.2-8.1-5.6-10.2-1.3-17.4,6.1-22.9,3.5-.8,5.4-11.4,2.3-14.5,6,1.1.4-10.2,6.6-11.1,0-.3-3.6-2.1-1.5-5.7,3.9.8,9.7,5,6.4-2,7.5-5-4.5-4.3-5.3-10.6,12.2-11.1,6.7.9,8.2-17-3.2-1.2-3.8-7.9-2.4-10.5-7.9,6.4-10.2-15-2.4-10.8-1.2-2.3-2.5-4.2,1.9-5,5.6-7-3.1-2.6-4.5-2.9-17.3-5,11.1-7.2-5.8-13.7,1.9-2.9.1-2.6-1.2-5.7,2.8-1.2,5.8-1.9,1.2-4.8,5-9.7-1.5,1.6-8-1.5-.7-3.4-1.7-.4-4-.6,3.2-10.5,2.8-15.1,8.8-25.6-1.6-19.9-6.9-31.4-25.7-43.6-10,1.1-25.8-13.8-33.2-7.7-20.6-.2-6.4-7.7-18.1-7.6-4.6,3.3-38.8,3.8-29.6-2.1-3-5.1,4.9-1.1,4.3-8.9,5.8-1.5,2.6-10.8,8.3-11.2,0,0-1.2-1.2-1.2-1.2,10.3.3,9.4-12.7,22.8-14.4,1.7,2-4.6,4.4.5,3.8,4.1-.5,2.4-2.3,4.6-3.2,3,1.8,25.4-7.5,16.5-10.2,15.1-2.6-2-5.3,10.8-11.1,34.7-6.4,13-2.3,40.4,6.4,3.1-6.6,17.4-15,3.4-16.2,6.2.9,5.4-9.5,9.6-8.4-7.6-4.3,3.1-5.7,3.6-11.4.2-.2,5.2,1.5,5.4-.3.4-3.3-4.6-7.1-6-5.7-.8.8,2.7,4.7.3,4.2-4.1-1,.1-7.6-5.9-5.5-4.3-4.3-9.8,4.2-13,1.8-.3-.2.4-3.4-5.2-2.9,3.6,4.3-6.8-.5-9,4.2-6.5.2-9.2-6.9-12.6-1.2-3.5-3.1-2.1-3.8-7.5-4.2,1.7-1.5,0-6.4-.6-7.8,4.1,1.7,6.2-1.6.7-1.3-6-7.2-15.9-6.7-18.1-17.9-1.1-.8-9,2.3-9-3.4,9.5-7.4-12.1-22.3,13.7-18.8ZM774.6,65.3c-1.1-7.5-4.1,2.9-6.9.2-10.1,7.5,2.4,5.7,7.1,6.2,3.4-3.6-3.9-5.7-.2-6.4ZM894.3,170.6c2.6-1.5,2.4-2.9,1.5-5.9.3-1.2,7-8.4,3.3-9.9-4.9-2-12,15.5-4.4,13.1-9.6-.8-7.3,17.1-.4,2.6ZM809.5,198.6c.2-9.8-49.7,6.8-22.4,9.1,8.1.1,18.9-.4,22.4-9.1ZM878.5,229.2c-5.1-13.4-16.6,2.1-4.5,2.4.8-.2.6-3.8,4.5-2.4ZM948.7,311.4c6.1.5,5.8-7.9,8.3-13-.1-13.5-8.7,10.6-8.3,13ZM942,309.7c-1.3-2.3-9.1-2.5-10.1,0-3.4,9,14,7,10.1,0ZM907.3,376.8l-19.8,10.8c3.9-.5,4.4,2.5,5.2,3,4.8,3.1,2.4-.5,2.6-.6,2.6-.5,3.5-.8,3.5-3.9,3.1-3.3,12.5-4.3,8.5-9.3ZM881.5,399.6c-4.8-4.3-5.2,12.4.6,8.1,5-4.1-2.2-4.2-.6-8.1ZM857.4,437.5c-2.9-3.2-5.9,5.4-8.2,7-2.2.5-.8-2.1-1.2-2.4-1.3-.9-7.7-.3-7.2,3,11.9,3-4.7,5.2-5.4,7.5,4.9,4.9-13.1,17.4,5.4,10.5-.2-4.2-4.8-1.2.6-6.6,1.9-.2,2.3,4.1,4.2,1.5,5-7-4.7-2.2-4.8-4.8,4.2-3.2,20.2-7.6,16.6-15.7ZM616.4,492.7c-4.4-2.3-7,4.6-9.4,5.5s-4.8-1.9-5.5-1.4c0,4.2-3.8,2.1-6.6,5.8-7.8,18.4-24.1,21.7-29.7,41-3.1-14-.2-6.9-10.5-2.7,4.2,9.9,3.8,23.5,3.9,33.3,8.6,1,6.2,13.8,11.5,19.1,9.9,2.2,14.6,17,14,21.7,10.8,2.1,4.2-19.7,11.4-26.5,21.6-15.4,16.6-49.1,30.5-68.6-7-23.4,17.1-7.2-9.6-27.1ZM714.8,517.7c-3.3.6-3.5,6.9-9.3,5.4-3,2.1,1,1.3.9,2.7-.2,4.2-11-2.3-12.2-2-8.3,6.9.8,6.7,5.6,6.5-1.7,3.7,1.4,2.1,3.6,1.8-.4-7.8,6.8,6.6,11.4-14.4ZM589.4,732.6c-2.9-1.7-2.5,2.8-4.3,3.7-5.9-.2-7.8,1.1-5.4,7.2-4.2,11.4-12.8,25.5-5.3,33.8.6,15.5-10.6,29.2-1.5,44.6-10.5,14.1-14.5-9.9-16.8-10.2-6.9,1.4-7.3,13.1-6.8,18.2,1.3,2.7,3.1-3,5,2.8.4,12.6-.7,13.6,5,25.5,1.6,6.3-.3,22.6,8.1,11.6-2.2,9.4,16.6,25.6,11.8,5.2,2.1-4.8,16.8-.9,10.7,5,.3.2,7-1,2.1,3-.8-3.4-10.9,8.6-12.8,8.9.4,4.1,1.5,21.9,3,13.9,5.2-.4-.6-1.8,3.2-3.5,8.4,0,3.9,6.4,4.9,8.9.5.1,7.3-8.3,5.1,1.8,24.8,3.6,6.9-6.2,21.9-9.5,20.3-4.2,29.7,30.4,38.7,24.2.8-7.1-14-24.3-6-25.1,4.1.9,2.7,3.7,3,3.8.9.5,6.1,1.6,7.3,3.3.2,11.9,17,4.2,17,25.6,6.1-3.1,11,9.1,18.9,5.3-2.5,1.5,3,10.6,5.4,11.7,9.3,4.8,3.8-14.6,8.4-18.9-9.2,2.2-9.8-6.5-15.6.6-2.8-10.6,4.2-4.9,9.3-6,7.9-.7-18.6-11.5-6.9-3.9-.3,4.2-24.2-20.4-1.3-13,3.8-2.4,8.8-1.1,2.1-5.7-1.4-9.3.8-2.1-7.3-2,1.5-5.7-2.3-1.1-3.3-3.6-3.3,8-8.2-6.6-10.5-4.8s.8,1.6.6,1.8c-8.8.9,3.9,9.5-3.2,11.9-8.5.9-1.5-7.1-6.4-10.7,9.5,0-.7-2.2-1.1-2.5-4.4-9.8-22.3-11.5-25.6-1.1-.8-.6.9-6.5-3.1-2.2s2.4,4.7,2.8,7.3c.6,4-6.8-3.6-1.8,3.9-4.8-.9-19.2-5.6-16.9-12.1-7.9-15.8-1.6-23.4-13.6-39.1-.5-1.6,15.2-16.3,6.7-16.1-3.5-4.8,6.8-10.5,10.2-12,15.9-7,2.7,2.6,5.5,2.5,8.7-7.1,11.4-21,16.7-31.3,4.4-13-.3-6.8-2-8.3,2.1-14.1-13.5-4.5-8.9-34.4,7.6-3.6,7.7-16.1-1.8-16.8,3.2,22.8-30-2.4-36.8-2.7-3.8,1-7.8,4.2-8.3-.6ZM632.6,865.7c2.1-2.4-7.4-6.9-9.3-1.8l4.9,13.8c6.1-2.6.9-6.5,5-8.6-1.3.3-5.3-6.8-.6-3.3ZM712.4,901.1c-7.1-15.8-3.2,10.4-9.6,11.1,10.4,14.5,21.6-10,9.6-11.1ZM633.8,917.9c0,0,3-.4.9-1.8-28.1-1.7,5.4,25.3-.9,1.8ZM593.7,916.7c-5.2,5.2-22.1-3.9-24.6,3.3.3,5.1,4.8.8,5.1.9,2,5.1,1.7,6.7,8.1,9.3,5,12.3,5.6,15,10.8,26.2,9,3.8-3.5,8,4.1,8.3,3.6,5.7-.4-5,5.8,0,15.5-9.1,5-20,11.7-32.7-4.2-2.3-7.3-8.2-12.6-11.4-2-.7-9,2.3-8.4-3.9ZM667.9,930.6c-13.1-1.3,6.6,11.4,9.1,12.4.5-4.8-3.4-3.6-4-4.3-1-1.2-3.9-7.5-5.1-8.1ZM689,946.7c-5.1-1.8,3.8,13.1,6,13.2.5-3.5-2.9-12.1-6-13.2ZM717.6,947.5c-4.3-4.1-1.9,4.5-3.1,4.6-3-2.8-3-.2-2.1,2.6-.1.6-3.9,1.3,0,4-.2-7.6,2.2,3.4,3.9,6,8.8,6.8,11.4,8.2,18,16.2,5.3-1,3.7,7.7-.3,4.7.6,3.1-2.6,3.6-1.3.7-12.9-16.5,10.2,15.5-10.1,9.8-.2-.2-2.4-4.5-2.4-4.8,13.7-2.7-13.4-17.7-2.4-.6-11.7-9.8,2,14.8-2.4,20.1,10.3,6.2,4-11.8,14.6,4.3.3,14.3-6.4,21.7,9.3,28.7-3.9-23.1.7-3.7,9.6,3,.4-3.8-6.7-9.9-6.5-11.8s5.1,2.7,5.4-2.9c-2.8-3-16.2-40.3-4.2-33,2.3,7.8,12,4.9,18,4.5-.8,2,8.1,11.4,6.9,5.4-.4-.9-7.7-10-8.4-10.2s.4,2.9-2.1,1.8c6.8-9.3-2.8-6.7-3.6-14.4,5-4.9-3.9-11.6,2.2-16.5-4.7-4.8.6-1.8.7-5.4-2.3-4.8-12-2.7-6.6-7.5-3.3-6.1-9.7-4.9-9.6-9.6-3.6-2.4-3.3,3.4-3.6,3.6-3.8-.2-14.7,6.1-17.7-.6-.3,0-.6,4.9-3.3.6-1-1.6,4.5,0,1-3.4ZM636.2,947.9c-9.6.5-2.8,7.4-8.4,10.1,2.6,22.4,6.1-1.5,8.4-10.1ZM680,952.2c-5-2-6.1-3-4.7,3.2.3,3-3.2,9.3.5,9,0,.7-7.5,11.7-3,10.8,16.5-19.5,8.3-4.4,26.9,2.5,11.8,13.4,2.3-10.1-1.4-13.6-7.5-1.8-13.1-10.2-18.4-11.9ZM654.1,954.7c-2.2-1.6-9.4-1-8.8,1.9,3.5,5.3,13.8,7.8,8.8-1.9ZM555.7,960.1c-3-1.2-3.9,7.4-3.5,7.6,4.8-1.6,2-.8,5.1,3.6,2.9,3,8.2,1,8.6,1.2s-.8,5.8,1.8,5.4c-1.5-6.8,3.1-5.3,3.6-6-2.1-9.6-9.4-3.9-15.7-11.8ZM557.1,971.9c-10.4-2.8.4,8-.6,13.2,6.3-1.5,1.5-9.6,6.6-6,.5-1.9-4.3-3.2-4.2-3.9,2.2-.6,1.8-.8,0-2.1-3,2.3-2.2,2.7-1.8-1.2ZM627.8,971.9c-2.9-.1.1,1.9.6,3-2-2.2-3.9,5.7-3.6,6,22-2.4-5.4,42.4,5,47.9,26.5-26.4,13.3,10.7,23.1-.3,4.4.5,5-8.2,2.5-12.3,2.1.3,4.6-6,3-7.8,6.7,0,9.9-8.8,12.6-4.2.6-.4,0-3.5.2-4.2,5-5.6.3-1.7-.8-3.3,1.5-8.8,4.7-3.8,5.1-3.9,3.5-.8-4.1-4.4-3.3-6.6-10.1,8.1-10-6.1-20,2.4,0,0-24.4-16.8-24.4-16.8ZM705.2,997.7c-3-3.6-41.8,82.8-22.6,62.8,5.1-7.9,6.3-28.9,18.3-24.9,3.5.9,2.6-33.6,4.3-38ZM685.4,1009.7c-4.7-1.8-17.3-1-21.6,1.2,3.5,10.8-10.4,13.5-3,19.5,3.4,19.4-13.1,8.5-16.7,18.7-1.3,9.1,8.5,17.6,16.7,19.1,3.6,21.7,25.5,5.3,11.2-8.1-4.5-17.4,15.6-33.8,13.4-50.4ZM759.2,1050.4c7.7,2.7,2.1-14.9,2-18.2s3.4-4,0-5.1-6.7,12.2-6.3,13.4c2.3,2,5.2-.8,3.7,3.5,3.3,4.3,0,1.9-1.9,4.6,3.2-.9,2.3,1.6,2.5,1.7ZM713,1034.3c-11.1.5-1.1,5.2-8.9,6.7,1.9,6.3-11.1,3.5-8.5,7.7-3.6-3.4-.5,3.6-1.2,4.8.2.2,5.1-.7,1.2,3.2-1.1,1.1-5.6,1.9-3,3.7,18.3-5,31.1,1.7,31.8-21.9-3-.5-8.1,5.8-7.8-1.2-3.9-.8-9.1,2.8-3.6-3ZM777.2,1041.5c-8.8,7.9-9.4,2.7-2.4,11.1.1,2.5-2.5-.9-3.3.3s-1.4,6.2.6,6.6c9.9-13.5,10.5,2.2,5.1-18ZM689.6,1069.1c-1.7-.4-4.7,4.1-7.1,2.3-.5,5.6,13.9,8.3,7.1-2.3Z"/>
      <path class="st1" d="M235.7,696.8c-1.3-15.1-2.1-9.9-11.3-16.7,4.6-4.9-5.8-1.4-6.7-4.2,2.1-3.6,6,1.6,5.1-4.5,7.1,2.1,7-8.7.3-5.4-2.8-2.1,3.7-1,3-3-2.2,0-11.3-5.5-10.2-8.1,5.6.2,7.5-7,4.8-11.3.4-.1,6.2-8.4,4.2-4,4,3,.9-4.6,1.2-4.8,12.4-1.7,20.1-4.2,32.2-5.2,5.6-9,3.2-.1,7.5-1.5,12.4-11.8,16.9.4,31.6-1.1,1.1,5.4,3.1-2.6,2.6-4.2,1.3-2.1,3.6-2.2,1-3.2.9-2.5,3.9,0,6-.6s1.5-4.7,3.7-3c1.5,6.3,1.8,3.4,3.9.3.9,6.1,4.6-5.4,5.1.6,1.9.1,9.1-9.9,11.8-4.5,0,.2-2.9,3.8,1.9,2.4,6.2-1.8,1.1-6.7,3.9-7.5,2.4,3.2,2.3-1.2,3.6-3,.8.5,4.4,3.4,2.7-.6,2.2-2.1,2.1,2.1,3.3,2.4,4-3.2,5.9,3.7,7.2-5.4,1.3-1.8.6,1.9,1.8,0M1080,1079.9,419.7,1078.5l-353.2-.6c-.8-9.4,9.5-8.9,15.2-15-.5-5.7.1-12.4,6.8-16,.7-1.7-2.4-4.7,3-5.4,0,0,4.1-10.1,4.1-10.1,9.7,1.5,13.4-7.9,22-8.6.7-5.5,5.9-3.3,9-3.9,1.8-4.2,5.1-11.8,10.5-7.6,2.6-3.2,2.8-4.3,6.7-4.9,2.4-1.8-.3-3.6,6.5-5.2,3.3,2.6,2.6-1.8,4.7-4,11-.6,7.3-2.9,9.4-10.4,4.8,2.9,7.8-6.1,4.8-9.2,11,.5-6.7-13.3,5.4-12.7-.3-5-6.2,3.6-3.6-5.7,9.6-.2-3.6-7.5.7-12.5.1-.1,3.4-.8,3.5-.7,1.3,1.4-2.2,2.2-1.8,3.3,10,6.6,3.3-3.7,2.4-7.1,8.4-2.5-.5-6-2-11.7-1.9-5.7,2.6-12.6-2.4-17.8,4.3-6.2-10.5-63.7-18.1-64.3-6.2-7.4-18.5-18.2-14.6-26-3.8-3.2-4.7,2.3-5.1,2.4-3.2.5,1.2-5.2.9-5.4"/>
      <path id="entry-top" class="st1" d="M632.1,384.2c3-4.5-3.3-.4-3-3.5s4-1.4,4.2-1.5c-1.8-7.9-.5-2.4,4.2-8.1-5.6-10.2-1.3-17.4,6.1-22.9,3.5-.8,5.4-11.4,2.3-14.5,6,1.1.4-10.2,6.6-11.1,0-.3-3.6-2.1-1.5-5.7,3.9.8,9.7,5,6.4-2,7.5-5-4.5-4.3-5.3-10.6,12.2-11.1,6.7.9,8.2-17-3.2-1.2-3.8-7.9-2.4-10.5-7.9,6.4-10.2-15-2.4-10.8-1.2-2.3-2.5-4.2,1.9-5,5.6-7-3.1-2.6-4.5-2.9-17.3-5,11.1-7.2-5.8-13.7,1.9-2.9.1-2.6-1.2-5.7,2.8-1.2,5.8-1.9,1.2-4.8,5-9.7-1.5,1.6-8-1.5-.7-3.4-1.7-.4-4-.6,3.2-10.5,2.8-15.1,8.8-25.6-1.6-19.9-6.9-31.4-25.7-43.6-10,1.1-25.8-13.8-33.2-7.7-20.6-.2-6.4-7.7-18.1-7.6-4.6,3.3-38.8,3.8-29.6-2.1-3-5.1,4.9-1.1,4.3-8.9,5.8-1.5,2.6-10.8,8.3-11.2,0,0-1.2-1.2-1.2-1.2,10.3.3,9.4-12.7,22.8-14.4,1.7,2-4.6,4.4.5,3.8,4.1-.5,2.4-2.3,4.6-3.2,3,1.8,25.4-7.5,16.5-10.2,15.1-2.6-2-5.3,10.8-11.1,34.7-6.4,13-2.3,40.4,6.4,3.1-6.6,17.4-15,3.4-16.2,6.2.9,5.4-9.5,9.6-8.4-7.6-4.3,3.1-5.7,3.6-11.4.2-.2,5.2,1.5,5.4-.3.4-3.3-4.6-7.1-6-5.7-.8.8,2.7,4.7.3,4.2-4.1-1,.1-7.6-5.9-5.5-4.3-4.3-9.8,4.2-13,1.8-.3-.2.4-3.4-5.2-2.9,3.6,4.3-6.8-.5-9,4.2-6.5.2-9.2-6.9-12.6-1.2-3.5-3.1-2.1-3.8-7.5-4.2,1.7-1.5,0-6.4-.6-7.8,4.1,1.7,6.2-1.6.7-1.3-6-7.2-15.9-6.7-18.1-17.9-1.1-.8-9,2.3-9-3.4,9.5-7.4-12.1-22.3,13.7-18.8-4,3.8.5.8,1.5,1.8.9.8,1.3,7.4,1.6,7.6,2.8.2,31-4.5,21.5-9.4-.5,7.9,142.9-13.5,117,8.6.5,1.4,5.2-.5,7.9.4,6.6,2.3-3.3,1.7-4.6,4.8.3-4-2.1-2.4-2.7,1,2.9,3-2.7,6.4-3.9,8.6,2.7,5.1-4,6.2-7.4,8.1,4.4,1.3,9.1,2.8,12.8,2.1,2.8,2.7-1,2.7-1.2,3.1-2,4.5,4.5,1.9,5.8,4.2-.9,6.9,9.1,8.5,14.7,3.7,5.7,2.3,11.6-13.3,7.2-.3-5.3,2,0,.9-4.3,5.5-4.7,1.5-6.3,1-9.8,4.5-9.5-1.6-7,9.3-1.5,4.6,6.1,4.5,14.9-3.6,18,5.2,5.2-5.4,13.9-5.2,18.6-8.4.5.3-3,5.8,5.1,3.2.3-4.5,7.5.9,9.6,1.6.9,2-12.1-.4-11.4,2.7,3.2,2.6,11.5,2.9,11.4,8.7-3.2-.3-15.8-5.3-15.6,3-7.2,0-9.7,11.2,0,9,1.9,6.5-.5,14.8,7.5,10.8,3.5,8.1-3.7,7,3.9,9.9.8,2.1-4.3-.1-.6,3.3-6.4.2,1,3.9-1.8,7.2-2.5.4-.4-2.2-.6-2.4-3.7,1-5.5,1.1-1.2,3.6-5.4.9-1.6,3.9-1.8,5.1,0,.4-5.8,4.3-6,6.6-19.7-1.5-22.3,11.7-23.4,23.5-6,13.4,5.5,1,3.6,10.4-.8.8-8.8-1.4-6,1.8,4.2-1.1,5.8,3.1,0,2.4,1.1,9.2,5.9-5.7,7.9,4.7.6.4,2.6-.2,2.9,0-2.2,4.1,8.5-.8,11.1,1.8,6-6.6,9.9,2.5,15,3.6,7,0,3.6-4.6,3.9-4.8,2.5-2.4,1.8,2.3,2.7,2.4,1.3.1,1-2.9,1.5-3.3.9-.7,4.9.8,4.2-3.3,2.2-.5.8,2,1.2,2.4.2,1.3,16.8-1.9,6.6,2.4,3.2,3.5,5.8-2.1,6.3-2.3,1.2.8,3.7.5,4.3-1.3,3.2-.6,2.8.8,3.7-2.1.4-.3,5.3-.4,1.8-3.6s-1.8,2.3-2.1-.8c-.8-6.9,10.1.4,10.5,3.6-.3-8.3,0-6.3-1.8-13.2,1.7-2.5,2.8,1.4,3,1.5,15.7,4.5.8-6.9,15-6.9.5.6-2.8,2,4.2,1.8.7,2.2-2.6-.2-2.4,1.5.1,1.7,4,1.4,2.4,3.3.4.3,1.9-.8,2.4-.6-1.7,3,11.1,2.3,8.4-1.2,4.5,2.1,1.8-7.4,1.8-9-3.1-3.4-5.9,8.4-7.8,1.8-.6,6.3-5.7.7,0-1.5,0-.1-2.4-.8-.9-2.1,2.7-2.4,1.1,2.7,5.4,1.3.8-.3-.9-3.5,5.6.1,11.3,13.5,37.7-42.2,24.4-35-6.2-9.1,3-20.6-1.4-30.9C888,46.5,865.7,19.6,841.9,0,841.9,0,1080,0,1080,0c0,0,0,120,0,120-26.6,13.5-41.6-3.4-66.6,8.1-1.6,11.2-40.8,30.5-49.5,38-2.9-.7-3.2-3.4-3.6,0-.7,0-7.8-3.4-8.1-.9,5.2,1.9-2.7,1.7-3.6,1.5.3,2.9,4.9,6.9.2,9.3,7.2,9-16.4,4.4-17,15-1.2.5-5.4-1.2-3.3,1.3.5.6,6.9-.6,3.3,1.1-15.7-3.7-4.9,5.3-15,5.1,1.3-6.4-7.2.3-9,2.7,3.8-2.2,3.9,1.3,3.6,1.5-1.2.6-8-1.2-9.8-1.1-1.9.2-2.1,4.7-4.6-1.3,1.7,7.2-6.2,12.6,1.6,8,1-.6,3.1-4.4,3.5-4.4,3.8.3-4,6.1,2.6,4.9,2.3,1.9.3,3.8,4.3,2.3,0,0-7.2,3.9-7.2,3.9.1,2.4,3-1.1,3.6-.3-5.3,6.8,12.2,9,3,16.8,5.3-3.3,21.5-13.8,14.4-3.8-1.3,6.8,14.2-1.1,8-7-2.3-2.2-5.2.1-6.3-.6,3.1-1.7-1.5-7.8,3.6-8.1,11.8,13,14.2,8.8,3.7,20.4-8.5,5.1-5-3-13.2.3-3.9,27.9,6.7-1.6,11.7,8.4,1.2-1.3.3-4.2,3.3-2.4.5-.3-.5-9.6,4.8-7.8-3.7,2.3-.6,4.8-.6,5.1-.9,3.9-14.8,19.7-12.3,7.5-8.4-.1-.1,7.2.3,11.1-7.4,6.9,11.2,9.7,1.5,17.8-9,.2-1.4,1.2-1.5,6.5,11.8-1,20.6,10.4,11.5-8.5,5-7.5,6.8,1.7,9.3,6.4.1,3.3-6.5,10.5-4.3,11.2,4.4-4.5,21.4-6.7,13.1-14.1,5.5-8.3,11.9,9.9,13.6-6.6,3.7-18.1,8-31,17-42.6,1.3-1.4,6.2-1.2,4.5-5.8-.2-.7-3.6-2.5-2.9-4.3.4-1,3.5.9,3-1.5-8.9.7-.8-2.5-6.6-1.8,7.9-9.8-7.6-2.3-11.4-5.2-2.1-4.3,8.2-1.1,8.5-8.3-.4-8.4-8.3-7.8-12.9-2.7-13.5-.2-15.3-6.7-12-16.2,4.4,6,9.4,3.5,15.6.8.6.6,10.5-3.7,7.5.4.3.1,2.4-1.8,3-1.2-.4,4.3,7.5,3.3,12,5.4-6.2,6.9-.8,1.7,2.3.8,19.5-3.7-4.6,2.3,2.8-12.8,5.1-1.4.8-5.8,6.9-4.8-6.2,8.7,5.1,14.7,5.2,5.5,5,2.2,9.4,1.6,15.2,0-1.9,3.3-5.3,4.6-8.8,6.8-.5,4.1-.8,3.1-4.4,3.5,8.4,8.6-18.1,16-20.4,18.9,0,2.8,9.5-4.5,11.4-2.7-.4,5.3-2.2,6.9,3.6,5.4-.4,4.8,2.6,5.1-4.2,3.6,3.2,2.1,3.6,3.9.6,6.6,7.8-2.6-1.2,9.1,5.1,3.5,13.8.4-3.7,7.4,6,5.5,8.1-.3,14.9,4.1,9.3-.9,5.8-17.2,28-37.2,43.8-15.9.8-.6,5.1-16.8,11.4-15.6M774.6,65.3c-1.1-7.5-4.1,2.9-6.9.2-10.1,7.5,2.4,5.7,7.1,6.2,3.4-3.6-3.9-5.7-.2-6.4ZM894.3,170.6c2.6-1.5,2.4-2.9,1.5-5.9.3-1.2,7-8.4,3.3-9.9-4.9-2-12,15.5-4.4,13.1-9.6-.8-7.3,17.1-.4,2.6ZM809.5,198.6c.2-9.8-49.7,6.8-22.4,9.1,8.1.1,18.9-.4,22.4-9.1ZM878.5,229.2c-5.1-13.4-16.6,2.1-4.5,2.4.8-.2.6-3.8,4.5-2.4Z"/>
    </g>
  </g>
</svg>