<?xml version="1.0" encoding="UTF-8"?>
<svg xmlns="http://www.w3.org/2000/svg" xmlns:xlink="http://www.w3.org/1999/xlink" version="1.1" viewBox="0 0 1080 1080">
  <!-- Generator: Adobe Illustrator 29.8.3, SVG Export Plug-In . SVG Version: 2.1.1 Build 3)  -->
  <defs>
    <style>
      .st0 {
        stroke: #00ee19;
      }

      .st0, .st1 {
        fill: none;
        stroke-width: 4px;
      }

      .st0, .st1, .st2 {
        stroke-miterlimit: 10;
      }

      .st1 {
        stroke: #2c3eff;
      }

      .st2 {
        fill: #fcee21;
        stroke: #cc0026;
      }
    </style>
  </defs>
  <g id="Layer_2">
    <image width="1800" height="1800" transform="translate(.2) scale(.6)" xlink:href="../images/straits/lombok.jpg"/>
  </g>
  <g id="Layer_1">
    <g id="Layer_3">
      <path class="st0" d="M467.1,1078.8c-2.3-7.3-4.7-14.8-3.9-22.4,1.5-14.9,14.4-25.8,26.7-34.3,44.3-30.6,94.9-52.2,147.7-62.9,27.2-5.5,55.1-8.3,81-18.3,25.9-10,50.2-28.8,58.1-55.4,3.3-11.1,3.6-23,6.9-34.2s10.9-22.2,22.3-24.6c4-.8,8.1-.5,12.1-1.1"/>
      <path class="st1" d="M312.9,164.4c-11.4,5.1-16.6,18.2-20.6,30.1-4.5,13-9,27-5.5,40.3,2.1,8,6.9,15,11.7,21.8,9.1,13,18.1,26.1,28.5,38,4,4.6,8.2,9.1,11,14.5,5.3,10.4,4.7,22.8,7.7,34.1,3,11.3,12.7,23,24.2,20.7,8.4-17.7,36.7-21,48.9-5.6,3.5,4.4,6.6,10.3,12.1,10.7,4,.3,7.5-2.5,11-4.6,11.1-6.8,26-6.8,37.1,0,7.8,4.8,13.6,12.6,22,16.2,22.8,10,52.1-14.7,72.7-.7-3.6-26.5-3.4-53.5.6-79.9.7-4.4,1.5-9,4-12.6,5-7.2,14.9-9,21.7-14.6,8.6-7,11.1-18.9,12.2-30s1.5-22.7,7.5-32.1c6-9.3,20.1-14.5,28.4-7.1"/>
      <path class="st1" d="M205.5,449.8c10.5-5.4,23.2-.9,33.5,4.9s20.7,12.8,32.5,12.6c6.4-.1,12.8-2.5,19.2-1.6,15.1,2,24.4,20.9,39.6,21,10,0,17.8-8.2,27.1-12,14.3-5.8,30.4-.5,45.5,3,25.9,6,52.7,6.5,79.2,7"/>
      <path class="st1" d="M185.7,428.6c-1.6-23-1.9-49.5,15.1-65,4.5-4.1,10.6-8.8,9.1-14.7-.9-3.3-4-5.4-6.8-7.3-30.7-20-59.2-43.5-84.8-69.8-5.5-5.6-11-11.6-13.7-19-5.6-15.3,1.6-33.9-6.8-47.9"/>
      <line class="st1" x1="66.5" y1="1.3" x2="540.1" y2="1.3"/>
    </g>
    <path class="st2" d="M569.7,0c-1.1,4.6-4.7,5-7,7.4s-.4,2.1-1,2.6c-1.5,1.6-7.1,5-8.2,7.7s3.9,5.7-3,2.7c6,5.2-3.3,9.1-3.9,10.2-1.3,2.5,1.3,6.7-4.5,7.5s-5.5-3.7-6.3-3.3-4.8,6-5.7,6.9-2.3.8-2.7,1.4c-2.9,4.3,7.1,6.9,6.8,10.6s-6,6.9-6.5,7.1c-4.2,1.8-4.3-3.1-5.5-3.5-2.1-.8-2.4,1-2.8.8s.2-1.7-.4-1.9c-9.5-3.1-20.1,13.2-30.3,15.2-1.7.3-8.5.9-9.7.5s-1.6-4.7-3.9-3,2.6,4.5,2.9,6.9c.6,4.9-8.6,16.9-12.2,20.1s-6.7,3.5-7.6,4.4-1.3,4.4-3,6.5-12.4,15.7-13.6,16.6c-2.8,2-40.2,10.2-44.9,10.3-4.1,0-.6-1-1.5-2.3-1.6-2.3-7.3,0-9.8,0s-.9-1.3-1.3-1.3c-9.6,0-5.1,3.4-5.5,9.8s-2.7,1-1.8,2.8,3.3.5,3,2.1-5,2.9-5.3,3.7c-.4,1.3,2.2,6.5,1.8,8.9s-3.1,2.8-3,4.1,2.1,1.8,1.7,2.2-1.7-.7-1.8-.6.1,1.8-.9,2.4-14.8,7.5-15.7,7.7c-1.5.3-9.6-1.8-10.6-1.7s-2.9,2-4.4,2.3-.6-1.7-1.4-1.1.9,3.1-5.6,2.3-8.1-4.7-8.7-5.4c-1.2-1.7-1-9.6-3.4-10s-4.5,3.4-4.9,3.4c-1.4.2-10.9-4.1-5,1.6-1.9.8-10.8,8.8-11.6,10.1-1.8,3.3-1.1,7.5-5.8,9.7.2,2.5,3.1-1,3.6-.3,1.7,2.5-3.1,3.9-3.3,4.2-1.7,2.8-2.8,6.4-2.1,9.6,2.2-1.4.6.5,1.3,1.7s2.1-.6,2.3,2.2-4.4,4-4.8,5.6c-1.8,6.6,3,5.9,3,7.6s-2.4.9-2.9,2.5,2.8,3.4,0,6.9l3.8,6.9c6.2,3,2.9-2.6,3.2-2.9,4.1-3.9,1.8,6.7,1.9,7.1s2.5.7,2.3,2.1-5.1,2.8-5.2,7.1c0,1.1,5.7,13.9,6.4,15.8s-1.2,1.9-.9,2.8c1.1,3.5,2.4,3.8,3.3,5.6s-.8,2-.4,2.6,2.4.3,3.4,2.3,1.3,7.1.7,9.2c-1.8.1-1.2-5.9-4.2-3s8.1,13.9,12,10.2c-2.9-3.3,1.7-2.1,2.7-2.9,2.1-1.8-2.6-2.2-2.7-2.4-.7-1.2,10.8-3.9,11.8-4s5.9,4.4,6.1,5.7-2.2,13.5-2.9,13.9-1.5-2.4-3,.3c-3.1,5.4,5.5,5.2,7.1,8s-.3,6.5.2,8.8,3.5,7.8,3.6,10.3-2.4,3.9-2.4,4.2c0,.8,3.3,3.3,1.8,6.3-2.4.5-.6-3.2-1.3-4.7s-3.5-3.2-3.8-3.1c-1.4.2-.6,3.7-.9,4.2s-2.5-.5-3.5,1.7c-2.7,6.3,3.1,11.5,4.1,14.9.6,2.2-2.7,8-1.8,8.7s3.2-1.6,6.3.6.9,12.2,6.8,8.6,1.9-3.3,3.5-3.7c4.2-1.1,3.8,2.8,4.1,2.9,1.1.4,3.3-2.6,4.8-3,2.7-.7,8.4,1.3,12.2-.3s5.3-8.5-.6-6.9c5.6-3.7-5.1-4.8-.5-8.6s10.6-5.6,11.2-5.7,6.4.6,6.7.8c1.8.8,1.9,7.6,3.6,5.1s-1.3-4.6,2.5-5.7,4.9.7,5,.9c1.7,1.8-.3,6.4-.3,9.4s1.3.7,1.3,1.7c-.2,11.3-6.8,0-7.2,6s9.3,6.6,12.3,5.2,4.9-5,5.7-5.8-2.2,0-.6-1.2c10.6-8.5,10.9,1.9,14.8,2.6s16.7-10.1,19.2-12.6-.7-1.5-.5-1.7,3.5-1.4,3.6-1.2c.3.6-.3,2.4,0,2.9s3.7.3,4.5,1.9-.7,2.8-.3,4.4c2.3,8,9.6-7.4,12.5-5s-1.4,9.9-6,8.7l8.4,4.8c.6,6.1,5-.6,7.6-1.5s2.3,1.7,3.2,1.1.2-3.1,2.1-3.4,4.4,2.6,4.9,2.7,1.4-1,1.7-.9c4.4,1,3.4-.3,3.6-.2.3.1,3,3.8,4.8,4.9s3.9-.5,5.1,1.4-1.5,9.5-1.2,9.9,1.6-.9,1.8-.6c2.3,2.7-3,4.6-2.7,7.8.5,5.2,10.5,3.3,12.9,1.1s-2.2-.7-.6-2.1c5.2-4.7,23.4-9.5,30.8-12.9s9.1-10.3,11.5,1.8c.4,2-.6,10.1,0,10.8s6.7.2,6.9-.3-3.3-6.2,2.9-5.8c-1.1-4.8,7.7-17.7,4.6-21s-7.4-.1-5.6-5c.5-1.3,2.2-1.8,3.2-5.8s0-13.4.4-14c1.1-2.1,3.9,1.5,7.3-2.2s3.7-12.8,3.6-14.3c0-2.3-4.3-8.3-4.4-11.3-.1-2.6,2.9-7.7,2.8-8.7s-3.6-2.6-2.7-5.8c.7-2.5,8.5-3.1,10.9-4.4s9.5-13.3,11-13.9,4.2,1.2,5.6.9.7-1.5,1.5-1.7c3.2-.8,7.9-1.4,9.4-4.8,2.2-5-.6-5.4-.7-9.2s4.9-3.9-3.2-10.3c-.9-.7-2.8,1.9-3-2.4-.1-4.1,3.6-4.3,3-10.2s-1.3,0-1.2-.7,1.8-.1,1.8-.3c.1-1.6-.9-4.3-.4-6.6s6.7-14.8,7.3-15.6c4.8-6.6,8.3-1.3,9.5-1.8,1.8-.7,0-7.8,3.2-3.5s0,2.6.1,2.9c.4.4,5.5-1.7,6.9-1.7s7.4,1.2,9.5,1.1,1.9-1.7,3.1-1.8c2.3-.3,2.7,2.4,5.6,1.5s6.4-4.9,6.6-6.1c.5-4.7-4.4-2.5-5.3-3.1s.9-2,.6-2.4-2.7,1.8-3-3.2c-3.7-1.3-10.7-14.1-12-7,.7-5.6-7.7-4.5-10.6-8.9s-.9-3.9-1.6-6-1.6,0-1.7,0c-.5-1,1-2.2,1.1-3.2s-1.4-1.5-1.1-2.5,2.2-.6,2.4-1.3c.6-1.7,1.1-7.7-2.4-6.5,8.1-8.4,5.5-1,8.1-.3s-5.6-11.8-7.5-10.2,2.6,3.1,1.8,5.7-10.4-9.9-10.7-10.9c-.6-2.1,2.4-11-.7-14.2,5.6-2.1,2.6-3.8,3-7.2s1.9-2,1.8-3c0-2.1-3.3-1.3-3-3s4.7-5.7,4.8-6.1c.3-1.2-1.2-2.1-1.1-2.9.1-1.3,1.3-5.1,1.2-5.4-.2-.4-8.9-1.8-6.6-3.9s7.3,3.7,8.4.6c-2.6-.7-5.6-2.9-9-4.5,4.7,2.4,9.6-2,5-5.7s-9.4-4-6.7-5.4,4.1,3.1,5.1,3.5c12.1,4.7,8.3-1.3,15.6-2.9s.6,1.5,3.6,1.1,3-2,4.3-2.2,1.7,1.2,2.9,1.1c9.6-1,8-8.1-.9-7.2,3.3-2.2-4-7.1-4.5-7.2s-.4,1.6-1.3,1.7c-10.2,1.1-13.7-12.5-1.4-10.7l-1.8-1.8c6-.2,3.4,2.3,3.6,2.6s8.5.5,9.2.3c1.5-.3,15.9-5.2,17-5.9,5.4-3.2,5.2-12.5-.3-13.2s-3.7,2.6-9.7-.4-1.6-2.3-2.5-2.9c-2.9-1.8-15.3-10.6-17.8-11.5-3.3-1.2-6.3,1.6-8.7-3.3s-.6-5.6-1.1-6.3c-1.2-1.8-5.5-.8-5.9-1.1s-4.6-3.9-4.8-4.2c-1.2-1.9.6-3.5-.3-5.7s-6.3-2.1-6.9-5.4h152.9c2.6-.4,3.8,6.7,5.7,7.2s9.5-1.5,9.8-1.8-2.9-5.5,2.4-5.4h62.9c-2.5,4.1,1.9,11.3,5,14.2,3.5,3.2,27.8,14.5,31.8,12.8s2.7-12.9,6.8-8.3-3.3,8.2-3.4,9.7,3.9,3.7,4.5,4.6-1.4,5.9,3.6,4.5,8.1-12.5,10.3-14c3.4-8.3-1.7-17.8-7-23.5h21.6c-.5,4.2,2.5,7.7,3.9,11.4l1.5-5.7c-2.5-.9,1.5-3-1.2-5.7h161.9v239.2c-1.7-.2-11.1.7-12,1.2s.9,1.5.6,1.8-2.6-2.1-3.6-1.2c-2.5,2.4,5.6,3,6,2.4.7,2.4-6.2,2-6.6,1.8s1.2-2.2-.3-2.4c-3.7-.5-.5,3,2.5,4s9.9-2.7,5.6,2.6c2.5-1.5,2.4.6,2.7.6.7-.1,3.5-3.4,5.1-1.8s.1,5.2,0,5.4-4.1-2.9-5.4-1.8.2,2.2,0,2.4c-.7.8-2.3-2.7-3,.3-.7,3.1,1.4.2,1.8.3,1.9.7,2.8,3.4,6.6,0v11.4c0,.6-7.5-.2-8.6.6-4.4,3.1,5.6,5.2,7.4,2.4l-1.8-.9c7.9,1.3.7,3.2.6,3.6-.4,1,2.5,2,2.1,4.5s-4.3,2.7-4.5,3.4c-.5,2.2,4.8,6.7,4.8,7.2v72.8c-3.6-.9-1.7-6.3-3.3-8.9s-7.7-6-8.2-6.2c-2.4-.8-9.4,1.3-12,.8s-5.6-3.9-6.2-4.1-1.6,1.2-1.7,1.1c-.6-.2-1-1.9-1.9-2.3-2.7-.9-6.8-2.3-9.5-2.5-7.9-.5-3.8,1.5-5.7,2.7-3.2,2.1-4.6,1.3-7.2,2.1s.8,1.8-.3,1.8c-2.7,0-2.4-5.8-2.7-6-.6-.5-6.9,2.2-8.8,2.3-4.8.3-19-1.5-23.2.2s-1.1,3.7-4,3.5c4.3,1.9-1,1,1.8,3.6-3.9-1.5-5.6,2.4-7.5,3s-4.4-.4-6.5.1c-5.2,1.3-1.7,6.1,2.3,2.8s-.1-4.6,2.7-1.5,1,8.4,1.8,12.9c2-.1,1-3.4,2.1-5.4s2.6-.9,3.2-2.2-.3-10.4,4-9.8-1.6,4.6-.3,6,2.7-1.2,4.2-.3,3.3,7.8,6.5,8.5,7.5-.7,7.8-.9-.9-1.5,0-2.7c1.3-1.7,10.1-9.2,10.3-3.6s-2.6,2.7-1.8,3.3,19.3,1.7,21.9,4.2c4.5,0-2.5-5.3,0-5.9s13.6,1.1,14.2,1.3c1.6.5,1.3,3.4,3.8,5.2s10,3.4,13.4,5.2c3.1,1.7,7.2,6,10.8,6.8v270.4c-7-2.4-9.3-5.8-14.9-10.7-1.2.9-8.3,3.2-8.7,3.5-3,3.2.7,9.5,0,12.1s-2.7,1.9-2.9,2.7c-.4,1.4.3,4.2,0,5.9s-2.6,2.6-.9,6.3,27.3,4.1,27.3,6.6v10.8c-5.1-7.4-4.8-2.5-8.8-1.4s-8.2-2.8-7.6,6.1c.3,4.3,3.5,6.8.8,11.5-1.4,2.5-3.6,1.5-4,1.9-1.1,1.3-2.5,5.7-2.8,5.9-1,.7-6.3,1.1-6.3,4.6,0,2.7,6.8.7,7.7,2.7s.1,6.7,0,7c-1.1,2.8-6.5,0-8.3.4-4.1,1-1.7,4.7-3,6.6s-2.8-1.6-3.9-.3,3.3,3.7,2.1,6-1.6,0-2.1.6c-2.1,2.9-5.7,10-8.6,4.1s1-2.1.2-3.5-6.6.9-6.9,1.3c-1,1.7,2.7,8.3,0,8.3,1.2-1.5-4.3-8-5.1-7.8-1.4.4-.7,3.3-.9,3.6s-1.8-1.1-2.4.3,2.6,1.6,1.8,4.8-1.6.6-1.8.9c-1.6,4.2,2,2.6,4.1,1.1s-1-2,.3-2.3,3.9.7,3.9.9c.2,1.2-7.3,2.4-5.4,4.5h-6.6c0,2.4,3.4,1.1,4.8,2.7s1.4,4.2,1.1,4.5c-.4.5-3.8-3.7-4.5-3.6s-.8,1.7-1,1.7c-8.5,1.6-1.8,1.3-4.1,3.7s-3.4-.3-5.1.6-.7,2.9-.9,3c-3.4,2.4-1.9-3.7-2.2-5.2s-1.4-1.2-1.4-2.8c0-2.4,2.9-3.4.9-3.9s-10.1,2.6-11.9,2.9-3-1.1-3.9-.5-.3,2.9-1.5,4.2c-5.3,5.7-13.3-10.3-18.3-12.4,4.5-4-.4-11.4-.6-2.7-.4-5.9-3.8-2.2-4.2-2.4s0-2-.6-2.1c-3.8-1.2-9.4-.8-12.7-3.3-1.7-1.3-6.9-12.5-10.4-7.2s1.2,2.8.9,3c-.6.5-3.5-.8-5.3,2.8,0,.1.4,2.6.5,2.6,1.8.4,1.1-1.9,1.8-1.2,3.3,3.8.2,3.5,0,3.7-.3.3,0,1.6,0,1.7-1,.6-2.2-2.6-3-1.2s2.7,4.9,1.8,6-2.4-1.8-3-1.2,1.9,7.1-4.7,1.2c3.5-1.6-1.4.1-1.3-.9l6.6-7.8c-1-1.8-2.2.4-2.7.3s-.3-1.3-.6-1.2c-1.2,0-8,3.6-7.5,1s3.9-2.8,3-3.9c-1.9-2.3-10.5.5-4.8,1.8-1.8,2.1-.8,11.4-1.2,12.6-1.8,4.5-1.4-7.6-1.7-8-1-1.1-3.6,0-3.7-1.9s2.9-2.5,3-2.7c.4-.7-1.3-1.9-1.1-2.6.5-1.5,3.7-4.1,2.2-6.3s-8.7-3.7-9.2-3.6-.6,1.6-1.7,1.9-4.8.1-5.4.5c-2.6,2,.8,2.9.7,4.3-.2,3.5-5.7,13.8,0,14.6,3.3.4,0-1.9.1-4.7.2-4.9,3.9-4.4,4.1-4.7.5-.7-5.2-6.2,1.4-3.5,3.5,1.4,1.8,3.8,4.6,4.4-5,2.2-2.6,3-3,5.9s-1.3.2-1.3,1.2c.2,4.4,3.3,2.9,3.6,3.4,2.1,2.8-3.6,4.7-4.4,7.3-1.5,5.2,2.5,1.5-1.6,6.9s0,1.9,0,2c-1.9.8-1.2-2.7-2.7-4.2s-4.9-.5-5.1-.6c-.6-.5,3.1-3.6,1.8-5.4s-4.8-1.3-5-1.2c-1.6.5-.4,7.5-1,7.8s-2-1.9-3-1.2.7,1.6.4,1.8c-1.3,1-3.7,0-3.4,3-2.4.5.3-1.6-1.5-2.4s-2.1,2.9-3,1.2,2.1-7.4-5.1-2.1c-2.1,1.5-1.2,4.1-3,2.7-.9,3.3,2.9,5.1,3,5.4.8,1.9-3.3.5-.8,4.6s3.7,2.4,3.8,2.6c.3.8-2.6.8-1.7,2.6s6.6.7,6.5,3.6-8.7-2.8-9.8-3c-1.8-.3-2.3,1.6-2.4,1.6-1.8,0-2.1-4.2-4.1-4.2s-.8,6.7-4.6,3.6c-.9,3.2,3,1.3,3.6,2.7,1.1,2.6-3.9,1.8-4.2,2.1-.6.6,1.8,4.7,1.2,5.4s-2.4-1.2-3.8-1.2c-3.2,0-1.2,2.5-3.4,2.4-.4-5.8-3.2-3.2-5.7-3s-.1-1.3-.6-1.2c-.8.2-1.7,3.9-3.6,4.2s.1-1.7-2.3-1.2c-4.6,1-1.3,3.2-.5,5.3s0,3.6.1,3.7c4.1,2.8,2.6-4.1,3-4.8s1.3.6,1.8.3c4.8-3.2,2.1-.3,3,.3s3.2-3,0,3.2-1.8.3-1.8.4c-.1.3-1.1,5-1.2,5.2-.2,2.8,3.3,11.9,2.9,12.7s-2.5.5-3,1.5,2,.3,1.2,2.3-5.6,6.6-6,6.7c-2.2.4-2.1-2.5-4.1-3.1s-7.1,1.5-8.7-2c-2.9,3.7-1.5-3-6-2.4s.3,1.6-.3,1.8c-1.4.4-3.5-.6-5.2.6s.6,4.3-1.4,3-.4-3.2-3-1.8c2.1-3.3.9-5.1-3-6,.9,1.9,4.4,7.7,1.8,8.7,1.5,2.1,1.6-1,2.1-.9s.7,1.6,1,1.7c1.3.4,3.6-.9,4.7,2.2-3.1,1.2.6.6.6,1.2s-5-.9-6,.3c.1,1.4,2.7.3,3,1.8.4,2.6-3.6-.6-3.9-.6-.5,0-7,6.2-1.8,6.6s-.1-1.9.3-2.4c4.4-4.8.6,5.9.5,6.3,0,3.6,4.1,4.9-2.9,8.4l1.1.4c.3,4.8-4.6-4-4.7-4.6-.4-2.1,2.3-6.9,1.8-7.5s-1.7.7-2.1.5c-7-4.2-4.9.7-6.3,0s-2.5-4.2-1.2-5.7c2.6-2.8,7.5-1.9,7.7-2.2,4.2-5.5-9.5,1.2-6.8-3.5-5,.9-4.6,4.3-5.9,5.8s-3.3,2.1-4.1,3.4c-1.3,2-1,6.7-3.7,7s-2.5-1.5-3.3-1.2c-1.6.7-.4,6.3-.6,6.6-.4.6-2.2-2.5-3.6-1.8s.2,1.4-.1,1.6c-7.7,4.9-12.7,12.2-11.6,21.8.2,1.7,1.8,4,2.1,6.3.5,3.8-3,10,2.4,11.3-1.3,2.1-2.5-.7-3.6-.3s-3.8,7-4.2,8.2c-.7,2.2,1.3,1.9,1.2,2.3-1,4.1-9.2,4.6-10.6,5.9s-2.2,6.1-2.9,7c-1.1,1.5-2.6.3-3,1.1-.8,1.6,1,5.4-1,6.6s-2.5-1.1-4.7,1.6-2.3,5.9-4.2,8.2c-14.6,18.1-33.5,22.2-55.3,27-3.7.8-5.5,3.5-11.4,2.1s-1-2.4-2.6-3.4c-5.5-3.1-9.5-.3-13.6,2.4s-2.8.2-3.3.6c-1.1.8-.9,4.5-1.1,4.7-.4.6-5.6,6.9-6,7.1-1.3.8-17.3,1-20.6,2.1s-4.5,3-6.6,4.2-2.1-.5-2.4-.3,0,1.8-.9,2.5-1.5-.1-1.5,0c-.2.2.2,2.3,0,2.4-.3.2-2.7-.2-3,0s.9,2.3-.3,2.4-.6-1.8-1.2-1.8-.6,1.6-1.4,1.8c-4.6,1.3-13.2,3.5-17.1.7s0-3.1-1.9-3.1-1.1,1.6-1.8,1.6-1-1.1-1.7-.9c-1.2.2-2.5,2.5-5.1,1.9-4-.8-2.7-4.4-1-6.8s3.8-.1,2.7-1.8-5-2.6-5.4-2.4c-.7.3-2.6,18.3-5.7,4.8-.2,6.1-4.1,1.7-4.5,1.8s-2.6,2.8-2.4,3c.8.8,8-1.3,6,1.5s-10.3,7-12,7.2c-2.7.3-1.2-2.1-2.4-2s-3.9,5.6-5.2,6.5-9.5,2.7-9.8,3.2.3,2.7-.6,4.5-8.3,5.8-10,7c-1.5,1.1-3.8,4.7-7.3,6.3s-3.1-.6-3.4-.5c-2.7,1-9.1,3-11.2,3.9s-9.1,5.6-9.6,6c-1.7,1.4-.4,2.6-.5,2.7s-2.2-.2-2.8.6c-1.1,1.4,0,2.1-.2,2.4s-1.6-.8-1.8.3,1.2,3.2,1.1,3.8-2.7,1.8-2.8,2c-1.3,3.4-2.9,7.6-2.5,11.2-3.7-4.4-4.8-.5-6.3-1.8s1.4-4.4.7-6.6-3.6-1.5-4-3.2c-1.5-5.9,7.5-15.2-2.1-11.7-6.5,2.4-7,12-9.5,18.1-1.4,3.4-11.8,15.1-2.2,14.9-2.6,2.9,1.6,4.2,1.8,5.2s-.9,3.3-.3,5.7,3.3-.8.3,2-1.7-.5-1.8-.3c-.3.6,2,9.6,1.2,11.4H.2V299.2c3,3.4,6.1,7.5,6,12.2,0,1.5-1.7,2.5-1.8,3.6,0,2.4,8.5,14.9,10.5,17s5.8,2.8,6.9,4.1c2.4,2.8,6.6,16.5,9.1,19.2s1.9,0,2.6.7c1,1,4.7,5.2,5.3,5.5,3,1.4,1.9-.8,2.5-.6s1.4,2.3,2.1,2.6c2.9,1.6,8.3,2.9,10.5,5.7s3.8,7.7,3.8,8.2c0,1-2.8,0-.6,3.6s12.2,9,14.4,10.8c7.7,6.1,8,6.5,16.5,11.7,3.5,2.1,5.3,6.2,6.4,7.1s2.2-.3,2.9.2-.1,1.4.1,1.6c1.4.9,7.4,2.3,8.3,2.8s.5,2.1.6,2.1c.2.1,1.9-1,2.6-.6,1.1.6.3,1.7.9,2.1s6.4,3,6.6,4.2-1.4,1.7-1.2,2.4c.3,1,3.5,1.3,3.6,1.5.3.3-.9,1.8-.5,2.3,2.9,3.9,7.4,6,10.8,9.4s0,2,0,2c1.8,1.7,6.9,4.8,9.4,7.4s-.5,2.6,1.1,3.4,5,.4,5.5-.9c1.1-2.8-8.4-13-5.2-14.8s5.6,3,6.6,3.6c3.7,2.2,12.3,7.6,16,5.9l-1.8-.3c-.6-1.9,1.8-1,1.8-1.2,0-.4-1.6-5-1.2-5.4,1.3-1.1,2.5,2.3,4.2-4.8l8,12c1.1.5,7.4,4.2,7.8,4.2,2.6-.2,2.6-6.2,3.3-8.2s1.7-1.3,2.2-2.6-3.2-3.9,3.8-7.6,2.4.8,3.7,0,0-3.7,2.8-5c4-2,3,1.8,4.6,2.9,7.3,5.1,7-1.8,10.3-1.8s5.6,4.2,11.1,3.3c.5,0,7.3-3.4,7.9-3.8s4.6-5.8,5-6c.8-.4,2.5.7,2.6.6.3-.3-.3-2.8.1-3.8s3.2-1.5,2.3-3.6c-2.2-5.1-8.6,1.7-9.3,2s-1.5-1.2-2.2-1.1-1.2,1.4-1.6,1.5-7.1.9-7.5.9c-2.7,0-3.1-3.7-5.9-3s-5.1,3.8-5.2,4.1c-.7,1.4,4.8,4.4-3.8,4s-1.7-2.9-7.5.5-2.9,5.6-4.2,1.8,6.4-9.4,1.2-14.4-3.5.8-3-1.5c4.2-2.5,11.9,8.7,12.1-.3s-1.7-2.9-1.3-3.3c1.7-1.3,5.2,1.4,5.4,1.2.4-.5-.7-2-.3-3s2.1-1.1,2.1-1.2c.4-1.2-2.2-3.1-2.3-3.9-.2-1.2,1.2-.8,1.2-1.2-.1-1.4-1.6-2.8-1.2-3.9s7-2.6,7.2-3.3-2.9-3-3.5-4.3c-2.1-4.4,2.8-6.1,2.3-8.2-1.1-4.9-4,3-4.2,3.3s-1.5-1.6-2.7-1.8.1,2.9-1.8,1.8-4.8-7.4-2.1-8.7,4.3,3.6,6,2.1-2.9-5.3,1.5-4.6,1.9,4.1,3,4.4,4.7-2.4,5.8-1.4,1.2,7.4,2,8.2,3.2.3,4.4,1.3,1.1,5.5,2.3,5.8,1.4-2.6,2.4-2.9,1.6,1.5,4.4.2,3.8-7,10.5-5.6,6.1,5.4,6.4.2-4.2-.5-4.8-1.5,1.2-2.9,1.1-3.9c-.3-5.2-8.2-3.6-8.9-4.5s.7-2.3,0-3.7c-2.5-4.6-6.4-8-10.4-3.4-2.5-2.1-19.8-7.3-20.1-9.3s3.2-2.3,3.9-2.7-.6-1.6-.3-1.8c.9-.5,13.6,4.3,11.9-6.2s-1.4-1.3-1.7-3.8,1.4-8.3-.6-9.6-3.6-.1-5.7-1.5c-3.1-2-7.5-8.3-10-11.2s-2.5.1-2.8-.2c-1.7-1.8-3.2-10.7-3.8-11.9s-3.1-2.6-4.3-4.4-1.4-5.4-2.3-6.4-4.9-2.8-5.2-2.9-7.6.7-7.9.9,1,2,.6,2.4c-1.1,1.1-3.3-2.3-4.5-2.4-4.4-.3-10.7,6-11,10.5s2.1.7,1.7,1.4-7.1,1.7-7.8,5.1c-1.1,5.3,3.4,3.3,4.4,3.9s1,2.1,2.7,2.9,2.5-.5,3.2-.3.3,2,.9,2.2c10.1,2.5,10.1-8.8,14,3.3.3,1.1-1.1,2.9-.4,3.9s2.6.4,2.8.6-.9,1.5-.6,1.8,2.3-1.1,2.4.3-2.8,5-2.6,7.3,4.8,7.9,6.8,7.7c-7,.9-5.5-3.1-7.7-7.8-.9-1.9-3.3-4.6-4-5.9s0-4.5-.3-5.1c-.9-1.6-11.5-1-13.3-1.3-4-.8-12.5-6.1-14.6-9.6s.3-2.7-.8-4.4-6.6-4.7-7.2-5.4c-1.3-1.5-1.4-3.7-1.9-4.4s-2.1,0-2.9-1c-1.4-1.9-5.4-11.3-1.7-12.3s.6,2.5,1.8,1.2c1.7-1.8-1.3-3.2-1.1-4.9s2.3-2.9,2.3-3.1-2.7-5.5-3-5.6c-.5-.2-6.7.5-9.5-1.3s.9-1.6.6-1.8c-.5-.4-8.7,2.4-13.3.5-1.3-.5-3-2.9-3.9-3.5s-2.9-.2-4.2-1.4-.4-2.4-1-3.3-2.4-.7-2.8-1.7,8.6-9.7,10.2-9.3c-.4,0-1.2-4.5-1.1-5,1.2-7.6,2.2-7.2,1.1-14.6s-3.5-12.3-3-12.8,1.9,1,2.4.6.3-2,1.2-2.7,4.8-2.2,5.2-3.3-1.9-4.5-1.6-4.8,2.2.3,3,0-.3-1.9.3-1.7.9,1.8,1.5,2.1,1.4-.4,1.6-.1c1.9,1.7,2.5,7,4.7,6.9s1.7-6.3,9.3-4.6c0,0-.1,1.7,0,1.7.5.1,5.8,1.3,6.1,1.2.8-.3,5-3.9,4.6-5s-2.1-.7-2.3-1c-.4-.5,0-2.1-.1-2.3s-1.4,1.3-1.5,1.2c-3-2.8-1.5-5.5-2.3-7.8s-2.7-6.5-3.1-6.6c-1.4-.1-1.4,2-2.5,2.3s-5.9-1.1-8.2-.3-2.6,3.9-2.8,4c-.3.2-4.3-6.2-4.2-6.6s4.7.6,6.4-.2c4.7-2.2,1.6-6.6,6.1-8.5-5-.3-4.9-5.5-6.7-8.9s-2.4-2.5-3.1-4.1-2.4-6.7-2.1-7.8l-1.2.6c-1.8-2.3-2.2-7.3-2.9-8.7-1-2-3.5-4.2-4.3-5.5s-2.4-7.6-3-7.9-1.9.8-2.5.5c-2.8-1.6-8.3-4.7-9-8.4s-.6-14.6-.4-16.4,3.5-6.8,2.4-8.1-1.8.8-2.7,0c-6.5-5.4-.4-9.2.1-13.2s-1.5-3.6-1.3-5.1,3.3-6.7,3.3-7.8c.5-10.1-6.5-30.7-12.8-39.1s-12-7.5-16.6-12.4c-.6-.7.4-2-.5-3.1s-2.2-.1-2.8-.8c-1.1-1.4-3.5-4.9-5.1-7.1s-1.7-5.3-1.8-5.5c-.9-1.1-8.6-1.3-9.9-1.8C48.1,11.4,39.7,3.8,39.2,0h530.5ZM737.6,21.6c-.2,0-.2-2.2-1.6-2.9-5.3-2.9-14.5,5.9-8.2,7,1.1.2,2.1-.9,3-.9s1.6,1.2,2.8,1.1,3.1-2.5,4.8-1.9.5,3.1,2.4,3,7-4.6,4.9-7.1-7.1,2.3-8.1,1.8ZM703.4,45c-1.3-1.3-7,3.3-8.4,4s-2.6-.6-3-.4.8,1.4.3,1.8c-2.1,1.6-5.7,1.8-7,4.5-3.4,6.8,6.5-3.4,7.7,2,1.4,6-6.1,2.8-6.5,3.1-2.7,2.8,5,4.3,8.7,0s-.4-3.2,2.1-3.9c-7.7-6.3,3.4-1.6,6.6-3.9-3.5,8.9,2.7,0,3.7-.5s2.5.9,2.9.5c1.9-1.6-7.3-4.4-7.5-4.8-.7-.8.5-2.2.4-2.4ZM669.8,72c2,12.4,6.4-10.1,2.6-11.4s-2.2,6.6-5.6,4.8c2.9,2.4.1,4.8,1.2,9l1.8-2.4ZM941.8,86.2c2.2-3.7-2.6-16-5.5-11.8s-1.5,5.9-1.5,6.3c.1,3.4,3.8,3.4,3.6,5.4s-5.2,9.1-6,6l2.7,8.7c1.8-3.7.9-4.7-1.5-7.2,8.4,1.3,4.5-3.7,5.6-6s2.2-.8,2.6-1.4ZM274.5,105.2c9.6-5.9-.2-12.5-2.9-16.6s.3-4.4-1.3-4.6-1.9,4-2.1,4.1c-.8.6-5.8,2.5-6.4,3.2-3.7,4.5.4,4.8.7,5.8.9,2.7-2.5,5.7,5.1,4.3-3.4,2-5,12.6-.9,6.6s-.5-2.2-.3-2.4c.3-.3,3.8,2.3,8.1-.3ZM894.3,105.8c-1.1-1.4-3-4-5.1-2.4-2.8,2.1,2.5,4.3,3,5.6s-.9,2.2.1,4.6,5.6,4.8,6.4.2-3.8-7.1-4.3-7.9ZM203.5,115.1c-1-1.3-3.7,1.7-3.9,1.8s-.4-2.3-1.5-1.2c-2.5,2.7,1.1,3.1,1.2,3.3.9,1.6-2.6,2.6-.9,5.7s3.9,1.1,4.2,1.2,1.5,4.4,1.4.4-2.1-4.1-2-7.3,2.2-3,1.5-3.9ZM292.4,136.9c10.5-4.2,1.4-10.7.5-9.8s0,2-.6,2.6c-1.2,1.2-3.2,1.7-3.6,3.7s1.3,4.5,3.8,3.5ZM1005.2,146.1c-4.6-7.5-2.6-2.1-3.9-1.6s-2.2-.8-3-.3c-1.2.7-8.8,10.1-9,10.8s2.7,2,1.7,4.4-4.6.7-1.1,2.2,2.2-2.1,2.4,3.9c3.7-3.4,6.6.2,10.5-4.2s4.5-10.5,4.6-11.1c.4-2.5-1.5-2.9-2.2-4.1ZM981.5,157.8c-7.9,6-13.8,14.4-16.7,23.1-.2.7,1,2.7.5,4.6s-4,5.8-4.6,8.1,1,2.2,1,3-1.7,2.7-1.1,3.2,3.1-.3,3.6,0-.8,5.5-.4,6c1,1.2,4.4-.2,5.1,1.5s-3.8,4.5-3.7,9c.3,8.5,6.8,8.6,7.2,9.6s-2.7,18.3-1.9,20.4,4.9,2.8,6.8,4.7,3.4,8.8,5.7,11.1,5.7,2.1,7.8,3.6-2.3,1.4.7,2.9,4.4.4,6.2,1.3c-2.2-2.8-5.6-4.6-7.8-7.5-2.9-3.8-11.1-20.9-11.8-25.2s2.3-4.2,1.6-7.8-1.8-1.7-1.9-2.9c-.5-6.8,9.4-8.1,11.9-4.1l9.2,1,14.3,5.7c.4-3.4-6.2-3.2-6.5-3.7-.7-1,1.1-7.4-.6-8.7s-2.3.7-3.3.4c-2.4-.9-15.2-6.2-13.5-9s4.1.2,4.2,0c.2-.4-1.2-1.2-1.1-1.5,1.2-2.6,13.7-5.4,14.8-7.6s2.3-13.4-.5-15.7c6.3-5.1-6.1-2.2-8.8-1.1s-14.8,8.9-12.7,10.9,6.3-2,3.9,2.4-5,1.3-7,2.7c-3.6,2.5-.8,8-5.1,9.9s-9.7-3.6-7.5-6.9c.9-1.4,12.3-7.3,13.3-10.2,1.4-4.3-2.6-14.6,2.4-16.4-18.4-3.1-1.5-9.5-.6-15.3.3-2.3-3.2,1.1-3-1.4ZM874.9,176.9c-.1,0,1-2-.3-2.4s-4.1,3.9-5.1,5-2.3.9-2.3,1c-.5.8,2,2.3.9,3.6-1.6,2.1-9.1,2.3-10.5,3.9-3.4,3.7,1.8,3.1,2.4,4.1,1.5,2.6-7.4,2.4-8.4,3s-1.4,4.5-2.6,5.7c-8.1,7.7-25.9,5-36,3.6-.8-.1-5.1-3.9-4.2.6-1-.6-8-2.5-8.4-2.4s1.2,5.1-2.7,2.4c1,7.4-2,.2-2.7-.6-1.2-1.3-1.2,2.2-2.4,1.8s-2-2.8-2.5-3c-.8-.4-6.7-2.9-7-3-1.3-.3-.6,1.4-1.7,1.2-3.6-.6-8.3-2-11.5-2.4s-3.1,1.1-3.5,1c-.8-.2-.8-2.2-2.4-2.2-4.3-.2-15.9,3.8-17.6-2.9s1.6-4.4,1.1-4.9-2.6,1.9-3.6,2.1c-6,1.4-10.9-3.7-16.8-3.7s-2.7,9.3-3.7,11.6-4.8,2.1-5.7,3.3-1.3,5.1-2,5.6-6.6,0-7.1-.4.1-2.1,0-2.3-1.6.9-1.8.6c-.7-1.1,3.8-7.1-4.8-4.5,6.4,7.1-4.6,7.5-6,9.7-1.6,2.6,1.2,5.1,0,7.2s-4.5.7-5.1,1.4c-2.8,3.5.6,8.7.3,9-.5.5-4.5-1.5-4.8.3s5.7,3.8,3.6,9-3.8-.6-6.2-1.7c-3-1.4-3.9,2.9-1.2,4.4,1.7,1,4.3-.2,5.2,1.3s-2,6.9-2,9.7c0,5.6,4.3,10.3,4.2,15.9-2.8-.2-2.7-7.9-5.1-7.8s-3.5,5.6-4.2,6.6-2.4.4-2.6.7c-.8,1.1-1.9,6.1-3.1,8-1.8,2.9-3.8,2.1-5.2,6.7s.9,2.2.8,2.9-2.1,1.5-2.2,3,1.7,2.6,1.8,4.3-1.3,3.2-1.1,4.6c.3,3.1,3.5,6.8,1.8,9.5s-3.3,1.1-4,1.8-3.6,10-3.8,10.9c-.4,1.7,1.5,4.2.3,6.2s-3,1-3.2,1.3c-.9,1.3-.6,6.3-6.3,6s-3.3-4.2-3.8,3.9,3.9,1.2,4.6,3.6-1.3,6.6-1.5,6.9c-.4.7-3.2-.4-2.7,1.4s2.2,1.2,2.4,2c.8,2.9.5,12.3,3.1,14.5s13.1-4,14.6-4.8c1.5,2.4,6,.8,6.8,4.1.7,2.9-2.6,1.7-2.3,5.8s4.9,8.1,4.8,11.8l1.2-.6c-.6,6.3,1,13.7-1.5,19.8s-4.1,3.6-4.4,4.7,2,6.5,1.7,8.8-5.1,8.3-5.4,13.9,2.8,10,3.9,10.4c1.7.7.3-2.1,1.8-1.8,2.8.5.4,2.1.9,3s3.5-1,4.2-.6-1.4,4.2,4.6,2.8,3.6-4.9,5.5-5.5,4.7,1.6,6.9,1.4,6.1-3.1,7.3-3,1.1,1.9,1.9,2.4c9,6.1-3.3-14.2-3.4-15.3s.7-10.7,1.1-11.1,2.4.5,3.7-.9,1.7-5.7,1.7-6c0-1.4-2.6-5.5-2.9-8.4s0-11.3,0-12.5c0-5.6,2.3-9.8,2.4-12.6s-2.2-6.8-2.3-8.3,1.4-6.6,1.1-7.9c-.5-2.1-4.4-3.4-5.2-4.5s-2.2-5.9-2.1-6.2c.5-1.6,8.5-5.2,9.3-5.7s.2-1.6.4-1.8c.6-.4,1.7.2,2.2-.2s.2-2.5.8-2.8c5.3-3.2,11.1,0,13.8-.7s2.2-3.6,4.6-2.4c-4,3.6.2,3.4,0,4.5s-2.9,2.1-3,3.6,2,.3,2.9,3.1-1,9-1.1,9.4c-1.2,3.7-6.5,6.8-6.6,10.3-.1,5.9,12.6,14.2,15.6,4.7s-1.2,0-1.2-.6,2-1.9,1.2-2.7-4.2,1.6-4.8-.3c-1.4-4.4,9-1.5,4.4-5.7s-5.6,1.3-6.8-1.5,3.7-2.1,4.2-3.6-3.5-1.6-1.2-3,4.7,2.1,6.6.3-8.4-9-1-4.7.2,2.7,2.2,2.3c-1.6-4.3,16.7-4.3,13.2-1.2s-4.1-2-4.8-1.2c-1.1,1.2,1.3,1.8,1.2,2.4s-2.8,2-3,1.8,1.5-4-.9-3.6,1.2,4-3.3,3.6l3.6.6c0,1.1-2.2.9-2.4,1.2s1.6,1.4,1.2,2.4c-2.6.4-6.5-5.5-7.1-2s1.1,2.3,1.2,4.1-1.4,3.2-1.3,3.3c.4.3,1.6-.4,2.4.3s-2.4,1.2-2.4,3,7.8,1.8,0,2.8c-.2,1.2,1.8.1,1.8.9s-2-.3-1.8.9h7.2s-3.6,1.5-3.6,1.5c5.2,1.2,1.8,2.3,1.8,3.6s1.8-.1,1.2,1.5-3.5,5-4.2,3.9c3.7-6.5-.3-.6-1.2-3s4.7,1.3,1.5-4.5c-1.3,6.1-10.1,1.9-10.5,2.4-1.9,2.4,4.5,3.4,4.8,3.6s-.2,2.2,0,2.4,2.1-.3,2.4,0,0,2.9.8,3.5c1.1.9,7.6,0,9.4,2.9s-2.3,5.4-3.1,8.5-1.7,11.2-1.6,11.8c.5,4.8,3.1,4.5,6,6s.5,1.9.7,2c1,.5,3.9-.9,5.6-.6,3.1.6,3.1,2.6,7.5,1.6s4-1.9,4.2-2.1c.3-.5-6.2-4-.8-9.6s10.2-4.5,10.7-4.6,2.6.6,4.1.5,1.9-1.6,2.4-1.6c2.7-.2,1.9,4.9,5.3,3.3s-3.4-5.1-2.6-5.9,4.9,4,5.7,4c3.8.1,4.2-15.6-2.1-14.2-1.4,1.9,3.8,2.4,2.4,3.6s-5.2.2-5.4,0c-1-.6.1-3.9,0-4.4-.4-1.2-2.3-.9-2.4-1-1-1.6,4.2-1.6,2.1-3.6s-4.1,0-5.7-.7-1.7-3.9-2.7-4.5-2.8,0-3.4-.5-7.8-8.8-8.4-4.8,3.5,1.3,3.6,1.5c1.1,1.4-.9,5.9-4.2,3.6,4.7-5.3-1.4-1.3-2-1.3-1.6,0-2.9-2.2-3.3-2.2-1.9-.4-5.6.2-6.9-.6s-.8-3.1-2-3.6c-1.7-.7.6,2.4-2.9,1.7s-5-6.2-9.4-5.3c1.6-3.8,6.9-1.5,7.2-1.8s-2.2-4.8,2-3,.4,3.1.7,3.6,3.6-1.1,5.1,2.4c-1.2-1.8-.7-8.7,2.1-7.8s-1.6,2.5-.9,4.2c1.4-1.9,3.2,2.3,4.2,1.2s-1.2-2.6-1.2-2.7c0-.6,2.7-1.5,2.4-2.1s-3-.4-3-.9c.4-3.8,11.9,0,6.9,2.7s-2.7-4.3-3.2-.2,7.8,4.9-1.3,6.2c2,1.1,10.4,4.1,12,3s-.7-5.5-.6-6.3,1.1-.8,1.2-1.2-.1-4.3,0-4.4c1.2-.6,4,.8,4.8.6s1.9-3.4,1.8-3.6c-.4-.3-8.2-3-8.4-4.5s3.3-3.1,2.1-4.5-3.9-.2-4.5-.6.2-2.3-.9-3-2.7-.3-3.2-.7c-1.1-.9-5.6-13.3-8.3-16.6s-9.8-5.5-10.2-6c-.6-.8,0-2.7-.4-3.2-2-2.4-5.1-2.4-4.7-5.8-2.7-.9-.3,4.3-2.4,3s.2-4.6,0-4.8c-1.4-1.2-3.9,2.8-4.2-4.8,3.8,4.2,2.6,1.2,3.3,1.2s1.5,2,3.6.6c3.8-2.4-1.3-1.2-1.7-1.3-2.5-.6.2-1.3.2-1.5,0-.5-.8-1.5-.5-2.2.6-1.5,2.8-2.1,2.9-4l.6,4.8c2.7-.1-.4-2.5,2.7-3.3,7.2-1.8,1.4,3.8,1.5,4.2.2.7,2,0,2.3.4,3.6,5.1-4.4,2.7-4.7,2.9s.9,1.4.3,1.8-3.2.7-2.7,1.8,3.8,2.8,4,2.9c7.7,2.3,7.4-7.4,9.3-8.8s12.2-3,14.4-3.9c7.4-3,14.8-14.1,20.3-20s.1-2.6.9-3.2c1.2-1,7.1-1.3,8.8-1.7s1.9-3,2.9-1.8-.4,2.8,0,3.5,5.6,3.8,6.6,3.6c2.4-.4,5.2-10.1,4.6-12.5s-1.7,0-1.7,0c-.2-.4.7-1.6.6-1.7-5.8-6.1-17.4-1.2-24.2.5l5.7,3.6c-4.7,2.1-24-1.8-26.7,1.8s-.1,3.7-1.5,4.5-3.2-.5-3.9-.2-.8,2-2.5,2.1-8.5-2-8.9-2.3c-1.7-1.9-.6-3.7-1-4.1s-6.4,2.6-6.9,3-6.5,7.5-7.3,8.5c-6.3,8.4-.8,11.4-13.9,9.7-1.6-.2-1.4-2-2.7-2.1s-4,2.1-4.8,1.8c-1.3-.5-.6-2.6-1.3-3.5s-2.3-1-2.6-2.2c-.6-2.4,1.6-4.2-1.9-8.3s-5.7-1.5-8.1-2.6-5.9-6.5-6.2-7c-2.3-4.1-4.2-19.6-3-24.1s1.8-.4,2-1.3c2.1-6.5,2.5-11,8-16.2,1.7-1.6,4.2-1.5,5.6-2.7s-1.8-3.5,2.3-2.7l-1.2,1.8c5.4-1.2,10.6,3.4,14.6,4.2,5.2,1,9.5-2.2,13.3-2.9s8.3,2.4,9-1.9c1.1.9,7,.6,7.3.7s1,3.2,4,3.5c2.5.3,15.8-3.4,19.8-3.5s20.4.2,23.4.6,5.6,5.6,8.5,6.4,11.4.9,13,.8c2.9-.1,28.7-4.9,30.1-5.8s6.3-12.4,8.5-14.8,8.8-5.2,11-9.5,1.2-10.4,5.4-10.8c.3,0,3.1,3.6,3.9-3,.9,2.6-4.3-2.2-4.4-2.5-.6-1.3.4-3.3.2-3.5-.4-.4-4.7.4-5.4,0ZM138.1,233.8c.4-2.3-6.9-3.9-7.2-3.6-.7.7,5.1,6.3,5.4,7.5.8,3.9-1.3,4.1-2.3,6.7s.6,2.3.5,2.5-2.2,0-2.4.9,2.1,1.4,1.8,2.4c-1,3.3-2.8-.8-3-.9-.6-.1-1.3,1.2-1.5,1.2-.4,0-.4-1.6-1.4-1.5-3.5.1-5,1.4-3.5,5.3,1,2.5,3.3,1,4.7,2,2.4,1.7-1.8,5.5,1.9,6.4,3.5.9.4-2.8,4.6-2-1.6-.2-2.4,3.3-1.8,4.2.8,1.3,3.8-3.5,6-2.7s1.8,3.4,1.8,3.6c-.3,1-3,.7-3,2.4s2.3.2,2.4.3c.3.4.3,7.6,3,9s2.2-2.7,3.3-2.8,8.7,4.4,8.7-.5-4.3-2.3-4.1-4.3,3.4-3.5,1.7-5.6c-2.5-3.2-2.2,2.8-2.4,3-.4.3-4.5,1.6-4.7-1s1.5-2.7,1.1-3.2-2.9,1.6-3-.9c3.8-1.1,4.9-5.6,7.8-8.4.3-.3,2.1.8,2.8-.3s-.6-3.7-.3-4.2,2.5.2,2.4-1.5c-.1-2.9-5.8.8-7.5-5s2.4-3.5-.6-4.8-1.1,2.5-3.9,1.6-7.3-4.3-8.4-5.5l1.2-.3ZM957,247c-8.1-4.8-6.7,8.4-6,8.7,1.7.9,4.7-1.4,7.2.6,5.3,4.3-5,3.6-.2,5s5.8-6.5,4.4,4.3c9.9-6.6,3.6-1.7,4.8-.6s2.1-.9,2.4-.6,2.6,7.8,7.5,3c5.9-5.9-7.6-4.9-8.1-5.4s.8-1.2.6-1.7-1.7-.1-1.7-1.5,3-3.8,2.9-4.8-4.4-5.4-4.7-5.5c-1.9-.9-2.5,2.9-3.3,3.3-2.4,1.1-.8-4.1-3.6-3s-1.5,6.3-3.3,4.2.8-1.9.6-3.2-2.8.6.6-2.8ZM771.6,252.3c.5-1.2-1.4-4.6-1.7-4.7-1-.2-1.1,2.2-1.3,2.3-1.4.5-4.3-1.4-6.5-.2s-.5,2-1.2,2.5c-1.4.9-3,.2-5.3,2.5-6.2,6.1,1.9,1.1,2.3,1.1,1.5-.1,2.8,1.6,4.5.9s-.8-3.2,4.9-4.1,3.4,2,4.3-.2ZM184,266.6c.2-.6,2.3-2.1.5-2.8-4.4-1.5-6.3,11.9-5.7,12.3,3.6,2.4,10.4-5.8,7.4-6.9s-4.3,1.8-3.7-1.5,1.3-.9,1.5-1.2ZM809.5,278.8c-1.4-.9-1.5,1.8-2.1,1.8s-.9-1.2-1.8-1.1c-8.9.7-11.5,3.7-11.1,13.1l.9-1.2c4.5,10.7,9.1-7.2,12-6.6s1.5,6.3,1.3,6.8c-.3,1.3-5.1,2.6-1.6,4.3.2,0,4.5.5,4.5.3.1-1.1-1.1-8.2,1.8-7.8s.6,5.8,5.5,3.4,4.6-6.6,3.6-8.2c-2.1-3.2-8.4-.8-8.7-1.2s1.3-2.9-1.2-3.6c.3.7,1.2,9.9-1.8,8.4-2.4-1.2,1.8-6.5-1.2-8.4ZM973.6,286.2c-5.1-2.6-8.4,1.6-10.9,5.2.3-6.7-3.4,3.1-1.5,5.7,4.2,5.8,8.6,1,11.1.9s14.6,2.1,15.8,0c2.1-3.7-4.1-4.7-6-5.9-3.9-2.4-3.2-1.7-6.4-3.3s-1.6-2.3-2-2.5ZM301.8,298c1.4-1.2-5-5.1-6.2-5.2-7.9-.6,0,8.5-3.1,8.8s.5-4.6-5.4-3c-4.7,1.3,9.3,4.3,9.9,4.5,1,.4,1.3,2.9,2.7,2.7s2.3-2.8,2.1-3.3c-.3-.9-12.6-3.9-2.4-5.7l-.6,1.2c.7-.1,2.8.2,3,0ZM1064.9,297.4c0,0,1-1.5,0-2.1-4.7-2.8-3.1,2.8-4.2,3.7s-7.4,1.3-9.8,2.2-6.7,3.2-6.4,4.3,4.9,3.2,5.9,3.6,8.8,2.6,9.3,2.7c3.5.4,5.8-2.9,7.6-2.4s0,4.6,2.2,4.2c-.8-1.3,2-5.8,1.8-6s-4.1,0-4.2-.9,3.4-1.5,2.6-4.4-2.4-4.4-2.6-4.6c-.4-.5-2.3-.1-2.5-.3ZM877.9,300.4c-1.1.7-21.3-7.5-26-3.1s-1.7,6.9-1.6,7.6c.2,1.8,2.7,3.7,2.5,3.9-.6.6-3-1.9-3,.3,0,4.6,4.3,1.1,4.6,1,2.9-.5,5.9-.6,8.7-1.4s2.7-3,5-3,3.2,1.6,5.4,1.3,3.2-1.7,6-1.9,9.5-.3,9.9,0c1.3,1.1-2.9,2.2,4.4,2.3s8.3-1.6,10.2-1.8,2.5,1.3,4.1,1.2c6-.7,13.3-3.8,19.6-3.5l-34.8-2.4c.8,2.7-1.9.3-5,.7s-1.8,2-2.2,1.7-.3-3.2-.7-3.5-5.9-2-6.2-1.9c-1,.3-.8,2.3-.9,2.4ZM907.7,308.2c-6.3,1,2.5,18.8,4.7,18.5s-3.9-11.1-3.8-12.3,4.5-7.1-.8-6.2ZM273.2,336.7c-6.2-6.4-15.1-10.5-23.9-7l-4.5,15c-4.9-1.3.9-5.1,0-6s-4.6-.8-4.8-.6c-3.1,2.5,3.6,8.3,3.6,8.8.2,1.1-1.9,3.2-1.4,6s8.1,8.5,8.9,12.1c.3,1.5-1.1,2.6-.9,3.3.6,2.6,3.9,14.6,6.4,15.3s12.5-.7,12.9-1.2c2.6-2.5-.2-11,8.1-13.1s2.9,1.1,3.8.8,5-4.7,3.6-5.7-6.9,1.5-4.8-6.6c-2.2,6.3-7.9,0-6-1.2s3.8,2.5,3-3.6l-3,3c-1-1.5,2.4-4.3,1.8-4.8-1.6-1.3-3.5,2.8-4.8.9,5.4-8.9,11.2-6.1,2-15.5ZM950.4,355.5c2.6-2.7-11-8.1-13-8.4s-13.1,1.1-16,1.8-3.4,2.9-3.7,2.9c-1.4.5-6.1-5.6-7.5,1.5-1.3,6.5,2.4,7.6,5.4,10.9.8.8.5,3,.7,3.2.3.3,2.1-.2,2.6.2,2.7,2.1,13.9,8.5,16.9,8.3s9.7-4.5,12.7-5.9,4.7.3,5.8-1.3,2.5-12.1-2.3-11.4-3.1,4.5-4.9.5c-1.7-3.7,3.1-2.2,3.3-2.4ZM1006.6,364.4c-6-2.2-3.9,0-4.7,0s-3.5-1.5-4.4-.6-.5,4.1-.4,4.3c1,1.2,6-2.4,6.3-2.4s.7,1.8,1.2,1.8c2.2-.1,1.3-1.2,1.8-1.2.9-.1,4.1,3.3,1.8-2.4s-1.5.5-1.6.5ZM994.8,363.3c-2.3-1.9-5.7,2.7-6.4,3-1.7.6-7.5-.3-8.9,3.6-2.3,6.8,7.8-.5,8.4-.6,2.5-.4-2.4,3.4-2.1,4.2s6.3-2.2,7.2-3.4-.8-1.8-.6-2,2.2.2,2.4,0,.2-4.6,0-4.8ZM804.6,380.9c-8.3-1-3.2,11.2,2.7,9.4s5-5,4.3-6.6-6-2.6-7-2.8ZM266.4,386.7c-13.8,1.3-.7,12.4,1.8,10.2s.7-5.3.7-5.6-3.3-2.4-2.5-4.6ZM810.1,412.5v-9.3c0-3.5-8-6-4.8-8.7-14,2.2-4.6,17.9-12.6,24.3,6.7-2.4-3.9,5.3,2.4,6.6-4,.3-3.6,2.7-4.2,3.3-1.2,1.1-3-5.3-2.9-6.1.5-4.6,5.8-6.4,5.9-6.8.2-.7-1-14.2-3.8-12.1-11,5.4-16.6,2.3-10.1,16.7-4.6-3.8-4.8,10.9-4.1,11.3s5.1-1.1,6.8.7l2.7-2.4c-2.8,5.3,1.6,2.8,1.8,3,.6.6-1.3,1.9-1.2,2.7s2.1,6.7,2.4,6.9,2.7-.8,3.8-.9,2.1,1,2.5.9,3.6-3.8,3.8-4.6c.8-2.1-3.5-3-1.6-4.3,3.5-2.5,5.9-.1,6.2-.2,1.6-.4,6.6-3.5,6.8-5s-6-5.9-6.5-5.9c-2-.2-1.7,3.2-3.6,2.8,1.8-3.3,1.1-11,2.7-13.8s2.8,1.6,3.9.6-.1-3,.9-3,.5,4,2.7,3.6ZM762.8,419.1c-1.8-.5-5.8,8.1-5.4,8.4s1.9-.3,2.3.1c1.2,1.4,4,7.4,4.3,7.7s2.8-1,4.2.6c-.9-2.6,1.2-9.4.3-11.4s-2.4-1.6-2.6-1.9c-.5-.7.2-2.5-.1-2.9-.8-1.3-2,1.2-2.1,1.2-.6-.1-.8-1.8-.9-1.8ZM56.4,428.9c-13.2-6-1.2,9.1,3.8,6.7,4.2-2-2.1-5.9-3.8-6.7ZM712.4,443.7c-2.7-3.7-1.4,13.2-1.8,13.8s-3.2-1.7-2.4,2.2,2.1,1,2.4,1.8c.6,1.6-.5,6.9.6,9.2,1.1.3,2.3-5.2,2.4-5.7.7-4.1,1.2-18-1.2-21.2ZM494.2,528.2c-.4-10.2,5.2-8.8-6.4-13.7s-5.2,1.6-7.7-3.7c-6.1,6.2-13.3,2.9-19.7,3.6-2.6.2-5.2,2.5-6.6,2.4s-13.5-5.5-14-6.1c-2.5-2.9.5-7.1,2.8-9.2,8.1-7.4,21-.5,24-3s-1.1-1.8-.6-2.1c1-.7,4.5,2,6,1.2s-1.7-1.9.3-1.8,2.9,1.8,4.2,1.6,5.3-2.4,5.6-2.6c1.5-1,4.8-7.8,3.3-9.3s-6.7-2.2-7.7-2.4c-11.3-1.4-27.3,2.9-38.9,1.6s-12.6-3.6-13.2-3.5-.8,2.2-2,2.3-10.2.3-10.7.2-.1-1.6-.4-1.7c-.8-.4-2.1.1-3-.4-1.3-.7-1-2.7-2.2-3.2-2.3-.9-9.3,1.3-11.2,1s-3.5-3.3-5.5-4.2-3.6.1-5.3-.7c-4-1.9-8.5-9.3-12.8-10s-12.4,2.2-14.4,4.1-.6,2.5-1,3.5-1.7,0-1.7,0c0,.2,2,2.6,1.2,3.6s-1.4-1.5-1.8-1.2-2.5,9.1-3.6,10.4c-3.2,3.8-8.1-2.6-10-2.4s-3.7,2.3-6.2,2.6-12.8-1.3-15.3-2.2-1-3.2-2.4-2.9-3.8,3.7-8.9,3.6-4.6-4.4-6.3-5.6-4.2-.1-4.8-1,.6-2.6.4-2.9-2.4-.9-2.7-1.9,2-1.2,0-3.6c-2.7-3.4-10.1-2.8-11.9-3.6-3.4-1.5-9.1-9.6-16-5.7-1.9,1,2.7,4-1.4,4.4-5.4.5-1.4-8.6-5.8-2.2,0-6.5-5.6-.8-7.5-.6s-.8-1.8-.9-1.8c-1.1-.1-.2,1.3-.9,1.2s-6.8-2.1-7.1-2.3c-1.6-1,.3-6-.6-7.3s-16.4-3-17.5-.2,3,6-4.7,6.1c-6.6,0-3.3-2.3-5.7-3.2s-3.5.5-4.1.3-.7-2.3-2.3-2.8c-4.3-1.3,0,2.6-.2,2.9-1.4,2.5-4.8-3.9-5.2-4.1-1.2-.5-5.2.9-6.3.8-2.3-.2-3.5-2.3-5-2.1-2.7.3-1.7,3.3-2.5,4.2s-3.1,1.8-3.8,2.9c-2.2,3.5-2.3,13.9-3.1,15s-4-.7-4.7-.2c-1.3.8-.9,3.8-1.6,5-7.4,11.9-6.1,2.1-8.2,1.4s-7.6,4.9-5.1,6.6,2.8-.9,3.8-.6c5.7,1.7,9.7,2.6,15.5,2.3s6.2-2.3,7.2-2.2c1.7,0,8.2,5.7,11.8,6.2,3.1.5,5.6-1.4,7.2-.7,4.7,2.2-9.3,9.6-3.4,14.5,3.6,3.1,30.4,3,37.7,5s13.7,9.3,28.9,10.7,7.4-2.7,9.2-3.9,5.6,1.2,6,.9-.1-1.7,0-1.8c.6-.4,9.6,5,12.9,3.6s0-2.2.3-2.4c1.2-.6,8.4-.3,9.9,0,22.7,4.2,42.4,16.3,66,20.3,1.3.2,5.3-.7,7.5-.3s10.3,3.9,11.7,3.9c2.1,0-.6-2.1,1.2-3s.6,3.3,3.6-1.3l30.6,6.7c2.8-2.5,6.3-1.4,8.2-1.9,3.2-.9,5.7-5.1,12.1-4.1s4.7,3.8,5.5,4.1c2,.7,7.6,1.5,10.6,2.6.8.3.8,1.5,1.4,1.7s1.9-.8,2.2-.7c1.1.4,6.9,4.2,9.2,4.6,4.2.9,14.1-2.3,10.3,4.4,1.7-.5,11.8,3.4,9.9-1.8s-6.1-1.5-6.3-1.8c-.9-1.1-.9-5.5-1.2-6.8s-1.6-.5-1.8-1.9,1.8-11.2,3-11.7c.1,3,2.5,10.2,5.2,11.4s3.9-.6,5.8,0c4.1,1.2,16.2,8.6,14.8,13.3s-4.3,1.7-2.4,2.8c6,3.7,5.7-5.5,7-7.2s7.2-3.9,9.2-5,6.7-1.5,6.4-4.3c-.3-3.4-14.6-11.2-18.3-11.5-5.7-.4-4.7,2.8-7.8,3.9-4.6,1.8-9.4-1.2-13.7-2.2s-2.5.7-3.2.6.8-3.1-3-1.8ZM734.8,478.8c-6.9-10.3-3.5,3.3.6,6,7.9,5.2,3.8-7.2,1-2.2.8-2.8-1-2.8-1.6-3.8ZM540.4,489.2c-3-.6-5.1-3.7-7.6-4.7-15.5-6.7-12.8,7.6-3.9,4.6s-.7-1.7,1.7-2.1,6.9,5.2,9.8,2.2ZM933.3,511.2c-.3-.1-.6-1.3-1.2-1.5-3.9-.9-10.2,5.4-15.5,5.4-3.3,0-7.3-2.5-7.7-2.4s-5.5,6.9-5.7,7.3c-.4.9,1.7,4.4-1,5.3s-4-3.6-2,1.4c1,2.5,5.6-4.1,6-4.3,6-2.7,20.2,2.1,21.2,1.7s2.4-4.5,2.7-5.1c.9-2-3.3.8,1.1-2.9s0-1.6.1-1.6c1.3-.9,1.1,1.7,2.7,1.8,11.1,1,5.4-3-.7-5.1ZM1046.8,526.9c.2-.1,2.3-4.3,2.4-4.5.7-5-10.6-7.4-10.1-1.4l-2.4-1.8c-.5,7.3,1.2,2.8,2.6,3s4.1,6.7,7.5,4.6ZM801,529.5c-3.6-6-8.9,3.4-8.2,4,1.2,1.1,4.9-3.3,6.6-1.8,3.2,2.8-10.6,7.2-11.4,7.5-1.3.5-1.6,2.5-2.3,2.7-1.5.4-6.7-2.4-7.4-1.8-3.1,2.9,11.7,2.7,5.4,6.3-7.3,4.1-10.3-1.9-16.8-2.7,2.1-6.8-3.3-.8-4-.7-3,.6-10.6-1.5-11-1.1s.3,1.7-.2,2.2c-4.6,5-3.1.9-4.3.8s-1.2,1.8-3.8.3-1.6-2.5-2.9-3.1c-3.6-1.5-7.3-2.2-10.9-3.2s0-1.8,0-1.8c-1.8-.3-5.8.6-9.1-.2s-3.2-2.8-3.5-2.8c-1.9-.2-1.7,1.8-1.8,1.8-1.8,0-4.8-1.8-5.1-1.8-3.6.3-7.5,1.9-10.2,3.5s-2.6-2.8-1.5,2.5c-4.5-4.6-5.2,4.8-8.7,0-.3.9-2.4,6.9-2.7,7.2s-3.5,0-4.8,1.8c.9-5-3.7-.7-4.8.6,6.9-3,1.9,1,2.7,3s3.7,1.3,3.9,1.2c1.2-.9-.8-2.9-.6-3.6s3.5-2,3.6-1.8c.3.4-.4,3.4,0,4.4s3.6,3.3,3.8,3.4c.5,0,.3-1.5,1.3-1.7s6.8-1.3,7.1-1.2c1.6.1,2.6,2.3,4.8,2.4s6.4-2,11.3-1.1,5.3,3.7,7,2.9-.3-2.4,1.5-2.4,2.2,3,4,3.8c5.7,2.4,3.2-1.2,3.4-1.3.4-.3,8.7,0,9.9,0s0-1.2.6-1.2,1.1,2.5,2.1,1.2-1.1-3.5,1-4.1,10.1.6,8,4.1c1.9.6,1-1.7,1.2-1.8,1.1-.4,2.8,1.5,5,1.2s9-4.8,10.5-5.3,4.1,0,5.9-.7l-.3,1.2c8.4,0,3.9-1,4.8-2.4s2.4,1.9,3.3,1.8c1.4,0,2.9-2.6,3.8-2.9,2.4-.9,4.4-.9,6.7-1.6s-1.5-2.8,2.3-.3c-4.5-10.1,5.1-2.1.6-9.6,2.7-1.5,3.5,1.7,4.8-.6-2.1,4.2,9.8,3.1,10.8,2.7,2-.9-1-5.8,4.9-3.1s-1.4,1.9-3.3,3.4c-8.4,6.6-2.9,3.9,2.4,6.5,4.5-3.9,3.8-.6,4.7-.5,5.2.7.5-3.4.8-4.2.5-1.2,4.6-.8,4.8-.9,1.1-.7,2.1-4.3,3-4.8s7.2-.4,5.4-2.4c-4.3-4.6-7.4.6-8.4.9s-1.8-2.4-3-1.2,1.2,2,1.2,2.1c0,1.4-2.3.2-2.4.3-.2.4,1.4,2.4-.3,3-2.8,1-1.7-3.8.3-4.8-4.2,2.3-9.7-.6-13.1-.2s-4.8,2.6-6.3,2.6-2-5.9-2.3-6.4ZM627.7,530.1c-2.7-4-29.5-1.1-6.4,11.5,2.4,1.3,2.4-.7,8,3.7s5.8.6,2.8,3-7.2-1-8.7,1.4l-2.7-3c2.6,8.1-.8,2.2-6,4.2.5-2.1-1.7-4.8-1.8-5.1-.2-.7,1.8.1,1.8-.6s-2.2-4.8-2.9-1.8,2.4,3.1-2.4,1.5c1.5-2.4,2.4-.9,1.2-4.8-1.6,2.5-2.4-1.2-3.6,2.4,2.5-3.1-4.4-3.4-5.4-3s-.3,2.2-1,2.4-8-3.8-9.4-3.6-5.1,4.3-6.5,5c-2,1.1-6.3-1-7,5.5s1.7,4.8,1.6,5.3-1.8.8-2,1.7c-2.3,10.6,4.2,4.4,10.1,9.5,5.2-4,8.6-1.6,13.1-2.5,4.1-.7,8-3.7,11.1-4.5s5.3.5,6.7.2c2.1-.5,4.3-2.8,4.5-2.9,1.7-.4,4.1,1.4,6.6.2s4.2-5.4,4.9-6.8,3,1.3,3,1.5c0,.4-4.8,6.3,2.1,6.3s1.3-1.8,1.5-1.8c.6-.1,1.6.7,2.6.5,1.4-.3,2.8-1.6,4.4-1.6s6.9,2.5,8.6,1.2c3.2-2.5-7.8-2.9-7.8-2.7-1.1-2.7,4.1-1.5,5-1.5s.1-1.5,1.3-1.2,4.2,3.7,8.1,2.1,4.7-9.4-1.2-5.7c-.2.1.6,5.5-2.1,1.8s3.1-15.2-8.2-12.5c-2.1.5-3.7,3.7-4,3.5s-.4-2.5-2.2-3.5c-10.3-5.9-8.5,9.1-16.9-1.6-.9-1.1-.3-3-.8-3.7ZM985.8,532.4c-.4-.2,2.2-1.6.2-2.4s-11.8-1.6-12.2-1.2c-3.7,3.5,15.7,7.7,16.8,6.6,3.4-3.4-4.5-2.8-4.8-3ZM860.5,529.4c-2.3-2-9.8,2.9-7.8,5.4s4.4-3.9,4.2-.6c-12.2,5.2-4.2,10.4,3.4,4.8,2,1.2,18.3-1.3,18.7-2.2,4.2-9.2-14.8-5.8-19.1-5-.3-.6.7-2.3.6-2.4ZM611.1,530.6c-.3-.3-6.6,0-7.1.7s-1.2,9.6,2.3,7.7,5.2-8,4.8-8.3ZM849.7,535.4c-.2-.9,2.1-4.6-1.4-4.1s-4.3,6.3-5.5,6.5-1.2-1.8-1.9-1.8c-1.6-.2-4.1,2.5-6.2,1.9,1.9,7.8,2,.5,4.7,2.5s-2,5,6.1,2.9c0-4.1,1.6-7.1,6-6.6.3-2.2-1.8-1.1-1.8-1.2ZM570.1,552.5c1.4-2.7,7.1-12,6.7-14.4s-10.7-5.4-13.4-5.2-10.9,6.2-11.4,7.2c-1,2.1,2.8,8.1.2,10.7s-4.2-.4-5,2c-.7,0-3.5-4.3-3.1.2.4,3.9,8.8,3.6,10.3,3.9s9.7,2.6,10.2,2.5.6-3.8.9-4.2c2-2.4.4,3.4.6,3.6.4.3,5.1-.8,5.4-2.1.7-2.9-4.4,1.7-1.4-4.1ZM954.2,538.8c-3.9-2-1.3,0-4-.4s-2.7-1.8-4.7-1.7-11.3,4.9-14.1,5.2-4.6-1.9-7-1.7c-4.4.3-11.6,6.2-19.1,1.9-5.3,3.3-22.1,2.8-26.3,6s-1.2,5.5-1.8,6.5-1.8.1-2.3.9c-4.6,6.5-5.1,4.4-11.8,7.7s-.4,1.8-.9,2.1c-6.4,3.4-17.1,3.8-24.4,8.3-.6.4-10.8,9.2-11.1,9.9-1.2,2.5-.2,7.1-.4,7.9-.6,2.5-2.6,1.9-2.8,2.3-3.2,7.5,4.2,3.6,4.1,6.2s-5.7,2.8-6.4,3.5-2.9,6.6-2.6,7c.6.6,2.8-1.1,3.4-1.1,14.7,1.4,10-1.2,21-4.8,5.3-1.7,6.8,2,14-4s8.5-8.8,12.1-12.7,3.2-.7,4.4-2.5c2.2-3.4.2-4.6,5.4-8.4,10.6-7.7,19.4-7.5,30.7-11.3s4.7-4.1,7.2-4.8,6.6.5,10.1-1.3,3.5-4.8,6.6-6c7.9-2.9,12.3-1.6,19.4-9.1.2-.2-.8-2,.6-3.2s1.1,1.1,1.5.9c4.4-2.1.5-2.5-.7-3.2ZM675.2,540.8c-2.1-.8-4.8,11.9-.9,11.4s-.6-1.9-.2-2.7c1.5-3.2,6.1-1.8,5.3-6-.4-2.2-1.7-.7-3.6-1.2s-.5-1.5-.6-1.5ZM692.6,571.4c-1.3-.5-4.6,3.7-5.7,3.9-2.4.5-5.6-2-6.1-2-4.3,0-18,1.4-21.4,3.5s-4.2,2.6-3.9,4.4,3.8,4.7,4.1,4.9c1.3.9,11.1,3.4,12.9,3.7s1.3-1.7,2.4-1.6c5.2.5,13.4,5.8,17.7,9.3s4.5,7.1,7.5,8.2,14.1,2,16.7,1.1,8.3-5.5,8.5-6c2.6-4.8-5.3-6.3-6.9-8.1-3.1-3.4.3-3.2-5.8-7.1-.4-.2,0-1.8-1.1-2.2s-3.4,1.1-4.8,1.1c-5.9-.1-2.8-4-4.7-6s-2.5.5-4.5-.9-4.5-6.1-4.8-6.3ZM767,612.7c-.2-.3-5.3-.8-6.3,0s0,2.1-.5,2.4c-.8.5-5.2,1.9-5.3,2.8-.3,4.8,15.6-.5,12-5.1ZM818.5,615.7c.4-1.3-1.8-2.8-3-2.6-2,.3-8.9,8.6-11.8,9.8s-8.6.4-10.4,3c3.5-2.2,1.4,4.7,3.3,5.4s.9-1.1,1.3-1c7.8,1.2,2.7-1,3.8-2s11.2-.4,10.2-4.5c1.8-2.6,6.7-1.3,6-4.7s-1.8-.8-1.8-1.3c-.1-1.3,2.3-2,2.3-2.1ZM843,804.6c-.1-.1-3.3-.8-3.5-.7-.6.5,1.3,1.9,1.2,2.7s-1.3.3-1.2.6c0,.8.6,5.3.7,5.6.6,1,10.4,1.2,10.7.7.5-.9-1.2-1.7-1.2-2.7s2.3,0,.7-2.4-6.4,0-7.2-.9.4-2.4,0-2.9ZM761.3,838.2c-4.7,1.7,5,4.8,5.6,5.1,1.1.6,5.5,7.2,8.2,2.6,2.8-4.8-4.8-3.8-6.3-4.5s-5.7-3.9-7.4-3.3ZM531.4,980.8c-2.8-1.6-7.8,8.5-5.4,11.4,3.3-5.4,3-.3,4.2-1.2s.2-6.7,3.6-7.5c.3-1.9-1.6-.1-1.8-.3s-.4-2.3-.6-2.4Z"/>
  </g>
</svg>