<?xml version="1.0" encoding="UTF-8"?>
<svg xmlns="http://www.w3.org/2000/svg" xmlns:xlink="http://www.w3.org/1999/xlink" version="1.1" viewBox="0 0 1080 1080">
  <!-- Generator: Adobe Illustrator 29.8.3, SVG Export Plug-In . SVG Version: 2.1.1 Build 3)  -->
  <defs>
    <style>
      .st0 {
        stroke: #2c3eff;
      }

      .st0, .st1 {
        fill: none;
      }

      .st0, .st1, .st2 {
        stroke-miterlimit: 10;
      }

      .st1 {
        stroke: #00ee19;
      }

      .st2 {
        fill: #fcee21;
        stroke: #cc0026;
      }
    </style>
  </defs>
  <g id="Layer_2">
    <image width="1800" height="1800" transform="scale(.6)" xlink:href="../images/straits/malacca.jpg"/>
  </g>
  <g id="Layer_1">
    <g id="malacca">
      <path class="st2" d="M1079.4,761.7l-12.9,18.3-6.1-17.5-48,17.5s9.9-6.1-26.7-19-57.1-7.6-57.1-7.6c0,0-35.8,3-55.6,12.2s-28.2-34.3-28.2-34.3c0,0,5.3-11.4,0-34.3s-24.4-31.2-24.4-31.2c0,0-19-36.6-19-64.8s29-44.9,29-44.9c0,0,16,12.2,38.9,9.1s23.1-39.6,23.1-39.6c0,0,47.8-1.5,63-12.2s18.3-45.7,30.5-43.4,48-29.7,48-29.7l19.8-9.1,25.8-35.8L1082.5.3h-357.3s73.9,59,87.6,94.8,20.6,112.5-13.7,137.4-64,30.2-64,30.2c0,0-7.4,37-30,41s-30.2,24.6-42.4,22.3,3.8-48,0-58.7-55.6-11.7-69.3-34.8-29.7-52.1-60.2-55.1-10.7-27.6-10.7-27.6c0,0-36.6-10-35.8.4s3.8,45.5,3.8,45.5c0,0-35.8,54.9-29.7,86.9s19.8,6.5,19.8,6.5c0,0,15.2,43,21.3,58.2s10.7,43.4,29,32.8c0,0,12.2,3,27.4,19s34.3,28.2,41.9,40.4,17.5,43.4,9.9,58.7,16.8,50.3,16.8,50.3l15.2,30.5-24.3,8.8s-24.4-14.9-27.4-19.4-50.3-33.5-50.3-33.5l-14.4-14-6.1-18-25.1-48.8s-3-10.7,4.6-29.7-14.5-29-14.5-29c0,0-24.4-28.2-31.2-45.7s-27.4,0-27.4,0c0,0-1.5-10.7-6.1-29.7s8.4-57.1,8.4-57.1c0,0-6.1-21.3-2.3-38.9s-12.2-36.5-12.2-36.5c0,0,25.1,10.7,23.6-12.2s-22.9-60.9-22.9-60.9c0,0-9.9-12.2-30.5-32s-41.1-17.5-41.1-17.5l-34.3,9.1s-22.1-5.3-28.2-18.3S290.1.3,290.1.3L0,0v1080h1079.4c-.6,0,0-120.2,0-120.2l-8.4-5.3-19.8-9.1-54.9-3.8-93.7-11.4-87.6-16-86.1-15.9-23.9-18.9-36.3-7.8,30.5-18.3-10.7-12.2-38.1-2.3-74.7-64.8s-35-33.5-44.2-41.9-32-63.2-32-63.2c0,0-16-29.7-23.6-36.6s-22.9-15.2-22.9-15.2c0,0-3-34.3-16-47.2s-38-29.8-38-29.8l-21.4-37.3s-46.5-24.4-61.7-54.1,9.9-23.6,9.9-23.6l57.1,13,31.2,13s5.3,26.7,19.8,38.1,56.4,38.1,56.4,38.1l21.3,28.2,7.6-9.9,20.5,13.7,21.4,9.9,28.2,18.7,23.6,14.1,9.1,34.3-9.1,21.3,34.3,10.7s-5.3,15.2,11.4,30.5,22.1-12.2,22.1-12.2c0,0,17.5-6.1,30.5,20.6s21.3,16.8,21.3,16.8c0,0,2.3,32.8-23.6,20.6s-10.7,25.1-10.7,25.1l-3,35,3.8,34.3,25.1,9.1,27.4-3.8,26.7,12.2s19.8,4.6,22.9,16,16,4.7,16,4.7l47.2,2.4,16.8-14.7,26.7,12.3,73.9,2.4h15.2l28.2,9.5,54,4.8v-131.8Z"/>
      <path class="st1" d="M642.1,578.9l-15.2-30.5s-24.4-35-16.8-50.3-2.3-46.5-9.9-58.7-26.7-24.4-41.9-40.4-27.4-19-27.4-19c-18.3,10.7-22.9-17.5-29-32.8s-21.3-58.2-21.3-58.2c0,0-13.7,25.5-19.8-6.5s29.7-86.9,29.7-86.9c0,0-3-35-3.8-45.5s35.8-.4,35.8-.4c0,0-19.8,24.5,10.7,27.6s46.5,32,60.2,55.1,65.5,24.1,69.3,34.8-12.2,56.4,0,58.7,19.8-18.3,42.4-22.3,30-41,30-41c0,0,29.7-5.3,64-30.2s27.4-101.6,13.7-137.4S725.2,1.3,725.2,1.3h353.8l.4,394-25.8,35.8-19.8,9.1s-35.8,32-48,29.7-15.2,32.8-30.5,43.4-63,12.2-63,12.2c0,0-.2,36.6-23.1,39.6s-38.9-9.1-38.9-9.1c0,0-29,16.8-29,44.9s19,64.8,19,64.8c0,0,19,8.4,24.4,31.2s0,34.3,0,34.3c0,0,8.4,43.4,28.2,34.3s55.6-12.2,55.6-12.2c0,0,20.6-5.3,57.1,7.6s26.7,19,26.7,19l48-17.5,6.1,17.5,12.9-18.3"/>
      <path class="st1" d="M622.3,636l-9.1,21.3,34.3,10.7s-5.3,15.2,11.4,30.5,22.1-12.2,22.1-12.2c0,0,17.5-6.1,30.5,20.6s21.3,16.8,21.3,16.8c0,0,2.3,32.8-23.6,20.6s-10.7,25.1-10.7,25.1l-3,35,3.8,34.3,25.1,9.1,27.4-3.8,26.7,12.2s19.8,4.6,22.9,16,16,4.7,16,4.7l47.2,2.4,16.8-14.7,26.7,12.3,73.9,2.4h15.2l28.2,9.5"/>
      <path class="st0" d="M290.1.3s-16,42.2-9.9,55.2,28.2,18.3,28.2,18.3l34.3-9.1s20.6-2.3,41.1,17.5,30.5,32,30.5,32c0,0,21.3,38.1,22.9,60.9s-23.6,12.2-23.6,12.2c0,0,16,19,12.2,36.5s2.3,38.9,2.3,38.9c0,0-13,38.1-8.4,57.1s6.1,29.7,6.1,29.7c0,0,20.6-17.5,27.4,0s31.2,45.7,31.2,45.7c0,0,22.1,9.9,14.5,29s-4.6,29.7-4.6,29.7l25.1,48.8"/>
      <path class="st0" d="M490.5,527.1s-41.9-26.7-56.4-38.1-19.8-38.1-19.8-38.1l-31.2-13-57.1-13s-25.1-6.1-9.9,23.6,61.7,54.1,61.7,54.1l21.4,37.3s25.1,16.8,38,29.8,16,47.2,16,47.2"/>
      <polyline class="st0" points="215.2 1.3 2 1 2 579.9"/>
    </g>
  </g>
</svg>