<?xml version="1.0" encoding="UTF-8"?>
<svg id="Layer_1" xmlns="http://www.w3.org/2000/svg" version="1.1" viewBox="0 0 1080 1080">
  <!-- Generator: Adobe Illustrator 29.8.3, SVG Export Plug-In . SVG Version: 2.1.1 Build 3)  -->
  <defs>
    <style>
      .st0, .st1 {
        fill: none;
        stroke: #00ee19;
      }

      .st0, .st1, .st2 {
        stroke-miterlimit: 10;
      }

      .st0, .st2 {
        stroke-width: 4px;
      }

      .st1 {
        stroke-width: 8px;
      }

      .st2 {
        fill: #fcee21;
        stroke: #cc0026;
      }
    </style>
  </defs>
  <polygon class="st2" points="364.5 595.2 364.1 560.5 350.2 550.8 328.1 573 335.7 602.8 302 550.8 311.8 529.8 285.5 515.6 267.8 499.7 238.3 436.8 262.2 417.3 295.9 419 304.6 407.4 359.6 497.3 396.3 500.5 435 529.8 478.5 540.7 505 547.2 540 516 559.8 527.4 569.2 566.4 677.5 583 734.2 591.1 891 589 1011 739 1080 767.4 1080.1 1081 26 1083.5 368 968 540 865 687 732 664 679 584 624 540 583 544 541.3 531 538.4 515 557.4 465.1 602.8 442 611.4 380.4 617.7 364.5 595.2"/>
  <polyline class="st1" points="1080 767.4 1080 1080 42.6 1080"/>
  <polyline class="st0" points="350.2 550.8 328.1 573 335.7 602.8 302 550.8 311.8 529.8 285.5 515.6 267.8 499.7 238.3 436.8 262.2 417.3 295.9 419 304.6 407.4 359.6 497.3 396.3 500.5"/>
</svg>